<svg xmlns="http://www.w3.org/2000/svg" width="252" height="244" fill="none"><path fill="#F5F5F5" d="M126 244c69.588 0 126-34.485 126-77.023 0-42.539-56.412-77.023-126-77.023S0 124.438 0 166.977C0 209.515 56.412 244 126 244Z"/><path fill="#E0E0E0" d="m129.25 230.103 43.01-26.434-32.333-19.766-2.944-4.863s-15.838-3.597-21.005-.862c-5.167 2.736-32.377 13.087-32.377 13.087s-45.84-38.503-49.1-40.481c-3.26-1.977-22.442 10.601-13.96 19.217 8.482 8.617 25.67 19.298 33.551 22.935 7.881 3.638 21.399 7.096 21.399 7.096s-2.141 3.192 4.145 8.096c6.287 4.904 33.649 18.211 37.391 19.535 4.227 1.492 9.317.688 9.317.688l2.906 1.752ZM244.239 159.279l-29.362 17.928a1.565 1.565 0 0 1-1.464 0l-61.684-37.769c-.404-.249-.404-.648 0-.89l29.368-17.928a1.528 1.528 0 0 1 1.458 0l61.716 37.763c.372.255.372.654-.032.896Z"/><path fill="#DD6B20" d="M183.986 78.451 158.453 93.95v45.847l25.533-15.499V78.451Z"/><path fill="#000" d="M183.986 78.451 158.453 93.95v45.847l25.533-15.499V78.451Z" opacity=".35"/><path fill="#F5F5F5" d="m159.18 94.713 24.806-14.966c1.126 1.388 2.793 2.351 5.003 2.891L164.374 97.57s-1.404-.347-5.194-2.857Z"/><path fill="#DD6B20" d="M166.476 97.489a4.429 4.429 0 0 1-2.102.533 4.436 4.436 0 0 1-2.103-.533l-3.687-2.255c-1.163-.706-1.163-1.857 0-2.568l24.485-14.775.917.578-24.134 14.637c-.7.422-.694 1.116 0 1.538l3.429 2.07c.391.211.823.321 1.262.321.439 0 .871-.11 1.262-.32L189.929 82.1l1.037.636-24.49 14.752Z"/><path fill="#000" d="M166.476 97.489a4.429 4.429 0 0 1-2.102.533 4.436 4.436 0 0 1-2.103-.533l-3.687-2.255c-1.163-.706-1.163-1.857 0-2.568l24.485-14.775.917.578-24.134 14.637c-.7.422-.694 1.116 0 1.538l3.429 2.07c.391.211.823.321 1.262.321.439 0 .871-.11 1.262-.32L189.929 82.1l1.037.636-24.49 14.752Z" opacity=".25"/><path fill="#DD6B20" d="M190.961 82.72v45.846l-24.485 14.77a4.46 4.46 0 0 1-2.102.529 4.46 4.46 0 0 1-2.103-.529l-3.692-2.255a1.5 1.5 0 0 1-.598-.518 1.624 1.624 0 0 1-.271-.766V93.95c.025.276.118.54.271.766.152.226.359.404.598.518l3.692 2.26a4.463 4.463 0 0 0 2.103.53c.73 0 1.45-.181 2.102-.53l24.485-14.775Z"/><path fill="#000" d="M190.961 82.72v45.846l-24.485 14.77a4.46 4.46 0 0 1-2.102.529 4.46 4.46 0 0 1-2.103-.529l-3.692-2.255a1.5 1.5 0 0 1-.598-.518 1.624 1.624 0 0 1-.271-.766V93.95c.025.276.118.54.271.766.152.226.359.404.598.518l3.692 2.26a4.463 4.463 0 0 0 2.103.53c.73 0 1.45-.181 2.102-.53l24.485-14.775Z" opacity=".05"/><path fill="#DD6B20" d="M164.374 98.027a4.117 4.117 0 0 1-2.103-.532l-3.692-2.261a1.498 1.498 0 0 1-.598-.518 1.626 1.626 0 0 1-.271-.766v45.847c.025.276.118.541.271.766a1.5 1.5 0 0 0 .598.518l3.692 2.255a4.11 4.11 0 0 0 2.103.532V98.027Z"/><path fill="#000" d="M164.374 98.027a4.117 4.117 0 0 1-2.103-.532l-3.692-2.261a1.498 1.498 0 0 1-.598-.518 1.626 1.626 0 0 1-.271-.766v45.847c.025.276.118.541.271.766a1.5 1.5 0 0 0 .598.518l3.692 2.255a4.11 4.11 0 0 0 2.103.532V98.027Z" opacity=".2"/><path fill="#DD6B20" d="m190.202 88.86-21.388 13.162v43.344l21.388-13.157V88.86Z"/><path fill="#fff" d="m190.202 88.86-21.388 13.162v43.344l21.388-13.157V88.86Z" opacity=".55"/><path fill="#F5F5F5" d="m169.502 102.74 20.7-12.653c1.262 1.428 2.92 2.394 4.735 2.758l-20.525 12.59s-1.327-.318-4.91-2.695Z"/><path fill="#DD6B20" d="M176.4 105.371a4.176 4.176 0 0 1-1.988.507 4.173 4.173 0 0 1-1.988-.507l-3.485-2.134c-1.092-.671-1.092-1.735 0-2.429l20.4-12.474.863.527-20.067 12.346a.734.734 0 0 0-.357.281.794.794 0 0 0-.136.448c0 .161.047.318.136.448a.734.734 0 0 0 .357.281l3.239 1.954c.37.2.779.304 1.194.304.414 0 .823-.104 1.193-.304l20.055-12.317.983.578L176.4 105.37Z"/><path fill="#fff" d="M176.4 105.371a4.176 4.176 0 0 1-1.988.507 4.173 4.173 0 0 1-1.988-.507l-3.485-2.134c-1.092-.671-1.092-1.735 0-2.429l20.4-12.474.863.527-20.067 12.346a.734.734 0 0 0-.357.281.794.794 0 0 0-.136.448c0 .161.047.318.136.448a.734.734 0 0 0 .357.281l3.239 1.954c.37.2.779.304 1.194.304.414 0 .823-.104 1.193-.304l20.055-12.317.983.578L176.4 105.37Z" opacity=".8"/><path fill="#DD6B20" d="M196.799 92.897v43.343L176.4 148.714a4.173 4.173 0 0 1-1.988.507 4.173 4.173 0 0 1-1.988-.507l-3.49-2.134a1.397 1.397 0 0 1-.566-.489 1.514 1.514 0 0 1-.253-.725v-43.372c.022.261.11.511.254.724.144.213.339.382.565.49l3.49 2.134a4.173 4.173 0 0 0 1.988.507c.691 0 1.373-.174 1.988-.507l20.399-12.445Z"/><path fill="#fff" d="M196.799 92.897v43.343L176.4 148.714a4.173 4.173 0 0 1-1.988.507 4.173 4.173 0 0 1-1.988-.507l-3.49-2.134a1.397 1.397 0 0 1-.566-.489 1.514 1.514 0 0 1-.253-.725v-43.372c.022.261.11.511.254.724.144.213.339.382.565.49l3.49 2.134a4.173 4.173 0 0 0 1.988.507c.691 0 1.373-.174 1.988-.507l20.399-12.445Z" opacity=".7"/><path fill="#DD6B20" d="M174.412 105.874a3.87 3.87 0 0 1-1.988-.503l-3.49-2.134a1.426 1.426 0 0 1-.565-.49 1.522 1.522 0 0 1-.254-.725v43.373c.021.261.109.512.253.725.144.214.339.383.566.489l3.49 2.134a3.87 3.87 0 0 0 1.988.503v-43.372Z"/><path fill="#fff" d="M174.412 105.874a3.87 3.87 0 0 1-1.988-.503l-3.49-2.134a1.426 1.426 0 0 1-.565-.49 1.522 1.522 0 0 1-.254-.725v43.373c.021.261.109.512.253.725.144.214.339.383.566.489l3.49 2.134a3.87 3.87 0 0 0 1.988.503v-43.372Z" opacity=".55"/><path fill="#DD6B20" d="m217.018 96.529.229 3.296-27.526 15.637-.623-1.92 27.92-17.013Z"/><path fill="#000" d="m217.018 96.529.229 3.296-27.526 15.637-.623-1.92 27.92-17.013Z" opacity=".35"/><path fill="#F5F5F5" d="m189.464 114.306 26.664-16.297 4.637 2.834-27.188 16.84-4.113-3.377Z"/><path fill="#DD6B20" d="m198.585 115.937 3.315 28.197a2.407 2.407 0 0 1-.29 1.03 2.251 2.251 0 0 1-.698.78l-15.468 9.479a1.83 1.83 0 0 1-.802.242l8.935-36.93c.281-.014.555-.095.803-.237l1.092-.682 3.113-1.879Z"/><path fill="#000" d="m198.585 115.937 3.315 28.197a2.407 2.407 0 0 1-.29 1.03 2.251 2.251 0 0 1-.698.78l-15.468 9.479a1.83 1.83 0 0 1-.802.242l8.935-36.93c.281-.014.555-.095.803-.237l1.092-.682 3.113-1.879Z" opacity=".35"/><path fill="#DD6B20" d="m192.402 118.51-2.758-2.498-2.026-1.839c-.208-.347-.448-.607-.317-.897l-8.809 36.618v.035c-.131.289-.17.937.207 1.156l4.779 4.332a1.95 1.95 0 0 0 1.18.243l8.919-36.925a1.952 1.952 0 0 1-1.175-.225Z"/><path fill="#000" d="m192.402 118.51-2.758-2.498-2.026-1.839c-.208-.347-.448-.607-.317-.897l-8.809 36.618v.035c-.131.289-.17.937.207 1.156l4.779 4.332a1.95 1.95 0 0 0 1.18.243l8.919-36.925a1.952 1.952 0 0 1-1.175-.225Z" opacity=".25"/><path fill="#DD6B20" d="M187.618 112.953c-.546.335-.41.705 0 1.208l4.784 4.338c.307.164.645.25.989.25s.682-.086.989-.25l4.205-2.574c.546-.329.644-.815.213-1.076a1.885 1.885 0 0 0-1.759.134l-3.32 2.018a.711.711 0 0 1-.661 0l-3.496-3.216c-.18-.109-.18-.289 0-.404l27.456-16.875-1.316-.804-28.084 17.251Z"/><path fill="#000" d="M187.618 112.953c-.546.335-.41.705 0 1.208l4.784 4.338c.307.164.645.25.989.25s.682-.086.989-.25l4.205-2.574c.546-.329.644-.815.213-1.076a1.885 1.885 0 0 0-1.759.134l-3.32 2.018a.711.711 0 0 1-.661 0l-3.496-3.216c-.18-.109-.18-.289 0-.404l27.456-16.875-1.316-.804-28.084 17.251Z" opacity=".15"/><path fill="#455A64" d="m222.338 97.026-25.004 15.383v50.659l25.004-15.377V97.026Z"/><path fill="#F5F5F5" d="m198.154 113.247 24.195-14.787c1.245 1.543 3.089 2.616 5.533 3.222l-24.004 14.74s-1.546-.399-5.724-3.175Z"/><path fill="#263238" d="M206.204 116.318c-.72.388-1.516.59-2.324.59a4.892 4.892 0 0 1-2.323-.59l-4.075-2.486c-1.283-.787-1.283-2.059 0-2.845l23.846-14.58 1.01.62-23.452 14.428c-.77.468-.77 1.232 0 1.7l3.785 2.313a2.958 2.958 0 0 0 2.791 0l23.446-14.399 1.142.7-23.846 14.549Z"/><path fill="#455A64" d="M230.05 101.739v50.665l-23.846 14.573a4.902 4.902 0 0 1-2.323.589 4.903 4.903 0 0 1-2.324-.589l-4.075-2.487a1.664 1.664 0 0 1-.662-.574 1.799 1.799 0 0 1-.299-.849v-50.658c.028.305.131.597.3.845.169.249.397.446.661.572l4.075 2.498c.72.385 1.516.585 2.324.585.807 0 1.603-.2 2.323-.585l23.846-14.585Z"/><path fill="#37474F" d="M203.878 116.914a4.514 4.514 0 0 1-2.321-.579l-4.075-2.498a1.66 1.66 0 0 1-.661-.571 1.8 1.8 0 0 1-.3-.846v50.659c.027.306.13.599.299.849.169.25.397.448.662.574l4.075 2.486c.714.4 1.513.599 2.321.579v-50.653Z"/><path fill="#DD6B20" d="m232.562 103.277-25.003 15.383v50.664l25.003-15.382v-50.665Z"/><path fill="#000" d="m232.562 103.277-25.003 15.383v50.664l25.003-15.382v-50.665Z" opacity=".35"/><path fill="#EBEBEB" d="m208.367 119.499 24.195-14.787c1.245 1.542 3.09 2.616 5.533 3.221l-23.993 14.729s-1.551-.387-5.735-3.163Z"/><path fill="#F5F5F5" d="m208.367 119.499 24.195-14.787c1.245 1.542 3.09 2.616 5.533 3.221l-23.993 14.729s-1.551-.387-5.735-3.163Z"/><path fill="#DD6B20" d="M216.429 122.569c-.72.388-1.517.59-2.324.59a4.893 4.893 0 0 1-2.324-.59l-4.075-2.486c-1.283-.787-1.283-2.059 0-2.845l23.846-14.573 1.01.613-23.452 14.457c-.77.468-.77 1.232 0 1.7l3.785 2.313c.433.231.911.351 1.395.351.485 0 .963-.12 1.396-.351l23.43-14.451 1.147.699-23.834 14.573Z"/><path fill="#000" d="M216.429 122.569c-.72.388-1.517.59-2.324.59a4.893 4.893 0 0 1-2.324-.59l-4.075-2.486c-1.283-.787-1.283-2.059 0-2.845l23.846-14.573 1.01.613-23.452 14.457c-.77.468-.77 1.232 0 1.7l3.785 2.313c.433.231.911.351 1.395.351.485 0 .963-.12 1.396-.351l23.43-14.451 1.147.699-23.834 14.573Z" opacity=".25"/><path fill="#DD6B20" d="M240.268 107.991v50.647l-23.84 14.579a4.94 4.94 0 0 1-2.324.585 4.94 4.94 0 0 1-2.324-.585l-4.074-2.493a1.662 1.662 0 0 1-.662-.573 1.788 1.788 0 0 1-.299-.849v-50.659c.027.305.131.597.3.846.169.248.397.446.661.571l4.074 2.498c.72.387 1.516.589 2.324.589.808 0 1.604-.202 2.324-.589l23.84-14.567Z"/><path fill="#000" d="M214.101 123.165a4.508 4.508 0 0 1-2.321-.578l-4.074-2.498a1.676 1.676 0 0 1-.661-.571 1.79 1.79 0 0 1-.3-.846v50.659c.026.306.13.599.299.848.168.25.397.448.662.574l4.074 2.493a4.567 4.567 0 0 0 2.321.578v-50.659Z" opacity=".15"/><path fill="#F0F0F0" d="M99.052 27.868v-3.73a1.315 1.315 0 0 0-.23-.594 1.216 1.216 0 0 0-.474-.4l-21.3-12.937a3.479 3.479 0 0 0-1.639-.412c-.569 0-1.13.141-1.638.412L12.562 47.403a1.21 1.21 0 0 0-.476.4 1.31 1.31 0 0 0-.229.595v3.73c.027.216.106.42.23.595.123.174.287.312.475.4l21.3 12.942c.509.27 1.07.412 1.639.412s1.13-.141 1.638-.412l61.214-37.202a1.21 1.21 0 0 0 .476-.4c.123-.174.202-.379.229-.595h-.006Z"/><path fill="#FAFAFA" d="m12.562 49.392 21.3 12.937a3.48 3.48 0 0 0 1.639.412c.569 0 1.13-.141 1.638-.412l61.209-37.196c.9-.578.9-1.44 0-1.99l-21.3-12.936a3.479 3.479 0 0 0-1.64-.412c-.568 0-1.13.141-1.638.412L12.562 47.403c-.902.55-.902 1.44 0 1.99Z"/><path fill="#E0E0E0" d="M35.49 62.745v3.73a3.297 3.297 0 0 1-1.639-.41l-21.3-12.937a1.233 1.233 0 0 1-.473-.401 1.33 1.33 0 0 1-.232-.593v-3.736a.98.98 0 0 1 .137-.422c-.246.48-.06 1.035.546 1.416l21.3 12.937a3.13 3.13 0 0 0 1.66.416ZM38.27 34.518l18.045 10.89 29.804-18.113-18.04-10.889-29.81 18.112Z"/><path fill="#fff" d="m56.517 44.58-17.4-10.576a8.084 8.084 0 0 0-.094-4.777l17.292 10.461s.328 1.151.202 4.893Z"/><path fill="#EBEBEB" d="M55.424 38.197a3.8 3.8 0 0 1 1.181 1.311c.29.53.459 1.125.49 1.736v3.563c0 1.122-.748 1.573-1.67 1.012l-17.15-10.41v-.879L55.206 44.75c.546.335 1 .063 1-.613v-3.302a2.414 2.414 0 0 0-.292-1.042 2.262 2.262 0 0 0-.708-.786l-16.931-10.23v-1l17.15 10.42Z"/><path fill="#E0E0E0" d="M38.275 27.775 68.079 9.663l17.15 10.41c.485.332.89.782 1.18 1.311.29.53.459 1.125.49 1.736v3.562c.026.222-.007.447-.094.65a1.218 1.218 0 0 1-.397.507L56.604 45.95c.174-.127.31-.302.397-.506.087-.204.12-.429.095-.65v-3.551a4.06 4.06 0 0 0-.494-1.737 3.805 3.805 0 0 0-1.183-1.31L38.275 27.774Z"/><path fill="#EBEBEB" d="M56.61 39.51c.3.524.47 1.12.49 1.734v3.562c.026.222-.007.447-.093.65a1.217 1.217 0 0 1-.398.507L86.413 27.85c.174-.128.311-.303.398-.506.086-.204.119-.429.094-.65v-3.563a3.716 3.716 0 0 0-.492-1.735L56.61 39.509Z"/><path fill="#E0E0E0" d="m38.275 25.578 18.04 10.89L86.119 18.36 68.079 7.466 38.275 25.578Z"/><path fill="#fff" d="m56.517 35.64-17.4-10.588a8.103 8.103 0 0 0-.094-4.782l17.292 10.46s.328 1.175.202 4.91Z"/><path fill="#EBEBEB" d="M55.424 29.256c.486.332.89.782 1.181 1.311.29.53.459 1.125.49 1.736v3.563c0 1.122-.748 1.578-1.67 1.017l-17.15-10.409v-.896l16.931 10.218c.546.336 1.005.064 1.005-.578v-3.302a2.412 2.412 0 0 0-.294-1.042 2.262 2.262 0 0 0-.711-.785L38.275 19.847v-1.012l17.15 10.42Z"/><path fill="#FAFAFA" d="M38.275 18.835 68.079.729l17.15 10.409c.485.332.89.782 1.18 1.312.29.53.459 1.124.49 1.735v3.563c.025.221-.008.446-.094.65a1.224 1.224 0 0 1-.397.506L56.604 37.011c.174-.128.31-.303.397-.506.087-.204.12-.429.095-.65v-3.563a4.056 4.056 0 0 0-.49-1.736 3.801 3.801 0 0 0-1.182-1.312l-17.15-10.41Z"/><path fill="#F0F0F0" d="M56.61 30.568c.3.525.468 1.122.49 1.735v3.563c.026.221-.007.446-.093.65a1.217 1.217 0 0 1-.398.506l29.8-18.124c.172-.128.309-.303.395-.506.087-.204.12-.428.096-.65v-3.545a3.699 3.699 0 0 0-.492-1.735L56.61 30.568Z"/><path fill="#E0E0E0" d="m30.623.469 19.192 11.74v38.658L30.623 39.134V.469Z"/><path fill="#fff" d="M49.198 12.85 30.628 1.56a7.704 7.704 0 0 1-4.249 2.464L44.801 15.26s1.18-.295 4.397-2.412Z"/><path fill="#FAFAFA" d="M43.01 15.22a3.766 3.766 0 0 0 1.784.452c.62 0 1.23-.155 1.783-.451l3.13-1.897c.982-.578.982-1.573 0-2.169L31.398 0l-.776.468 18.024 10.988a.655.655 0 0 1 .317.251.716.716 0 0 1 0 .8.655.655 0 0 1-.317.25l-2.911 1.735c-.332.177-.699.27-1.07.27-.373 0-.74-.093-1.071-.27L25.565 3.54l-.879.532 18.324 11.15Z"/><path fill="#E0E0E0" d="M24.703 4.071v38.66L43.01 53.85a3.766 3.766 0 0 0 1.783.451c.62 0 1.23-.154 1.784-.451l3.129-1.897c.203-.095.378-.246.508-.438.13-.19.209-.415.23-.65V12.209c-.02.234-.1.457-.23.648-.129.19-.305.34-.508.433l-3.13 1.932a3.802 3.802 0 0 1-1.783.446c-.619 0-1.23-.153-1.783-.446L24.703 4.07Z"/><path fill="#EBEBEB" d="M44.79 15.643a3.537 3.537 0 0 0 1.787-.445l3.129-1.909a1.25 1.25 0 0 0 .509-.433c.13-.19.208-.414.228-.648v38.659c-.02.234-.1.458-.23.65-.129.19-.304.342-.507.437l-3.13 1.897a3.48 3.48 0 0 1-1.785.451V15.643ZM22.774 5.24l19.193 11.739v38.659L22.774 43.904V5.24Z"/><path fill="#fff" d="M41.35 17.62 22.78 6.334a7.704 7.704 0 0 1-4.249 2.463l18.411 11.236s1.186-.295 4.408-2.411Z"/><path fill="#FAFAFA" d="M35.162 19.963a3.766 3.766 0 0 0 1.783.451c.62 0 1.23-.155 1.783-.451l3.13-1.897c.983-.578.983-1.573 0-2.169L23.55 4.771l-.776.468 18.023 10.988c.13.044.245.13.326.247a.71.71 0 0 1 0 .807.647.647 0 0 1-.326.247l-2.905 1.735c-.332.177-.699.27-1.07.27-.373 0-.74-.093-1.071-.27L17.756 8.275l-.901.585 18.307 11.103Z"/><path fill="#EBEBEB" d="M16.855 8.86v38.658L35.162 58.64a3.766 3.766 0 0 0 1.783.451c.62 0 1.23-.154 1.783-.451l3.13-1.897c.203-.095.378-.246.508-.438.13-.19.209-.415.23-.649v-38.7c-.02.234-.1.458-.23.648s-.305.34-.508.434l-3.13 1.908a3.802 3.802 0 0 1-1.783.447c-.619 0-1.23-.153-1.783-.447L16.855 8.86Z"/><path fill="#F0F0F0" d="M36.942 20.425a3.536 3.536 0 0 0 1.786-.445l3.13-1.908c.208-.097.387-.252.517-.449s.206-.428.22-.667v38.659c-.02.234-.1.458-.23.65a1.27 1.27 0 0 1-.507.437l-3.13 1.897a3.48 3.48 0 0 1-1.786.45V20.426ZM158.283 27.868v-3.73c.028-.216.107-.42.23-.595.123-.174.287-.311.475-.4l21.3-12.936a3.472 3.472 0 0 1 1.639-.414c.569 0 1.13.142 1.638.414l61.214 37.196c.189.088.352.225.476.4.123.174.202.379.229.595v3.73a1.316 1.316 0 0 1-.229.595 1.212 1.212 0 0 1-.476.4l-21.3 12.941a3.468 3.468 0 0 1-1.639.414c-.569 0-1.13-.142-1.638-.413l-61.22-37.202a1.207 1.207 0 0 1-.475-.4 1.304 1.304 0 0 1-.229-.595h.005Z"/><path fill="#FAFAFA" d="m244.763 49.392-21.3 12.937a3.471 3.471 0 0 1-1.639.413c-.569 0-1.13-.141-1.638-.413l-61.203-37.196c-.902-.578-.902-1.44 0-1.99l21.3-12.936a3.468 3.468 0 0 1 1.638-.414c.57 0 1.131.142 1.639.414l61.214 37.196c.896.55.896 1.44-.011 1.99Z"/><path fill="#E0E0E0" d="M221.835 62.745v3.73a3.292 3.292 0 0 0 1.638-.41l21.301-12.937c.188-.087.352-.225.475-.4.124-.174.203-.379.229-.595v-3.735a.948.948 0 0 0-.131-.422c.246.48.06 1.035-.573 1.416L223.473 62.33a3.099 3.099 0 0 1-1.638.416ZM219.055 34.518l-18.04 10.89-29.804-18.113 18.04-10.889 29.804 18.112Z"/><path fill="#fff" d="m200.808 44.58 17.406-10.576a8.08 8.08 0 0 1 .093-4.777l-17.292 10.461s-.333 1.151-.207 4.893Z"/><path fill="#EBEBEB" d="M201.905 38.196c-.487.332-.893.78-1.185 1.31a4.037 4.037 0 0 0-.491 1.738v3.562c0 1.122.748 1.573 1.676 1.012l17.15-10.409v-.879l-16.931 10.218c-.546.336-1.005.064-1.005-.612v-3.303a2.42 2.42 0 0 1 .293-1.042c.175-.318.419-.587.712-.785l16.903-10.218v-1l-17.122 10.408Z"/><path fill="#E0E0E0" d="M219.055 27.775 189.251 9.663l-17.15 10.41c-.485.332-.89.782-1.18 1.311a4.046 4.046 0 0 0-.491 1.736v3.562c-.025.222.007.446.093.65.085.203.221.378.393.507L200.72 45.95a1.227 1.227 0 0 1-.393-.507 1.296 1.296 0 0 1-.093-.65v-3.55c.032-.612.2-1.206.491-1.736a3.8 3.8 0 0 1 1.18-1.312l17.15-10.42Z"/><path fill="#EBEBEB" d="M200.72 39.51a3.707 3.707 0 0 0-.492 1.734v3.562c-.024.222.008.446.093.65.086.203.222.378.393.507L170.91 27.85a1.227 1.227 0 0 1-.393-.508 1.296 1.296 0 0 1-.093-.649v-3.562c.021-.613.188-1.21.486-1.735l29.81 18.112Z"/><path fill="#E0E0E0" d="m219.055 25.578-18.04 10.89-29.804-18.107 18.04-10.895 29.804 18.112Z"/><path fill="#fff" d="m200.808 35.64 17.406-10.588a8.059 8.059 0 0 1 .093-4.782l-17.292 10.46s-.333 1.175-.207 4.91Z"/><path fill="#EBEBEB" d="M201.9 29.256c-.486.332-.89.782-1.181 1.311a4.06 4.06 0 0 0-.49 1.736v3.563c0 1.122.748 1.578 1.671 1.017l17.155-10.409v-.896l-16.931 10.218c-.546.336-1.005.064-1.005-.578v-3.302a2.42 2.42 0 0 1 .293-1.042c.175-.318.419-.587.712-.785l16.931-10.242v-1.012L201.9 29.255Z"/><path fill="#FAFAFA" d="M219.055 18.835 189.251.729l-17.15 10.444a3.815 3.815 0 0 0-1.183 1.31 4.063 4.063 0 0 0-.493 1.737v3.562c-.023.222.01.446.096.65.087.203.223.378.395.507l29.804 18.106a1.228 1.228 0 0 1-.395-.507 1.3 1.3 0 0 1-.096-.65v-3.561a4.06 4.06 0 0 1 .49-1.736c.291-.53.695-.98 1.181-1.312l17.155-10.444Z"/><path fill="#F0F0F0" d="M200.72 30.568a3.72 3.72 0 0 0-.491 1.735v3.563a1.3 1.3 0 0 0 .096.65c.086.203.223.378.395.506l-29.804-18.124a1.24 1.24 0 0 1-.395-.507 1.32 1.32 0 0 1-.096-.65v-3.544c.021-.613.19-1.21.491-1.735l29.804 18.106Z"/><path fill="#E0E0E0" d="m226.706.469-19.192 11.74v38.658l19.192-11.733V.469Z"/><path fill="#fff" d="M208.132 12.85 226.701 1.56a7.69 7.69 0 0 0 4.244 2.464L212.534 15.26s-1.191-.295-4.402-2.412Z"/><path fill="#FAFAFA" d="M214.319 15.22a3.773 3.773 0 0 1-1.786.452c-.62 0-1.232-.155-1.786-.451l-3.124-1.897c-.988-.579-.988-1.573 0-2.169L225.925.03l.781.468-18.023 10.988a.658.658 0 0 0-.318.25.72.72 0 0 0 0 .8c.079.117.19.204.318.251l2.905 1.735c.333.177.701.27 1.074.27.372 0 .74-.093 1.073-.27l17.996-10.988.879.532-18.291 11.156Z"/><path fill="#E0E0E0" d="M232.621 4.071v38.66L214.32 53.85a3.779 3.779 0 0 1-1.786.451 3.773 3.773 0 0 1-1.786-.451l-3.124-1.897a1.264 1.264 0 0 1-.508-.438 1.373 1.373 0 0 1-.23-.65V12.209c.02.234.099.457.229.648.13.19.305.34.509.433l3.124 1.909a3.812 3.812 0 0 0 1.786.446c.62 0 1.231-.153 1.786-.446L232.621 4.07Z"/><path fill="#EBEBEB" d="M212.533 15.643a3.564 3.564 0 0 1-1.785-.445l-3.125-1.909a1.253 1.253 0 0 1-.505-.434 1.348 1.348 0 0 1-.226-.647v38.659c.02.234.099.458.229.65.13.19.305.342.508.437l3.124 1.897c.55.308 1.164.463 1.786.451l-.006-38.659ZM234.555 5.24l-19.192 11.739v38.659l19.192-11.734V5.24Z"/><path fill="#fff" d="m215.98 17.62 18.57-11.287a7.708 7.708 0 0 0 4.243 2.463l-18.411 11.236s-1.191-.295-4.402-2.411Z"/><path fill="#FAFAFA" d="M222.184 19.962a3.772 3.772 0 0 1-1.785.452 3.773 3.773 0 0 1-1.786-.452l-3.125-1.896c-.988-.579-.988-1.573 0-2.17l18.308-11.125.775.468-18.023 10.988a.651.651 0 0 0-.317.25.713.713 0 0 0 0 .8.651.651 0 0 0 .317.25l2.906 1.736a2.283 2.283 0 0 0 2.146 0l17.996-10.988.879.532-18.291 11.155Z"/><path fill="#EBEBEB" d="M240.47 8.86v38.658l-18.286 11.104a3.774 3.774 0 0 1-1.786.451 3.78 3.78 0 0 1-1.786-.451l-3.124-1.897a1.272 1.272 0 0 1-.508-.438 1.382 1.382 0 0 1-.229-.65V16.957c.02.233.099.457.229.647.129.19.305.34.508.434l3.124 1.908a3.815 3.815 0 0 0 1.786.447c.62 0 1.232-.153 1.786-.447L240.47 8.86Z"/><path fill="#F0F0F0" d="M220.382 20.425a3.568 3.568 0 0 1-1.786-.445l-3.124-1.908a1.252 1.252 0 0 1-.517-.449 1.356 1.356 0 0 1-.22-.667v38.659c.02.234.1.458.229.65.13.19.305.341.508.437l3.124 1.897c.55.308 1.164.463 1.786.45V20.426Z"/><path fill="#DD6B20" d="m124.154 84.148-2.621-5.205 2.113-6.47v-3.95l-6.466 3.95v3.955l2.78 5.094a.4.4 0 0 0 .185.18l4.009 2.446Z"/><path fill="#000" d="m124.154 84.148-2.621-5.205 2.113-6.47v-3.95l-6.466 3.95v3.955l2.78 5.094a.4.4 0 0 0 .185.18l4.009 2.446Z" opacity=".2"/><path fill="#DD6B20" d="M139.594 37.098a4.729 4.729 0 0 0-.567-2.024 4.444 4.444 0 0 0-1.371-1.533l-1.579-.971a4.1 4.1 0 0 0-1.939-.49c-.673 0-1.338.168-1.939.49l-24.2 14.821a4.432 4.432 0 0 0-1.369 1.533 4.726 4.726 0 0 0-.565 2.024V79.14c.036.712.229 1.405.565 2.023a4.436 4.436 0 0 0 1.369 1.533l1.578.966a4.1 4.1 0 0 0 1.939.49 4.1 4.1 0 0 0 1.939-.49l7.783-4.765 2.774 5.089c.04.072.099.13.169.168a.398.398 0 0 0 .444-.045.444.444 0 0 0 .136-.198l2.933-8.964 9.962-6.107a4.436 4.436 0 0 0 1.37-1.533 4.729 4.729 0 0 0 .568-2.023V37.098Z"/><path fill="#000" d="M106.065 79.146c.036.712.229 1.405.565 2.023a4.436 4.436 0 0 0 1.369 1.533l1.578.966a4.115 4.115 0 0 0 3.545.162c-.913.364-1.606-.18-1.606-1.348V54.285a4.37 4.37 0 0 1 .546-2.018L106.6 48.93a4.393 4.393 0 0 0-.546 2.024l.011 28.192Z" opacity=".2"/><path fill="#fff" d="M139.528 36.513c-.224-.873-.972-1.156-1.868-.578l-24.206 14.822a3.966 3.966 0 0 0-1.365 1.532l-5.462-3.33c.32-.63.791-1.159 1.366-1.533l24.206-14.857a4.132 4.132 0 0 1 1.939-.486c.673 0 1.337.167 1.939.486l1.583.972c.487.334.903.77 1.224 1.282.322.511.541 1.086.644 1.69Z" opacity=".5"/><path fill="#FAFAFA" d="M117.398 61.276a13.85 13.85 0 0 1 1.016-5.072v-.034c.748-1.833 1.84-3.383 3.058-4.14 2.092-1.308 3.823 1.34 4.107 4.464.252-3.47 1.961-8.247 4.048-9.542 1.218-.758 2.321-.579 3.08.324.644.78 1.043 2.081 1.054 3.787 0 5.274-2.977 10.063-5.462 15.1l-2.73 4.863-2.611-1.555c-2.512-1.874-5.538-2.915-5.56-8.195Z"/><path fill="#FFA8A7" d="M138.322 170.979s-1.743-10.057-4.146-20.703c-2.037-8.998-7.788-15.209-18.438-11.936l10.077 36.357a9.495 9.495 0 0 0 2.111 4.142 8.758 8.758 0 0 0 3.754 2.52l6.642 2.238 20.241 7.859 2.048-6.754c-2.759-1.718-22.289-13.723-22.289-13.723Z"/><path fill="#DD6B20" d="M113.684 138.34s6.833-1.839 10.153-.885c3.321.954 7.586 2.273 9.891 10.086 2.305 7.812 3.933 18.181 3.933 18.181s-3.201 6.142-13.387 5.055l-10.59-32.437ZM129.572 225.038l42.551-26.012-27.182-16.614-42.552 26.011 27.183 16.615Z"/><path fill="#000" d="m129.572 225.038 42.551-26.012-27.182-16.614-42.552 26.011 27.183 16.615Z" opacity=".15"/><path fill="#F5F5F5" d="M150.282 211.691v-.81c0-.989 1.671-3.822 3.758-5.101l16.904-10.328v3.609l-20.662 12.63Z"/><path fill="#FAFAFA" d="m170.938 195.452-16.904 10.334c-2.086 1.272-3.763 4.106-3.757 5.095v.81l-26.003-15.898v-.804c0-.994 1.671-3.828 3.758-5.1l16.892-10.328 26.014 15.891Z"/><path fill="#FAFAFA" d="m170.938 195.452-16.904 10.334c-2.086 1.272-3.763 4.106-3.757 5.095v.81l-26.003-15.898v-.804c0-.994 1.671-3.828 3.758-5.1l16.903-10.334 26.003 15.897Z"/><path fill="#F0F0F0" d="m150.277 210.939-1.639-.989-2.135-1.307a3.983 3.983 0 0 1 2.627.399c.328.187.605.459.806.791.201.332.318.713.341 1.106Z"/><path fill="#E0E0E0" d="m150.277 210.939-1.639-.989-2.135-1.307a3.983 3.983 0 0 1 2.627.399c.328.187.605.459.806.791.201.332.318.713.341 1.106Z"/><path fill="#DD6B20" d="m129.577 225.79-.005-.752-27.183-16.614v.746l27.188 16.62Z"/><path fill="#000" d="m129.577 225.79-.005-.752-27.183-16.614v.746l27.188 16.62Z" opacity=".3"/><path fill="#DD6B20" d="m129.577 225.789 42.552-26.011-.006-.752-42.551 26.012.005.751Z"/><path fill="#F5F5F5" d="M150.277 210.939c0-.989-1.721-1.816-3.824-.549l-16.892 10.253v3.707l20.71-12.659s.016.243.006-.752Z"/><path fill="#EBEBEB" d="M129.572 224.349v-3.707l-26.003-15.897v3.707l26.003 15.897Z"/><path fill="#FAFAFA" d="m146.47 210.39-.759.462-16.139 9.791-22.972-14.041-3.031-1.857 16.898-10.253c1.529-.931 2.387-.861 2.993-.497l26.358 16.111c-.95-.578-2.065-.439-3.348.284Z"/><path fill="#E0E0E0" d="m128.387 217.849 14.391-8.79.759-.462.552.341-.759.457-14.386 8.79-.557-.336ZM127.059 217.034l14.392-8.79.753-.457.557.336-.759.462-14.391 8.79-.552-.341ZM125.732 216.224l14.386-8.79.759-.462.552.341-.754.457-14.391 8.79-.552-.336ZM124.399 215.409l14.392-8.79.759-.457.552.336-.76.462-14.386 8.79-.557-.341ZM123.072 214.599l14.392-8.79.753-.462.557.341-.759.457-14.391 8.79-.552-.336ZM121.745 213.784l14.386-8.79.759-.457.557.336-.759.462-14.391 8.79-.552-.341ZM120.413 212.974l14.391-8.79.759-.462.552.341-.754.457-14.391 8.79-.557-.336ZM119.085 212.16l14.392-8.791.759-.456.552.335-.76.463-14.385 8.79-.558-.341ZM117.758 211.349l14.391-8.79.754-.462.557.341-.759.457-14.392 8.796-.551-.342ZM116.431 210.54l14.386-8.796.759-.457.551.336-.753.462-14.392 8.79-.551-.335ZM115.099 209.724l14.391-8.79.759-.456.552.335-.759.457-14.386 8.796-.557-.342ZM113.771 208.914l14.391-8.796.754-.456.557.341-.759.457-14.391 8.79-.552-.336ZM112.444 208.099l14.386-8.79.759-.456.552.335-.754.457-14.391 8.796-.552-.342ZM111.111 207.29l14.392-8.796.759-.457.552.341-.754.457-14.392 8.79-.557-.335ZM109.784 206.474l14.392-8.79.759-.456.551.335-.759.457-14.386 8.796-.557-.342ZM108.457 205.665l14.391-8.796.754-.457.552.341-.754.457-14.391 8.79-.552-.335ZM107.13 204.849l14.386-8.79.759-.456.552.335-.754.463-14.391 8.79-.552-.342Z"/><path fill="#000" d="M146.629 209.429c-.312.035-.973.261-1.339.347-1.534.365-4.243 1.677-6.843 3.054a166.554 166.554 0 0 0-6.734 3.799l-23.791-14.527 12.562-7.604a5.181 5.181 0 0 1 1.545-.683c.383.063.753.196 1.093.394l.169-.307.191.098 26.336 16.106a4.107 4.107 0 0 0-3.189-.677Z" opacity=".1"/><path fill="#E6E6E6" d="m129.555 221.452 2.578-1.388-2.561 1.654-2.578-1.573 2.561 1.307Z"/><path fill="#E6E6E6" d="m129.571 223.303 4.73-2.886-4.724 2.695-5.32-3.059 5.314 3.25ZM103.569 205.566l3.976 2.539-3.976-2.151v-.388ZM103.574 207.012l5.904 3.823-5.909-3.476.005-.347Z"/><path fill="#F5F5F5" d="M146.525 208.643c-.34.038-.677.098-1.011.179-1.54.37-4.249 1.677-6.843 3.054-3.468 1.839-6.74 3.805-6.74 3.805l-26.014-15.892s9.897-6.031 13.78-6.829c1.824-.371 2.944-.11 3.621.3l25.828 15.788a3.979 3.979 0 0 0-2.621-.405Z"/><path fill="#E0E0E0" d="M146.197 207.215a4.01 4.01 0 0 0-2.627-.405c-.34.043-.677.105-1.011.185a24.1 24.1 0 0 0-4.249 1.735 75.99 75.99 0 0 0-2.594 1.324 149.614 149.614 0 0 0-5.374 3.001l.59.359c1.272-.74 3.277-1.891 5.374-2.996a94.396 94.396 0 0 1 2.594-1.33 24.068 24.068 0 0 1 4.249-1.735 7.494 7.494 0 0 1 1.016-.185 4.05 4.05 0 0 1 2.622.399l-.59-.352Z"/><path fill="#E0E0E0" d="M144.87 206.423a4.02 4.02 0 0 0-2.627-.399 8.537 8.537 0 0 0-1.016.179 24.486 24.486 0 0 0-4.249 1.735c-.847.41-1.726.867-2.594 1.324a169.258 169.258 0 0 0-5.375 3.001l.59.359a151.26 151.26 0 0 1 5.374-2.996 81.05 81.05 0 0 1 2.6-1.324 24.096 24.096 0 0 1 4.244-1.735 8.555 8.555 0 0 1 1.016-.185 4.015 4.015 0 0 1 2.627.405l-.59-.364Z"/><path fill="#E0E0E0" d="M143.537 205.612a4.015 4.015 0 0 0-2.627-.404 8.555 8.555 0 0 0-1.016.185 23.945 23.945 0 0 0-4.244 1.735c-.846.416-1.725.867-2.594 1.33a96.234 96.234 0 0 0-5.358 2.984l.596.364a139.177 139.177 0 0 1 5.374-3.001 77.906 77.906 0 0 1 2.594-1.325 23.992 23.992 0 0 1 4.249-1.735 9.923 9.923 0 0 1 1.011-.185 4.022 4.022 0 0 1 2.627.405l-.612-.353Z"/><path fill="#E0E0E0" d="M142.204 204.798a4.01 4.01 0 0 0-2.627-.405 9.385 9.385 0 0 0-1.01.185 23.887 23.887 0 0 0-4.249 1.735c-.847.41-1.726.861-2.595 1.324a150.497 150.497 0 0 0-5.374 3.001l.59.359a158.54 158.54 0 0 1 5.374-3.001c.869-.457 1.748-.908 2.595-1.325a24.564 24.564 0 0 1 4.249-1.735c.333-.08.67-.14 1.01-.179a4.02 4.02 0 0 1 2.627.399l-.59-.358Z"/><path fill="#E0E0E0" d="M140.872 203.982a4 4 0 0 0-2.622-.404c-.341.043-.68.104-1.016.185a24.095 24.095 0 0 0-4.249 1.734c-.846.411-1.726.868-2.594 1.325a169.048 169.048 0 0 0-5.374 3.001l.589.359a148.971 148.971 0 0 1 5.375-2.996 87.85 87.85 0 0 1 2.594-1.33 23.992 23.992 0 0 1 4.249-1.735 8.555 8.555 0 0 1 1.016-.185 4.022 4.022 0 0 1 2.627.405l-.595-.359Z"/><path fill="#E0E0E0" d="M139.545 203.166a4.06 4.06 0 0 0-2.627-.399c-.342.039-.682.1-1.016.185a24.037 24.037 0 0 0-4.249 1.735c-.841.417-1.726.868-2.595 1.325a170.176 170.176 0 0 0-5.374 3.001l.59.364a140.08 140.08 0 0 1 5.38-3.001 75.072 75.072 0 0 1 2.594-1.324 24.02 24.02 0 0 1 4.244-1.735 9.74 9.74 0 0 1 1.015-.185 4.018 4.018 0 0 1 2.628.404l-.59-.37Z"/><path fill="#E0E0E0" d="M138.212 202.357a4.022 4.022 0 0 0-2.627-.405 8.555 8.555 0 0 0-1.016.185 24.469 24.469 0 0 0-4.244 1.735c-.846.417-1.725.868-2.594 1.33a154.933 154.933 0 0 0-5.374 2.996l.59.364a157.56 157.56 0 0 1 5.374-3.001 88.734 88.734 0 0 1 2.594-1.324 23.917 23.917 0 0 1 4.249-1.735c.334-.08.671-.142 1.011-.185a4.015 4.015 0 0 1 2.627.404l-.59-.364Z"/><path fill="#E0E0E0" d="M136.879 201.542a4.01 4.01 0 0 0-2.627-.405 9.34 9.34 0 0 0-1.01.185 23.971 23.971 0 0 0-4.25 1.735c-.846.41-1.725.861-2.594 1.324a149.614 149.614 0 0 0-5.374 3.001l.59.359c1.272-.74 3.277-1.891 5.374-2.996a94.396 94.396 0 0 1 2.594-1.33 24.1 24.1 0 0 1 4.249-1.735 7.494 7.494 0 0 1 1.016-.185 4.05 4.05 0 0 1 2.622.399l-.59-.352Z"/><path fill="#E0E0E0" d="M133.515 200.685a8.762 8.762 0 0 0-1.016.185c-1.535.365-4.244 1.678-6.843 3.054a159.422 159.422 0 0 0-5.375 2.995l-.59-.358c1.273-.74 3.277-1.891 5.375-3.001 2.594-1.377 5.308-2.684 6.843-3.054a8.152 8.152 0 0 1 1.016-.179 4.005 4.005 0 0 1 2.622.399l.595.364a4.022 4.022 0 0 0-2.627-.405Z"/><path fill="#E0E0E0" d="M132.182 199.87c-.311.041-.65.099-1.016.185-1.534.365-4.243 1.678-6.838 3.054a144.706 144.706 0 0 0-5.374 3.001l-.595-.364a155.88 155.88 0 0 1 5.374-2.996c2.6-1.376 5.309-2.689 6.844-3.053a8.576 8.576 0 0 1 1.015-.185 4.008 4.008 0 0 1 2.627.405l.579.358a4.014 4.014 0 0 0-2.616-.405Z"/><path fill="#E0E0E0" d="M130.85 199.061c-.34.038-.678.098-1.011.179-1.54.37-4.249 1.677-6.843 3.053a170.8 170.8 0 0 0-5.374 3.002l-.59-.359a139.177 139.177 0 0 1 5.374-3.001c2.594-1.376 5.303-2.689 6.843-3.053a9.66 9.66 0 0 1 1.011-.186 4.022 4.022 0 0 1 2.627.405l.59.359a4.02 4.02 0 0 0-2.627-.399Z"/><path fill="#E0E0E0" d="M129.523 198.245a8.555 8.555 0 0 0-1.016.185c-1.535.365-4.249 1.677-6.844 3.054a160.233 160.233 0 0 0-5.374 2.995l-.59-.358a160.08 160.08 0 0 1 5.374-3.002c2.595-1.376 5.304-2.683 6.844-3.053.334-.08.671-.141 1.01-.185a4.008 4.008 0 0 1 2.627.405l.596.364a4.028 4.028 0 0 0-2.627-.405Z"/><path fill="#E0E0E0" d="M128.19 197.43c-.311.04-.65.098-1.016.185-1.534.364-4.243 1.677-6.843 3.053a153.921 153.921 0 0 0-5.374 3.002l-.59-.365c1.272-.74 3.277-1.891 5.374-2.995 2.594-1.382 5.309-2.689 6.843-3.054a7.652 7.652 0 0 1 1.016-.185 4.064 4.064 0 0 1 2.627.399l.59.365a4.01 4.01 0 0 0-2.627-.405Z"/><path fill="#E0E0E0" d="M126.857 196.615a9.385 9.385 0 0 0-1.01.185c-1.54.37-4.249 1.677-6.844 3.053a163.626 163.626 0 0 0-5.374 3.001l-.595-.364c1.278-.74 3.277-1.891 5.379-2.996 2.595-1.376 5.304-2.689 6.838-3.053a8.592 8.592 0 0 1 1.016-.185 4.008 4.008 0 0 1 2.627.405l.59.358a4.015 4.015 0 0 0-2.627-.404Z"/><path fill="#E0E0E0" d="M125.514 195.805a7.17 7.17 0 0 0-1.016.185c-1.54.364-4.249 1.671-6.843 3.053a160.983 160.983 0 0 0-5.375 2.996l-.59-.359a140.696 140.696 0 0 1 5.375-3.001c2.594-1.376 5.303-2.689 6.843-3.053.334-.08.671-.142 1.011-.185a4.015 4.015 0 0 1 2.627.404l.589.359a4.04 4.04 0 0 0-2.621-.399Z"/><path fill="#E0E0E0" d="M124.197 194.99c-.341.041-.68.103-1.015.185-1.535.364-4.25 1.677-6.844 3.053a159.003 159.003 0 0 0-5.374 2.996l-.59-.359a158.54 158.54 0 0 1 5.374-3.001c2.595-1.377 5.309-2.684 6.844-3.054a8.152 8.152 0 0 1 1.016-.179 4.003 4.003 0 0 1 2.621.399l.595.364a4.014 4.014 0 0 0-2.627-.404Z"/><path fill="#E0E0E0" d="M122.865 194.174c-.311.041-.65.098-1.016.185-1.535.365-4.244 1.677-6.838 3.054a149.065 149.065 0 0 0-5.38 3.001l-.589-.364a147.94 147.94 0 0 1 5.374-2.996c2.599-1.376 5.308-2.689 6.843-3.053a8.555 8.555 0 0 1 1.016-.185 4.015 4.015 0 0 1 2.627.404l.59.359a4.01 4.01 0 0 0-2.627-.405ZM151.604 204.323a8.667 8.667 0 0 0-2.108 1.908l-.546-.329a8.65 8.65 0 0 1 2.108-1.909l15.145-9.252.546.335-15.145 9.247ZM150.271 203.485a8.6 8.6 0 0 0-2.102 1.908l-.546-.33a8.507 8.507 0 0 1 2.102-1.908l15.151-9.253.546.33-15.151 9.253ZM148.944 202.669a8.75 8.75 0 0 0-2.108 1.909l-.546-.33a8.724 8.724 0 0 1 2.108-1.908l15.145-9.253.546.335-15.145 9.247ZM147.611 201.859a8.492 8.492 0 0 0-2.102 1.909l-.547-.336a8.598 8.598 0 0 1 2.103-1.902l15.151-9.253.546.329-15.151 9.253ZM146.268 201.044a8.787 8.787 0 0 0-2.108 1.909l-.546-.33a8.724 8.724 0 0 1 2.108-1.908l15.151-9.253.546.33-15.151 9.252ZM144.952 200.235a8.512 8.512 0 0 0-2.103 1.908l-.546-.335a8.598 8.598 0 0 1 2.102-1.903l15.151-9.253.546.33-15.15 9.253ZM143.624 199.419a8.643 8.643 0 0 0-2.102 1.909l-.546-.33a8.525 8.525 0 0 1 2.102-1.908l15.151-9.253.546.33-15.151 9.252ZM142.291 198.61a8.594 8.594 0 0 0-2.102 1.902l-.546-.329a8.723 8.723 0 0 1 2.102-1.909l15.151-9.253.546.33-15.151 9.259ZM140.964 197.794a8.51 8.51 0 0 0-2.102 1.909l-.547-.33a8.53 8.53 0 0 1 2.103-1.908l15.151-9.253.546.33-15.151 9.252ZM139.638 196.985a8.602 8.602 0 0 0-2.108 1.902l-.547-.329a8.674 8.674 0 0 1 2.109-1.909l15.145-9.253.546.33-15.145 9.259ZM138.305 196.169a8.647 8.647 0 0 0-2.103 1.909l-.546-.33a8.49 8.49 0 0 1 2.103-1.908l15.151-9.253.546.33-15.151 9.252ZM136.983 195.354a8.745 8.745 0 0 0-2.108 1.908l-.546-.329a8.728 8.728 0 0 1 2.108-1.909l15.15-9.253.547.336-15.151 9.247ZM135.645 194.544a8.514 8.514 0 0 0-2.103 1.909l-.546-.336a8.598 8.598 0 0 1 2.103-1.902l15.15-9.253.547.33-15.151 9.252ZM134.318 193.729a8.745 8.745 0 0 0-2.108 1.908l-.546-.329a8.728 8.728 0 0 1 2.108-1.909l15.15-9.253.547.33-15.151 9.253ZM132.985 192.919a8.507 8.507 0 0 0-2.102 1.908l-.547-.335a8.622 8.622 0 0 1 2.103-1.903l15.151-9.253.546.33-15.151 9.253ZM131.658 192.104a8.643 8.643 0 0 0-2.103 1.908l-.546-.329a8.514 8.514 0 0 1 2.103-1.909l15.151-9.253.546.33-15.151 9.253ZM130.331 191.294a8.51 8.51 0 0 0-2.108 1.903l-.546-.33a8.487 8.487 0 0 1 2.108-1.902l15.145-9.253.546.33-15.145 9.252Z"/><path fill="#E6E6E6" d="m167.394 198.609 3.539-1.983.005-.307-3.544 2.29ZM170.938 197.73l-5.91 3.499 5.91-3.724v.225Z"/><path fill="#000" d="M109.97 197.436c3.195-1.787 7.471-4.014 9.727-4.476 1.824-.371 2.944-.11 3.621.3l25.828 15.788a3.983 3.983 0 0 0-2.627-.399s-12.78-8.264-21.005-11.086a25.222 25.222 0 0 0-15.544-.127Z" opacity=".02"/><path fill="#455A64" d="M50.968 100.953a37.603 37.603 0 0 1-2.125 6.257c-.546 1.237-1.272 3.198-2.616 3.1.093-.336.175-.665.24-.978 0 0-.087-1.336-4.183-2.417-4.096-1.081-5.183 0-5.183 0l-.18.723c-.717-.234-1.42-.51-2.108-.827-.956-.451-2.49-1.203-3.004-2.227-.176-.386-.29-.8-.339-1.226-.136-.827-.278-1.648-.415-2.475a11.952 11.952 0 0 1-.246-3.47c.02-.412.133-.814.327-1.173.195-.359.466-.664.793-.89a2.688 2.688 0 0 1 1.256-.261c1.491-.075 3.38-.752 4.86-.902 1.383-.145 2.732-.486 4.102-.613 1.413-.07 2.825.126 4.173.578 2.906.972 5.424 3.765 4.648 6.801Z"/><path fill="#37474F" d="M34.785 102.642c.246-2.984.339-7.42.339-7.42l-.24.052c-1.465.255-3.31 1.064-4.79 1.255a2.64 2.64 0 0 0-1.235.353 2.61 2.61 0 0 0-.734.948c-.17.373-.256.783-.249 1.197-.01 1.176.15 2.346.475 3.47l.546 2.435c.08.421.22.827.415 1.203.585.977 2.185 1.613 3.146 1.995.707.266 1.427.49 2.158.671l.136-.735a32.669 32.669 0 0 1 .033-5.424Z"/><path fill="#FFA8A7" d="m25.566 109.304-1.846-7.258 10.66-.295 2.295 6.697s-.983 1.058-1.546 1.769c-.941 1.227-2.246 2.081-3.702 2.426a6.304 6.304 0 0 1-4.326-.523 2.689 2.689 0 0 1-.798-.578l-.737-2.238Z"/><path fill="#455A64" d="M3.583 80.342c-.224 2.22.06 6.87 2.785 9.577 2.725 2.706 9.17 6.31 11.814 7.928 3.419 2.094 5.713 6.558 5.713 6.558s1.638 2.047 6.286 1.301c3.277-.526 4.735-1.908 5.194-2.891 0 0 .13-1.608.23-2.516.352-2.685.364-5.407.038-8.096l-32.06-11.86Z"/><path fill="#37474F" d="M34.064 95.025c-2.692 2.123-7.225 2.637-12.474-.578-5.249-3.215-12.289-6.61-15.025-8.836C2.868 82.604.895 76.358 11.06 77c7.564.45 11.704 6.424 15.462 7.939 3.758 1.515 12.747 5.95 7.542 10.085Z"/><path fill="#DD6B20" d="M43.262 159.575c-6.008-2.984-7.543-4.083-9.061-6.801-2.627-4.73-5.648-27.324-8.963-44.662 1.584 1.932 10.186-.248 10.585-2.504 0 0 13.987 30.824 16.014 41.759 6.81 1.081 17.11 2.724 20.42 3.47 16.445 3.822 20.427 11.635 23.972 18.199l-11.432 12.219c-11.316-6.743-35.56-18.702-41.535-21.68Z"/><path fill="#000" d="M43.262 159.575c-6.008-2.984-7.543-4.083-9.061-6.801-2.627-4.73-5.648-27.324-8.963-44.662 1.584 1.932 10.186-.248 10.585-2.504 0 0 13.987 30.824 16.014 41.759 6.81 1.081 17.11 2.724 20.42 3.47 16.445 3.822 20.427 11.635 23.972 18.199l-11.432 12.219c-11.316-6.743-35.56-18.702-41.535-21.68Z" opacity=".4"/><path fill="#FFA8A7" d="M46.468 109.333c-.066.312-.148.641-.24.977-.547 2.261-1.153 4.852-1.164 5.048l-9.235-3.302 1.092-4.412.18-.723s1.093-1.081 5.183 0c4.091 1.081 4.184 2.412 4.184 2.412Z"/><path fill="#DD6B20" d="M68.025 190.525c-18.658-6.766-40.193-18.563-44.333-24.404-4.14-5.841 11.64-54.557 11.64-54.557 1.288-1.289 10.414.77 10.25 3.47-.895 13.665-.103 31.685-3.976 39.787a130.01 130.01 0 0 1 19.772 4.048c10.044-3.406 18.646 2.053 18.646 2.053l-12 29.603Z"/><path fill="#000" d="M68.025 190.525c-18.658-6.766-40.193-18.563-44.333-24.404-4.14-5.841 11.64-54.557 11.64-54.557 1.288-1.289 10.414.77 10.25 3.47-.895 13.665-.103 31.685-3.976 39.787a130.01 130.01 0 0 1 19.772 4.048c10.044-3.406 18.646 2.053 18.646 2.053l-12 29.603Z" opacity=".3"/><path fill="#000" d="M32.693 156.152c5.757.497 8.914-1.336 8.914-1.336a26.292 26.292 0 0 0 1.944-6.587c-1.715 5.309-10.858 7.923-10.858 7.923Z" opacity=".05"/><path fill="#455A64" d="M108.168 138.398c-6.407 2.775-9.05 3.533-12.125 5.204-3.424 1.862-4.457 4.413-6.772 7.987-2.24 2.492-4.528 3.579-5.823 3.255-2.233-.214-10.808 3.47-15.057 12.289-4.517 9.351-3.616 18.783-.678 23.999 6.811 2.238 14.894 5.205 28.478 4.164 6.198-.486 15.39-6.61 19.192-10.56 8.542-8.865 11.507-16.065 13.621-26.902 2.594-13.353-3.304-27.064-20.836-19.436Z"/><path fill="#263238" d="M135.397 132.556c6.14-3.549 8.4-11.696 5.049-18.197-3.352-6.5-11.046-8.894-17.186-5.345-6.14 3.549-8.4 11.696-5.048 18.197 3.351 6.501 11.046 8.894 17.185 5.345Z"/><path fill="#FFA8A7" d="m111.745 133.436-2.954 7.518c-.798 2.313-.197 6.685 5.117 8.819a5.704 5.704 0 0 0 3.059.465 5.812 5.812 0 0 0 2.872-1.205l3.13-4.783-11.224-10.814Z"/><path fill="#263238" d="M108.168 127.41s.65 3.643 1.354 5.268a5.362 5.362 0 0 0 1.546 1.918 4.975 4.975 0 0 0 2.196.974l.42-5.054-5.516-3.106Z"/><path fill="#263238" d="M111.434 113.739a4.256 4.256 0 0 0-2.039.107 4.44 4.44 0 0 0-1.785 1.05c-1.698 1.619-1.13 7.084.547 12.514l3.626.694-.349-14.365Z"/><path fill="#FFA8A7" d="M108.321 131.209c.21.158.437.288.677.388.74.337 1.538.507 2.343.497.499.033.994-.102 1.416-.386.422-.283.748-.701.933-1.192l-.35 4.129-.901 10.843c.499-.017.997-.067 1.491-.151 1.432-.25 2.844-.61 4.227-1.075 1.3-.423 2.147-.793 2.147-.793a37.225 37.225 0 0 0 5.123 1.787s3.583.821 5.368.654c2.966-.278 4.971-2.614 6.068-5.922 1.754-5.32 2.562-9.652 1.988-20.385-.633-11.762-13.441-12.751-20.639-8.599-7.199 4.152-4.768 14.058-4.768 14.058-.47-1.573-.792-2.614-1.639-3.672-.846-1.058-4.243-1.735-5.904 1.428-1.534 2.915.372 6.952 2.42 8.391Z"/><path fill="#263238" d="M121.5 117.342a6.475 6.475 0 0 1-.175 1.301c0 .098-.027.197-.038.289-.533 3.269-2.129 6.237-4.512 8.391-.34.313-.705.593-1.092.839-.41.26-1.092.636-1.524.358-.431-.277-.42-.705-.459-1.208a20.23 20.23 0 0 0-.273-2.25c-1.092-3.429-2.086-4.198-3.277-4.493.17-1.128.394-2.244.574-3.291.18-1.047.366-2.03.546-3.042.246-1.272-.257-2.521-.218-3.834a4.985 4.985 0 0 1 .961-2.966 5.399 5.399 0 0 1 1.742-1.33c2.731-1.435 5.839-1.735 8.793-2.545 1.683-.44 3.321-1.035 4.976-1.55 1.092-.353 2.31-.665 3.424-.312 1.114.353 2.038 1.648 1.639 2.805 1.589-1.082 3.146-1.238 4.79-.278a3.87 3.87 0 0 1 1.614 1.753c.35.75.468 1.598.335 2.422a4.53 4.53 0 0 1 3.07.636c.458.295.822.728 1.047 1.243a3.02 3.02 0 0 1 .215 1.649 3.878 3.878 0 0 1-1.175 1.874c-1.458 1.457-3.402 2.359-5.254 3.134a21.593 21.593 0 0 1-6.554 1.538 21.767 21.767 0 0 1-9.175-1.133Z"/><path fill="#263238" d="m111.385 114.595-4.271-2.799c.16-.306.377-.575.638-.789.26-.215.56-.372.879-.46.32-.089.653-.108.98-.056.327.052.641.173.922.357.567.391.972.997 1.13 1.694a2.951 2.951 0 0 1-.278 2.053Z"/><path fill="#F28F8F" d="M113.908 136.715s.584 3.695 1.846 5.644c.42.648 2.425 2.643 6.008 3.788l1.092-1.671-2.54-1.012a13.795 13.795 0 0 1-2.949-1.678c-1.393-1.133-3.146-4.088-3.457-5.071Z"/><path fill="#263238" d="M128.081 130.261a1.44 1.44 0 0 1-.292.745 1.322 1.322 0 0 1-.632.451 1.255 1.255 0 0 1-.762.006 1.312 1.312 0 0 1-.638-.44 1.437 1.437 0 0 1-.304-.739c-.03-.273.016-.549.133-.794a1.37 1.37 0 0 1 .524-.585c.225-.137.483-.2.742-.182.176.015.348.067.505.153.157.086.297.203.411.346a1.492 1.492 0 0 1 .313 1.039ZM127.027 125.097l-3.124.816a1.88 1.88 0 0 1 .208-1.317 1.7 1.7 0 0 1 1.01-.8 1.5 1.5 0 0 1 1.216.219c.178.121.331.28.449.466.119.186.201.396.241.616Z"/><path fill="#F28F8F" d="m125.978 138.67 2.933 1.399a1.683 1.683 0 0 1-.344.559c-.15.16-.328.286-.524.371a1.487 1.487 0 0 1-1.235-.016 1.744 1.744 0 0 1-.856-.979 1.881 1.881 0 0 1 .026-1.334Z"/><path fill="#263238" d="m138.54 125.513-2.928-1.492c.083-.206.205-.392.358-.546a1.499 1.499 0 0 1 1.153-.457c.211.011.418.067.608.165.391.205.693.561.843.994.151.434.138.912-.034 1.336ZM137.185 129.816a1.437 1.437 0 0 1-.294.742 1.317 1.317 0 0 1-.633.448c-.247.08-.512.082-.761.004a1.314 1.314 0 0 1-.637-.44 1.47 1.47 0 0 1-.169-1.533c.117-.245.299-.448.524-.584.225-.136.483-.199.742-.182.176.016.348.068.506.154.157.086.297.204.412.348a1.486 1.486 0 0 1 .31 1.043Z"/><path fill="#F28F8F" d="m131.494 128.706-1.245 8.362 4.834-.208-3.589-8.154Z"/><path fill="#FFA8A7" d="M165.422 194.243c-.546-1.405-.366-3.73-1.223-5.782-.59-1.4-1.792-2.499-3.589-3.765l-1.234 3.701 1.475.902c.546.867.759 2.406 1.529 3.898 1.289 2.452 3.55 2.296 3.042 1.046ZM97.223 143.92c-8.613 2.215-10.377 6.362-13.895 19.662-2.266 8.6-6.15 27.88-6.554 31.674-.546 5.083-.486 5.517 4.32 8.969 4.468 3.21 28.576 17.424 34.048 19.402 5.473 1.978 12.043.717 12.043.717l-9.863-6.055s.83-.306 3.304-1.081c2.474-.775 3.719-1.197 4.626-2.152.906-.954.169-1.989-2.764-1.734-2.933.254-6.554-1.614-10.328-1.099l-19.449-16.967 6.123-28.042s5.232-19.321-1.611-23.294Z"/><path fill="#DD6B20" d="M98.927 142.186c-8.827 2.457-12.562 5.609-14.507 11.45-1.917 5.725-5.358 23.588-5.358 23.588s2.731 2.984 8.067 4.5c5.336 1.515 8.815 0 8.815 0s4.758-18.361 5.664-22.554c2.485-11.439-2.681-16.984-2.681-16.984Z"/></svg>