<svg xmlns="http://www.w3.org/2000/svg" width="252" height="214" fill="none"><path fill="#C7C7C7" d="M84.377 102.182h62.476V75.963H84.377v26.219Z"/><path fill="#A6A6A6" d="M146.853 75.968v26.219h97.384v-2.558h-2.099V78.525h2.099v-2.558h-97.384Z"/><path fill="#fff" d="M149.41 99.463h92.836V78.687H149.41v20.776Z"/><path fill="#DBDBDB" d="M149.406 99.463c23.142-.085 69.706-.19 92.84-.225l-.175.225V78.687c-14.084.717-54.937-.09-69.434.145l-23.212-.07c.067-.446 0 20.797 0 20.701h-.019Zm0 0-.054-20.846c0-.066 23.25-.066 23.266-.076l69.628-.105h.194v.25l-.019 20.777v.226h-.175c-23.138-.03-69.706-.135-92.84-.226Z"/><path fill="#DBDBDB" d="M208.927 94.868c7.098.12 14.197.204 21.295.251l12.024.04v-.577l-12.024.04c-7.098.034-14.197.116-21.295.246ZM149.406 89.958v.532l15.5.055 22.465-.075c7.099-.044 14.197-.126 21.296-.246-7.099-.12-14.197-.203-21.296-.246l-22.465-.075-15.5.055ZM149.406 82.168v.642l22.159-.075c7.103-.044 14.202-.126 21.295-.246-7.098-.12-14.197-.202-21.295-.246l-22.159-.075ZM149.406 94.924v.531h5.952c7.098-.04 14.198-.121 21.299-.245-7.103-.114-14.203-.196-21.299-.246l-5.952-.04ZM208.216 85.97c7.101.114 14.201.196 21.299.246l12.732.045v-.582l-12.732.045c-7.103.04-14.203.122-21.299.246ZM236.069 88.102c-4.885-.033-9.774-.058-14.667-.075h-30.54c-4.89 0-9.779.025-14.667.075 4.89.033 9.779.059 14.667.075h30.54c4.89-.016 9.78-.042 14.667-.075Z"/><path fill="#EBEBEB" d="M229.95 56.481h-62.475v19.487h62.475V56.481Z"/><path fill="#DBDBDB" d="M167.471 75.968V56.481H70.087v1.901h2.1v15.685h-2.1v1.901h97.384Z"/><path fill="#fff" d="M164.917 58.502H72.081v15.445h92.836V58.502Z"/><path fill="#DBDBDB" d="M164.917 58.502c-23.142.09-69.706.196-92.836.231l.179-.23v15.444c-1.229-.693 46.502.045 46.226-.176 11.561 0 34.862.07 46.42.12-.066.332 0-15.454 0-15.389h.011Zm0 0 .043 15.445v.055h-.043c-11.58.05-34.843.115-46.42.12l-46.416.076h-.194V58.272h.178c23.139.035 69.706.14 92.837.23h.015Z"/><path fill="#DBDBDB" d="M105.4 61.918c-7.098-.09-14.198-.152-21.299-.185l-12.024-.03v.426l12.024-.025c7.09-.023 14.19-.085 21.299-.186ZM164.918 65.58v-.396l-15.496-.04-22.465.055c-7.099.033-14.199.093-21.3.18 7.099.09 14.198.152 21.3.186l22.465.055 15.496-.04ZM164.917 71.359v-.502l-22.158.055c-7.101.034-14.201.095-21.3.186 7.099.083 14.199.144 21.3.18l22.158.08ZM164.917 61.878v-.397h-5.952c-7.098.03-14.197.092-21.295.186 7.098.087 14.197.147 21.295.18l5.952.03ZM106.112 68.534c-7.101-.083-14.202-.145-21.303-.185l-12.732-.03v.431l12.731-.035c7.104-.03 14.205-.09 21.304-.18ZM78.254 66.95c4.89.026 9.78.044 14.668.054h30.54c4.89 0 9.779-.018 14.667-.055-4.888-.03-9.777-.048-14.667-.055h-30.54c-4.89.01-9.78.028-14.668.055Z"/><path fill="#EBEBEB" d="M109.082 17.26h-86.69v84.927h86.69V17.26Z"/><path fill="#DBDBDB" d="M142.028 17.26h-32.946v84.927h32.946V17.26ZM22.392 59.395h86.69l-67.7 2.202-18.99-2.202ZM109.082 91.85h-86.69l67.703 2.201 18.987-2.202ZM22.392 35.474h54.914L28.49 37.269l-6.1-1.795Z"/><path fill="#DBDBDB" d="M109.082 79.249h-54.91l48.811 1.795 6.099-1.795ZM116.359 22.542h-54.91l48.815 1.8 6.095-1.8ZM59.983 27.924h61.935l-10.325 1.079-51.61-1.079ZM30.82 68.57h61.935L82.43 69.647l-51.61-1.079Z"/><path fill="#EBEBEB" d="M68.905 43.62h40.177l7.18 2.879-47.357-2.88ZM78.589 72.316h40.177l7.176 2.88-47.353-2.88ZM69.752 84.962h40.177l7.18 2.88-47.357-2.88Z"/><path fill="#DBDBDB" d="M11.324 43.62h40.177l7.176 2.879-47.353-2.88Z"/><path fill="#EBEBEB" d="M62.876 27.027H22.703l-7.18 2.874 47.353-2.874ZM65.048 77.81H24.871l-7.18 2.878 47.357-2.879Z"/><path fill="#DBDBDB" d="M62.876 82.087H22.703l-7.18 2.875 47.353-2.875ZM109.082 72.316h32.262l7.18 2.88-39.442-2.88ZM120.344 59.395h25.019l-3.335-2.352-21.684 2.352Z"/><path fill="#263238" d="M3.56 102.197c79.584-.306 168.856-.311 248.44 0-79.584.311-168.856.306-248.44 0Z"/><path fill="#DBDBDB" d="m163.72 173.209 38.606-12.244 49.052 8.818-40.274 13.152-47.384-9.726Z"/><path fill="#DBDBDB" d="m163.72 173.21 38.594-12.3s49.087 8.758 49.087 8.753l.494.085-.494.166-40.297 13.092s-47.369-9.801-47.384-9.796Zm0 0s47.458 9.665 47.372 9.66l40.262-13.207v.246s-49.09-8.894-49.016-8.888L163.72 173.21Z"/><path fill="#C7C7C7" d="M209.568 179.525c2.376-.943 4.825-1.821 7.282-2.689 2.456-.867 4.952-1.7 7.456-2.508a388.226 388.226 0 0 1 7.611-2.392l3.857-1.149c1.314-.361 2.6-.742 3.93-1.083-1.166.476-2.403.913-3.604 1.374l-3.673 1.309c-2.45.878-4.953 1.706-7.457 2.508-2.503.803-5.053 1.625-7.611 2.393-2.558.767-5.139 1.535-7.791 2.237ZM215.947 174.544c2.721-1.204 5.66-2.237 8.638-3.221 2.978-.983 6.049-1.911 9.322-2.633-2.721 1.209-5.656 2.237-8.638 3.22-2.981.983-6.068 1.891-9.322 2.634ZM197.937 177.533c2.375-.943 4.824-1.82 7.281-2.688a284.596 284.596 0 0 1 7.456-2.508 398.858 398.858 0 0 1 7.608-2.393l3.86-1.144c1.31-.361 2.601-.742 3.931-1.088-1.167.476-2.403.918-3.604 1.374l-3.674 1.315c-2.453.872-4.952 1.7-7.456 2.508a388.33 388.33 0 0 1-7.612 2.392c-2.557.768-5.139 1.53-7.79 2.232ZM196.452 175.12c4.039-1.635 8.28-3.089 12.572-4.514 4.292-1.425 8.669-2.749 13.217-3.918-4.039 1.636-8.28 3.09-12.568 4.515-4.288 1.424-8.657 2.749-13.221 3.917ZM201.498 170.581c2.228-1.043 4.665-1.911 7.141-2.733 2.477-.823 5.054-1.565 7.802-2.147-2.227 1.048-4.665 1.911-7.137 2.733-2.472.823-5.054 1.565-7.806 2.147Z"/><path fill="#EBEBEB" d="m4.183 121.79 53.569-13.082 51.691 19.487-53.3 13.554-51.96-19.959Z"/><path fill="#DBDBDB" d="m4.183 121.79 53.573-13.147s51.703 19.437 51.703 19.432l.388.145-.388.101-53.317 13.503c-.02 0-51.944-20.019-51.96-20.019v-.015Zm0 0 51.975 19.893c-.129.035 53.301-13.623 53.258-13.608v.241L57.74 108.753c.101-.03-53.573 13.042-53.557 13.042v-.005Z"/><path fill="#DBDBDB" d="M55.392 137.776c3.499-1.044 7.025-2.007 10.566-2.975 3.542-.968 7.11-1.891 10.683-2.804a552.987 552.987 0 0 1 10.78-2.653l5.423-1.274c1.823-.402 3.63-.823 5.47-1.204-1.742.526-3.5 1.003-5.264 1.505l-5.31 1.469c-3.538.973-7.11 1.891-10.68 2.804a552.925 552.925 0 0 1-10.78 2.654c-3.614.847-7.226 1.705-10.888 2.478ZM69.123 130.839c3.817-1.269 7.774-2.343 11.743-3.366 3.97-1.023 8.013-1.956 12.164-2.714-3.817 1.269-7.775 2.343-11.744 3.366-3.969 1.023-8.012 1.956-12.163 2.714ZM50.109 132.223c3.051-.933 6.146-1.79 9.248-2.643 3.102-.853 6.22-1.66 9.361-2.468 3.141-.807 6.286-1.58 9.462-2.317l4.762-1.104c1.606-.346 3.192-.712 4.81-1.038-1.52.471-3.068.903-4.604 1.354l-4.645 1.289c-3.11.858-6.22 1.661-9.361 2.468a442.334 442.334 0 0 1-9.458 2.318c-3.176.742-6.348 1.479-9.575 2.141ZM47.617 129.409c2.819-.872 5.68-1.675 8.553-2.468a492.867 492.867 0 0 1 8.665-2.287 384.58 384.58 0 0 1 8.762-2.142l4.412-1.003c1.49-.316 2.963-.652 4.463-.948-1.403.446-2.838.843-4.253 1.269l-4.3 1.199a431.215 431.215 0 0 1-8.664 2.287c-2.9.743-5.832 1.46-8.763 2.142a410.371 410.371 0 0 1-8.875 1.951ZM34.272 129.354c3.498-1.043 7.024-2.006 10.566-2.979 3.541-.973 7.11-1.886 10.682-2.804a566.757 566.757 0 0 1 10.776-2.654l5.443-1.274c1.823-.396 3.63-.822 5.47-1.204-1.742.532-3.5 1.004-5.264 1.505l-5.307 1.455c-3.537.968-7.11 1.886-10.678 2.804a546.135 546.135 0 0 1-10.78 2.653c-3.616.853-7.246 1.721-10.908 2.498ZM33.828 126.018c3.087-.943 6.22-1.81 9.357-2.673 3.137-.863 6.306-1.681 9.474-2.508 3.168-.828 6.356-1.6 9.567-2.348l4.82-1.118c1.621-.352 3.23-.723 4.864-1.049-1.555.477-3.11.908-4.665 1.37l-4.7 1.299c-3.134.868-6.302 1.68-9.47 2.508-3.168.827-6.36 1.6-9.571 2.347-3.211.748-6.414 1.5-9.676 2.172ZM23.71 125.14c3.498-1.043 7.024-2.006 10.57-2.974 3.545-.968 7.11-1.911 10.698-2.804 3.588-.893 7.164-1.806 10.78-2.654l5.423-1.274c1.823-.401 3.634-.822 5.47-1.204-1.742.527-3.5 1.004-5.26 1.505l-5.307 1.46c-3.537.968-7.11 1.886-10.683 2.799a552.631 552.631 0 0 1-10.78 2.653c-3.615.848-7.246 1.721-10.912 2.493ZM35.982 118.575c4.062-1.335 8.253-2.468 12.475-3.552 4.221-1.083 8.498-2.081 12.894-2.899-4.062 1.334-8.249 2.463-12.474 3.551-4.226 1.089-8.498 2.072-12.895 2.9Z"/><path fill="#EBEBEB" d="m82.678 188.574 68.077-16.623 65.682 24.764-67.731 17.22-66.028-25.361Z"/><path fill="#DBDBDB" d="m82.686 188.574 68.069-16.689s65.698 24.714 65.698 24.709l.388.146-.388.1L148.706 214c-.019.005-66.02-25.426-66.02-25.426Zm0 0 66.043 25.301c-.12 0 67.728-17.291 67.696-17.281v.241l-65.686-24.824c.101-.04-68.077 16.588-68.061 16.553l.008.01Z"/><path fill="#DBDBDB" d="M147.75 208.889c4.436-1.324 8.941-2.563 13.431-3.782 4.49-1.219 9.035-2.398 13.571-3.562a732.63 732.63 0 0 1 13.7-3.376l6.892-1.615c2.333-.501 4.614-1.048 6.951-1.53-2.212.673-4.459 1.29-6.687 1.937l-6.744 1.846c-4.494 1.233-9.035 2.397-13.571 3.561a688.334 688.334 0 0 1-13.7 3.371c-4.595 1.078-9.186 2.167-13.843 3.15ZM165.201 200.07c4.852-1.61 9.867-2.974 14.92-4.273 5.054-1.299 10.185-2.508 15.464-3.451-4.851 1.615-9.87 2.979-14.923 4.278-5.054 1.3-10.186 2.483-15.461 3.446ZM141.04 201.831c3.887-1.184 7.81-2.277 11.752-3.355a815.557 815.557 0 0 1 11.895-3.136 557.94 557.94 0 0 1 12.02-2.949l6.057-1.404c2.037-.437 4.055-.903 6.111-1.315-1.944.602-3.887 1.149-5.831 1.721l-5.901 1.635c-3.938 1.089-7.919 2.112-11.896 3.135a530.157 530.157 0 0 1-12.024 2.945c-4.035.938-8.086 1.906-12.183 2.723ZM137.888 198.255c3.58-1.109 7.219-2.127 10.885-3.13a729.615 729.615 0 0 1 11.009-2.915 445.58 445.58 0 0 1 11.133-2.718l5.614-1.294c1.889-.397 3.759-.828 5.668-1.204-1.785.566-3.604 1.073-5.408 1.61l-5.461 1.505a663.197 663.197 0 0 1-11.01 2.909 450.032 450.032 0 0 1-11.133 2.719c-3.748.862-7.511 1.765-11.297 2.518ZM120.911 198.184c4.436-1.324 8.941-2.563 13.431-3.782a1011.47 1011.47 0 0 1 13.571-3.561 708.227 708.227 0 0 1 13.688-3.371l6.893-1.615c2.332-.502 4.614-1.048 6.95-1.505-2.212.672-4.459 1.289-6.686 1.936l-6.745 1.846c-4.494 1.234-9.034 2.398-13.571 3.562a688.23 688.23 0 0 1-13.699 3.37c-4.595 1.079-9.175 2.137-13.832 3.12ZM120.352 193.946c3.922-1.194 7.903-2.302 11.891-3.391a833.545 833.545 0 0 1 12.051-3.175 545.838 545.838 0 0 1 12.16-2.98l6.107-1.444c2.065-.442 4.106-.913 6.185-1.334-1.943.607-3.945 1.158-5.92 1.74l-5.971 1.655c-3.985 1.099-8.012 2.137-12.051 3.171a765.3 765.3 0 0 1-12.16 2.979c-4.082.973-8.148 1.926-12.292 2.779ZM107.492 192.833c4.435-1.325 8.941-2.564 13.431-3.782 4.49-1.219 9.034-2.398 13.571-3.562a724.757 724.757 0 0 1 13.699-3.376l6.893-1.615c2.332-.501 4.614-1.048 6.947-1.53-2.208.672-4.455 1.289-6.683 1.936l-6.745 1.846c-4.494 1.234-9.034 2.398-13.571 3.562a693.501 693.501 0 0 1-13.699 3.371c-4.595 1.078-9.186 2.166-13.843 3.15ZM123.088 184.485c5.162-1.69 10.496-3.13 15.849-4.514 5.353-1.384 10.803-2.648 16.39-3.687-5.163 1.696-10.497 3.135-15.854 4.515-5.356 1.379-10.799 2.658-16.385 3.686Z"/><path fill="#37474F" d="m249.03 146.444-126.039 44.934v-32.389l126.039-44.934c6.679 15.891 0 32.389 0 32.389Z"/><path fill="#455A64" d="m0 168.911 122.991 22.467v-8.212L11.246 165.53 0 166.403v2.508Z"/><path fill="#455A64" d="M122.995 159.14c4.595 14.27 0 32.238 0 32.238L5.932 167.521v-27.994l117.063 19.613Z"/><path fill="#fff" d="M120.099 158.658c4.474 14.215.369 29.524.369 29.524L5.932 167.406v-27.889L120.1 158.658Z"/><path fill="#DBDBDB" d="M120.099 158.658c.151.552.591 2.107.742 2.654a53.035 53.035 0 0 1 1.369 12.038 63.992 63.992 0 0 1-1.684 14.848c.055.221-114.582-20.621-114.621-20.566l-.167-.03v-28.341l.194.035 57.107 9.646 57.036 9.706.024.01Zm0 0c-28.083-4.87-86.85-13.859-113.996-19.131l.02 27.889-.168-.25c0 .055 114.774 20.861 114.447 20.992a59.542 59.542 0 0 0 1.298-7.309c.867-7.408.533-15.183-1.605-22.191h.004Z"/><path fill="#DBDBDB" d="M61.352 151.605c19.11 3.01 40.515 6.722 59.559 10.369-19.111-3.01-40.515-6.727-59.56-10.369ZM5.932 149.729c16.382 2.509 34.556 5.689 50.88 8.854-16.394-2.508-34.56-5.678-50.88-8.854ZM8.661 152.483a3979.415 3979.415 0 0 1 86.791 15.104 3987.764 3987.764 0 0 1-86.79-15.104ZM23.71 161.958a4282.015 4282.015 0 0 1 90.037 15.405c-28.872-4.605-61.227-10.148-90.037-15.405ZM43.12 167.857c25.182 4.063 53.425 8.969 78.549 13.674a3242.207 3242.207 0 0 1-78.55-13.674ZM20.487 167.802a5679.483 5679.483 0 0 1 100.603 17.511 5634.45 5634.45 0 0 1-100.603-17.511Z"/><path fill="#455A64" d="m122.995 159.14 126.035-45.084-127.361-7.444L0 135.725v2.809l122.995 20.606Z"/><path fill="#37474F" d="M126.226 154.183a605.36 605.36 0 0 1 47.737-16.407 604.241 604.241 0 0 1-47.737 16.407ZM95.989 151.314c4.354.291 8.851.943 13.174 1.621 4.323.677 8.786 1.504 13.023 2.633-4.354-.286-8.851-.943-13.17-1.62-4.319-.677-8.786-1.53-13.027-2.634ZM3.382 136.271a1939.077 1939.077 0 0 1 88.848 14.426 1914.734 1914.734 0 0 1-88.848-14.426Z"/><path fill="#455A64" d="M208.64 132.323a563.933 563.933 0 0 1 37.346-13.628 561.107 561.107 0 0 1-37.346 13.628Z"/><path fill="#DD6B20" d="M143.288 107.619c-1.633.412-8.374.878-8.51-1.003-.21-2.829 15.911-22.893 21.696-26.665 5.501-3.592 23.223-11.427 27.601-11.597l.039 18.017c-2.477.813-22.206-1.67-26.35 1.169-1.799 1.234-4.182 6.35-9.034 14.476-1.707 2.864-4.478 5.357-5.442 5.603Z"/><path fill="#000" d="M143.288 107.619c-1.633.412-8.374.878-8.51-1.003-.21-2.829 15.911-22.893 21.696-26.665 5.501-3.592 23.223-11.427 27.601-11.597l.039 18.017c-2.477.813-22.206-1.67-26.35 1.169-1.799 1.234-4.182 6.35-9.034 14.476-1.707 2.864-4.478 5.357-5.442 5.603Z" opacity=".3"/><path fill="#DD6B20" d="M139.941 107.619c-1.637.412-7.904.878-8.044-1.003-.206-2.829 15.916-22.893 21.696-26.665 5.501-3.592 26.105-11.427 30.482-11.597l.039 18.017c-2.477.813-25.082-1.67-29.226 1.169-1.8 1.234-4.665 6.35-9.509 14.476-1.703 2.864-4.474 5.357-5.438 5.603Z"/><path fill="#000" d="M139.941 107.619c-1.637.412-7.904.878-8.044-1.003-.206-2.829 15.916-22.893 21.696-26.665 5.501-3.592 26.105-11.427 30.482-11.597l.039 18.017c-2.477.813-25.082-1.67-29.226 1.169-1.8 1.234-4.665 6.35-9.509 14.476-1.703 2.864-4.474 5.357-5.438 5.603Z" opacity=".2"/><path fill="#DD6B20" d="M203.504 131.526c1.407.763 6.943 1.149 7.891-.391 1.431-2.332-16.024-34.069-26.279-39.827-9.59-5.343-144.893-39.251-147.684-39.813l-.1 14.085c18.85 3.802 138.458 28.391 145.856 32.55 4.824 2.703 10.971 16.969 15.387 26.825 1.784 4.003 3.296 5.688 4.929 6.571Z"/><path fill="#000" d="M203.504 131.526c1.407.763 6.943 1.149 7.891-.391 1.431-2.332-16.024-34.069-26.279-39.827-9.59-5.343-144.893-39.251-147.684-39.813l-.1 14.085c18.85 3.802 138.458 28.391 145.856 32.55 4.824 2.703 10.971 16.969 15.387 26.825 1.784 4.003 3.296 5.688 4.929 6.571Z" opacity=".2"/><path fill="#DD6B20" d="M201.168 131.526c1.407.763 6.943 1.149 7.892-.391 1.43-2.332-15.896-34.836-26.147-40.595-9.595-5.342-142.69-38.503-145.48-39.045L34.995 65.58c18.85 3.802 138.459 28.391 145.857 32.55 4.825 2.703 10.971 16.969 15.387 26.825 1.784 4.003 3.296 5.688 4.929 6.571Z"/><path fill="#000" d="M201.168 131.526c1.407.763 6.943 1.149 7.892-.391 1.43-2.332-15.896-34.836-26.147-40.595-9.595-5.342-142.69-38.503-145.48-39.045L34.995 65.58c18.85 3.802 138.459 28.391 145.857 32.55 4.825 2.703 10.971 16.969 15.387 26.825 1.784 4.003 3.296 5.688 4.929 6.571Z" opacity=".1"/><g fill="#000" opacity=".1"><path d="m63.637 57.996-10.24 11.361a5633.675 5633.675 0 0 0-18.395-3.762l2.434-14.1c.758.15 11.204 2.734 26.201 6.5ZM89.823 76.961l-6.36-1.349-5.908-14.105 9.365 2.388 2.903 13.066ZM125.642 73.937l-7.191 9.144-6.388-1.385 5.109-9.986c2.837.739 5.661 1.48 8.47 2.227ZM182.034 90.124l-2.476 7.469c-1.19-.432-2.982-.974-5.287-1.6l-1.785-9.105c4.486 1.365 7.799 2.473 9.548 3.236Z"/></g><path fill="#DD6B20" d="M63.148 138.905c-14.096-.878-24.822-21.479-23.912-45.917.431-11.662 3.42-22.507 8.412-30.538 5.159-8.296 11.818-12.65 18.816-12.194 6.997.457 13.302 5.573 17.816 14.477 4.373 8.597 6.542 19.768 6.103 31.44-.863 23.124-11.849 41.533-24.977 42.702-.752.065-1.506.075-2.258.03ZM51.236 66.172C46.849 73.22 44.2 82.85 43.813 93.28c-.778 21.168 7.98 38.98 19.55 39.697 11.568.717 21.625-15.921 22.422-37.119.389-10.428-1.52-20.335-5.357-27.904-3.697-7.268-8.739-11.457-14.197-11.793a11.251 11.251 0 0 0-1.745 0c-4.836.477-9.486 3.953-13.248 10.002v.01Zm-11.98 29.92c-.712-17.876.84-20.675.21-25.947-.3-2.508-3.037-4.916-3.037-4.916l2.391-12.836s7.452.938 9.17.973c3.056.055 9.653-2.824 15.399-3.01 0 0-12.49 7.244-16.506 16.478-4.016 9.235-7.628 29.249-7.628 29.249v.01Z"/><path fill="#000" d="M63.148 138.905c-14.096-.878-24.822-21.479-23.912-45.917.431-11.662 3.42-22.507 8.412-30.538 5.159-8.296 11.818-12.65 18.816-12.194 6.997.457 13.302 5.573 17.816 14.477 4.373 8.597 6.542 19.768 6.103 31.44-.863 23.124-11.849 41.533-24.977 42.702-.752.065-1.506.075-2.258.03ZM51.236 66.172C46.849 73.22 44.2 82.85 43.813 93.28c-.778 21.168 7.98 38.98 19.55 39.697 11.568.717 21.625-15.921 22.422-37.119.389-10.428-1.52-20.335-5.357-27.904-3.697-7.268-8.739-11.457-14.197-11.793a11.251 11.251 0 0 0-1.745 0c-4.836.477-9.486 3.953-13.248 10.002v.01Zm-11.98 29.92c-.712-17.876.84-20.675.21-25.947-.3-2.508-3.037-4.916-3.037-4.916l2.391-12.836s7.452.938 9.17.973c3.056.055 9.653-2.824 15.399-3.01 0 0-12.49 7.244-16.506 16.478-4.016 9.235-7.628 29.249-7.628 29.249v.01Z" opacity=".1"/><path fill="#DD6B20" d="M61.231 138.905c-14.1-.878-24.825-21.479-23.916-45.917.432-11.662 3.422-22.507 8.413-30.538 5.159-8.296 11.818-12.65 18.815-12.194 6.998.457 13.303 5.573 17.816 14.477 4.374 8.597 6.543 19.768 6.104 31.44-.863 23.124-11.85 41.533-24.977 42.702-.75.065-1.503.075-2.255.03ZM49.316 66.172c-4.389 7.058-7.02 16.689-7.41 27.117-.777 21.168 7.978 38.98 19.547 39.697 11.569.717 21.626-15.921 22.422-37.119.39-10.428-1.52-20.335-5.356-27.904-3.694-7.268-8.74-11.457-14.197-11.793a11.25 11.25 0 0 0-1.746 0c-4.844.467-9.497 3.943-13.26 9.992v.01Zm-11.981 29.92c-.711-17.876.84-20.675.21-25.947-.3-2.508-3.036-4.916-3.036-4.916l2.5-14.306s7.576 1.73 9.29 1.761c3.056.06 9.424-2.142 15.162-2.307 0 0-12.49 7.243-16.507 16.477-4.015 9.235-7.619 29.229-7.619 29.229v.01Z"/><path fill="#A6A6A6" d="M44.48 57.47c-.09.887-1.368 1.399-2.857 1.143s-2.616-1.184-2.523-2.066c.093-.883 1.368-1.4 2.857-1.144 1.49.256 2.632 1.179 2.523 2.066Z"/><path fill="#fff" d="M39.753 56.576c.12-.426 1.415-.907 2.83-.416l-2.83.416ZM36.425 65.344c2.69 1.947 3.841 4.816 3.538 8.788-.3 6.892-.902 13.72-.91 20.611-.036 3.44.135 6.878.513 10.283-1.722-8.397-1.209-17.25-.602-25.802l.389-5.137c.42-3.842-.521-6.47-2.936-8.743h.008ZM50.475 53.511c3.732-1.374 7.607-2.508 11.51-2.282-3.887.446-7.662 1.57-11.51 2.282Z"/><path fill="#EBEBEB" d="M50.47 66.528c-4.24 7.022-6.783 16.593-7.164 26.966-.758 21.067 7.717 38.764 18.897 39.481 11.18.718 20.903-15.835 21.672-36.893.39-10.368-1.465-20.225-5.174-27.749-3.572-7.233-8.447-11.396-13.726-11.732a10.513 10.513 0 0 0-1.688 0c-4.684.451-9.178 3.902-12.816 9.927Z" opacity=".1"/><g fill="#fff" opacity=".2"><path d="m71.925 59.43-28.65 38.037c-.027-1.314 0-2.633.035-3.977A68.718 68.718 0 0 1 44.7 81.878L63.75 56.602h1.232c2.461.18 4.848 1.153 6.943 2.829ZM81.908 77.117l-33.366 44.297a40.313 40.313 0 0 1-1.664-3.817l33.709-44.754a48.06 48.06 0 0 1 1.321 4.274ZM83.207 103.582a63.115 63.115 0 0 1-1.78 8.391l-15.531 20.616a11.035 11.035 0 0 1-3.693.387c-.35-.025-.7-.061-1.046-.121l22.05-29.273ZM83.269 83.934l-31.819 42.24a9.997 9.997 0 0 1-.435-.597L83.12 82.94c.058.332.101.668.148.994Z"/></g><path fill="#DD6B20" d="m107.068 97.267 3.11-4.36c-4.999-5.968-16.766-14.305-25.583-3.245l3.203 4.254c7.9-9.927 18.807 2.809 19.27 3.35Z"/><path fill="#DD6B20" d="M136.822 144.332c-8.974-2.126-16.928-8.761-22.114-18.448-5.186-9.688-7.18-21.634-5.545-33.217 1.225-8.638 4.407-16.612 9.145-22.916 4.737-6.303 10.816-10.653 17.469-12.498 6.653-1.846 13.581-1.104 19.907 2.13 6.326 3.235 11.767 8.817 15.635 16.042 3.868 7.224 5.988 15.766 6.094 24.546.105 8.779-1.809 17.402-5.502 24.777-3.692 7.376-8.997 13.173-15.242 16.659-6.246 3.486-13.153 4.504-19.847 2.925ZM113.688 93.75c-1.107 7.872-.281 15.994 2.362 23.231 2.643 7.237 6.973 13.228 12.383 17.136 5.41 3.909 11.631 5.539 17.795 4.664 6.163-.875 11.961-4.212 16.583-9.545 4.622-5.333 7.838-12.396 9.198-20.201 1.361-7.806.798-15.965-1.61-23.338-2.408-7.373-6.54-13.591-11.819-17.787-5.28-4.196-11.443-6.159-17.629-5.616-6.605.596-12.869 4.01-17.805 9.705s-8.263 13.347-9.458 21.751Z"/><path fill="#DD6B20" d="M173.652 81.692c-2.367-10.143-16.156-21.294-16.156-21.294 5.582 1.771 11.74 5.373 14.734 6.175 1.679.447 11.864 1.79 11.864 1.79l.039 18.019s-2.799.2-3.499 2.563c-1.5 4.97-.742 6.175-4.443 23.42-.035 0-.206-20.536-2.539-30.673Z"/><g fill="#000" opacity=".1"><path d="M136.822 144.332c-8.974-2.126-16.928-8.761-22.114-18.448-5.186-9.688-7.18-21.634-5.545-33.217 1.225-8.638 4.407-16.612 9.145-22.916 4.737-6.303 10.816-10.653 17.469-12.498 6.653-1.846 13.581-1.104 19.907 2.13 6.326 3.235 11.767 8.817 15.635 16.042 3.868 7.224 5.988 15.766 6.094 24.546.105 8.779-1.809 17.402-5.502 24.777-3.692 7.376-8.997 13.173-15.242 16.659-6.246 3.486-13.153 4.504-19.847 2.925ZM113.688 93.75c-1.107 7.872-.281 15.994 2.362 23.231 2.643 7.237 6.973 13.228 12.383 17.136 5.41 3.909 11.631 5.539 17.795 4.664 6.163-.875 11.961-4.212 16.583-9.545 4.622-5.333 7.838-12.396 9.198-20.201 1.361-7.806.798-15.965-1.61-23.338-2.408-7.373-6.54-13.591-11.819-17.787-5.28-4.196-11.443-6.159-17.629-5.616-6.605.596-12.869 4.01-17.805 9.705s-8.263 13.347-9.458 21.751Z"/><path d="M173.652 81.692c-2.367-10.143-16.156-21.294-16.156-21.294 5.582 1.771 11.74 5.373 14.734 6.175 1.679.447 11.864 1.79 11.864 1.79l.039 18.019s-2.799.2-3.499 2.563c-1.5 4.97-.742 6.175-4.443 23.42-.035 0-.206-20.536-2.539-30.673Z"/></g><path fill="#DD6B20" d="M133.763 143.685c-8.967-2.126-16.915-8.755-22.1-18.432-5.185-9.677-7.184-21.612-5.559-33.188 1.217-8.647 4.394-16.633 9.13-22.95 4.736-6.315 10.818-10.676 17.475-12.53 6.658-1.855 13.592-1.12 19.926 2.113 6.333 3.233 11.781 8.817 15.654 16.045 3.873 7.23 5.997 15.778 6.103 24.566.107 8.787-1.81 17.417-5.506 24.798-3.696 7.382-9.007 13.182-15.259 16.668-6.252 3.486-13.165 4.5-19.864 2.915v-.005Zm-23.134-50.557c-1.112 7.878-.289 16.008 2.354 23.254 2.643 7.245 6.974 13.244 12.388 17.158 5.415 3.914 11.641 5.548 17.81 4.673 6.169-.874 11.973-4.214 16.599-9.552 4.626-5.338 7.845-12.407 9.205-20.22 1.361-7.813.796-15.98-1.615-23.358-2.412-7.379-6.55-13.6-11.835-17.797-5.286-4.196-11.456-6.157-17.647-5.608-6.604.596-12.867 4.01-17.802 9.704-4.935 5.694-8.262 13.344-9.457 21.746Z"/><path fill="#DD6B20" d="M170.573 81.07c-2.367-10.143-16.156-21.294-16.156-21.294 5.582 1.771 11.74 5.373 14.733 6.175 1.68.447 11.865 1.79 11.865 1.79l.039 16.499s-2.799 1.093-3.499 3.45c-1.504 4.972-.746 6.808-4.447 24.078-.012-.04-.167-20.561-2.535-30.698Z"/><path fill="#A6A6A6" d="M176.653 75.15c-.093.888-1.372 1.4-2.857 1.144s-2.62-1.178-2.527-2.066c.093-.888 1.372-1.4 2.857-1.144s2.636 1.184 2.527 2.067Z"/><path fill="#fff" d="M171.922 74.263c.121-.427 1.415-.913 2.83-.417l-2.83.417ZM124.216 63.007c2.948-2.897 6.558-4.448 10.263-4.41a122.428 122.428 0 0 0-10.263 4.41ZM109.657 85.143c1.742-8.974 7.557-17.631 13.96-21.67-5.994 5.518-11.021 12.922-13.96 21.67Z"/><path fill="#EBEBEB" d="M112.048 93.128c-2.876 20.852 7.612 40.916 23.387 44.723 15.775 3.807 30.944-10.067 33.821-30.914 2.877-20.847-7.616-40.921-23.391-44.723a21.959 21.959 0 0 0-7.199-.537c-12.957 1.179-24.184 13.82-26.618 31.45Z" opacity=".1"/><g fill="#fff" opacity=".2"><path d="m169.703 101.807-27.714 36.617a22.175 22.175 0 0 1-6.554-.592c-.935-.224-1.86-.51-2.772-.858l35.936-47.497a49.567 49.567 0 0 1 1.104 12.33ZM144.38 61.909l-32.566 43.057a50.666 50.666 0 0 1 .234-11.837c.132-.974.299-1.942.486-2.89l20.689-27.372a22.524 22.524 0 0 1 5.442-1.19c1.906-.176 3.821-.099 5.715.232ZM164.979 79.019l-40.231 53.17a29.599 29.599 0 0 1-2.64-2.574l40.931-54.088a38.055 38.055 0 0 1 1.94 3.492ZM152.392 64.853l-38.338 50.663a46.203 46.203 0 0 1-1.237-4.424l36.228-47.894a25.262 25.262 0 0 1 3.347 1.655ZM169.329 106.406c-.019.176-.047.356-.07.532-.039.311-.086.622-.136.923l-22.547 29.815c-.362.101-.731.191-1.104.271l23.857-31.541ZM160.749 72.267 119.651 126.6a23.27 23.27 0 0 1-.431-.612l41.071-54.3.458.578Z"/></g></svg>