<svg xmlns="http://www.w3.org/2000/svg" width="178" height="37" fill="none"><path fill="#171923" fill-opacity=".62" d="M5.504 21.584c0 1.707.405 3.05 1.216 4.032.81.96 1.93 1.44 3.36 1.44.619 0 1.141-.021 1.568-.064a13.6 13.6 0 0 0 1.088-.192v-9.6c-.341-.235-.8-.448-1.376-.64a4.95 4.95 0 0 0-1.792-.32c-1.408 0-2.443.48-3.104 1.44-.64.96-.96 2.261-.96 3.904Zm11.104 7.904c-.768.235-1.739.448-2.912.64a22.18 22.18 0 0 1-3.648.288c-1.323 0-2.507-.203-3.552-.608a7.668 7.668 0 0 1-2.688-1.728c-.725-.768-1.29-1.685-1.696-2.752-.384-1.088-.576-2.304-.576-3.648 0-1.323.16-2.517.48-3.584.341-1.088.832-2.016 1.472-2.784a6.331 6.331 0 0 1 2.336-1.76c.917-.427 1.973-.64 3.168-.64.81 0 1.525.096 2.144.288a9.589 9.589 0 0 1 1.6.64V5.808l3.872-.64v24.32ZM25.43 30h-3.872V13.264h3.872V30Zm.416-21.632c0 .725-.234 1.301-.704 1.728a2.387 2.387 0 0 1-1.663.64c-.662 0-1.227-.213-1.697-.64-.469-.427-.704-1.003-.704-1.728 0-.747.235-1.333.704-1.76.47-.427 1.035-.64 1.697-.64.64 0 1.194.213 1.663.64.47.427.704 1.013.704 1.76ZM33.41 21.2c0 1.643.352 2.848 1.056 3.616.726.747 1.654 1.12 2.784 1.12a5.64 5.64 0 0 0 1.728-.256c.555-.17 1.003-.373 1.344-.608V16.4a8.716 8.716 0 0 0-1.024-.16 10.139 10.139 0 0 0-1.536-.096c-1.408 0-2.485.47-3.232 1.408-.746.917-1.12 2.133-1.12 3.648Zm10.784 7.104c0 2.667-.682 4.619-2.048 5.856-1.344 1.237-3.413 1.856-6.208 1.856a17.52 17.52 0 0 1-3.008-.256c-.96-.17-1.834-.395-2.624-.672l.704-3.296a12.13 12.13 0 0 0 2.24.672c.854.17 1.77.256 2.752.256 1.558 0 2.667-.32 3.328-.96.662-.64.992-1.59.992-2.848v-.64c-.384.192-.896.384-1.536.576-.618.192-1.333.288-2.144.288-1.066 0-2.048-.17-2.944-.512a6.317 6.317 0 0 1-2.272-1.504c-.618-.661-1.11-1.483-1.472-2.464-.341-1.003-.512-2.155-.512-3.456 0-1.216.182-2.336.544-3.36.384-1.024.928-1.899 1.632-2.624.726-.725 1.6-1.29 2.624-1.696 1.024-.405 2.187-.608 3.488-.608 1.259 0 2.454.096 3.584.288 1.13.192 2.09.395 2.88.608v14.496ZM53.024 30h-3.872V13.264h3.872V30Zm.416-21.632c0 .725-.234 1.301-.704 1.728-.47.427-1.024.64-1.664.64-.661 0-1.226-.213-1.696-.64-.47-.427-.704-1.003-.704-1.728 0-.747.235-1.333.704-1.76.47-.427 1.035-.64 1.696-.64.64 0 1.195.213 1.664.64.47.427.704 1.013.704 1.76Zm4.332.48 3.872-.64v5.056h5.952v3.232h-5.952v6.816c0 1.344.213 2.304.64 2.88.427.576 1.152.864 2.176.864.704 0 1.323-.075 1.856-.224.555-.15.992-.288 1.312-.416l.64 3.072c-.448.192-1.035.384-1.76.576-.725.213-1.579.32-2.56.32-1.195 0-2.197-.16-3.008-.48-.79-.32-1.419-.779-1.888-1.376-.47-.619-.8-1.355-.992-2.208-.192-.875-.288-1.867-.288-2.976V8.848ZM77.227 27.28c1.195 0 2.101-.064 2.72-.192V22.8a7.533 7.533 0 0 0-.928-.192 9.273 9.273 0 0 0-2.656 0 4.241 4.241 0 0 0-1.184.352c-.341.17-.619.416-.832.736-.213.299-.32.683-.32 1.152 0 .917.288 1.557.864 1.92.576.341 1.355.512 2.336.512Zm-.32-14.432c1.28 0 2.357.16 3.232.48.875.32 1.568.768 2.08 1.344.533.576.907 1.28 1.12 2.112.235.81.352 1.707.352 2.688v10.144c-.597.128-1.504.277-2.72.448-1.195.192-2.55.288-4.064.288-1.003 0-1.92-.096-2.752-.288-.832-.192-1.547-.501-2.144-.928a4.58 4.58 0 0 1-1.376-1.664c-.32-.683-.48-1.525-.48-2.528 0-.96.181-1.77.544-2.432a4.598 4.598 0 0 1 1.536-1.6 6.171 6.171 0 0 1 2.208-.896 12.064 12.064 0 0 1 2.656-.288c.427 0 .875.032 1.344.096.47.043.97.128 1.504.256v-.64c0-.448-.053-.875-.16-1.28a2.44 2.44 0 0 0-.576-1.056c-.256-.32-.608-.565-1.056-.736-.427-.17-.97-.256-1.632-.256-.896 0-1.717.064-2.464.192-.747.128-1.355.277-1.824.448l-.48-3.136c.49-.17 1.205-.341 2.144-.512a16.81 16.81 0 0 1 3.008-.256Zm17.35 17.472c-1.152-.021-2.112-.15-2.88-.384-.747-.235-1.344-.565-1.792-.992a3.817 3.817 0 0 1-.96-1.632c-.17-.661-.256-1.408-.256-2.24V5.808l3.872-.64v19.168c0 .47.032.864.096 1.184.085.32.224.597.416.832.192.213.448.384.768.512a7.49 7.49 0 0 0 1.28.256l-.544 3.2Z"/><path fill="#DD6B20" d="M108.501 26.784V30H97.389V13.368h3.744v13.416h7.368ZM114.248 30h-3.576V17.376h3.576V30Zm.336-16.272c0 .656-.216 1.176-.648 1.56a2.17 2.17 0 0 1-1.488.552 2.26 2.26 0 0 1-1.512-.552c-.416-.384-.624-.904-.624-1.56s.208-1.168.624-1.536a2.205 2.205 0 0 1 1.512-.576c.576 0 1.072.192 1.488.576.432.368.648.88.648 1.536Zm11.114 9.864c0-2.304-.848-3.456-2.544-3.456-.368 0-.736.048-1.104.144a3.12 3.12 0 0 0-.864.36v6.504c.176.032.4.064.672.096.272.016.568.024.888.024.976 0 1.712-.336 2.208-1.008.496-.672.744-1.56.744-2.664Zm3.648.096c0 1.008-.152 1.92-.456 2.736a5.644 5.644 0 0 1-1.272 2.088c-.56.576-1.248 1.024-2.064 1.344-.816.304-1.744.456-2.784.456-.432 0-.888-.024-1.368-.072-.464-.032-.928-.08-1.392-.144-.448-.064-.88-.136-1.296-.216a17.844 17.844 0 0 1-1.104-.288v-17.64l3.576-.576v6.288a6.41 6.41 0 0 1 2.64-.552c.896 0 1.688.16 2.376.48a4.542 4.542 0 0 1 1.728 1.32c.464.576.816 1.272 1.056 2.088.24.8.36 1.696.36 2.688Zm10.356-3.144c-.32-.08-.696-.16-1.128-.24a6.41 6.41 0 0 0-1.392-.144 5.64 5.64 0 0 0-.816.072 4.05 4.05 0 0 0-.696.12V30h-3.576V18.048c.64-.224 1.392-.432 2.256-.624.88-.208 1.856-.312 2.928-.312.192 0 .424.016.696.048.272.016.544.048.816.096.272.032.544.08.816.144.272.048.504.112.696.192l-.6 2.952Zm7.107 6.96c.352 0 .688-.008 1.008-.024.32-.016.576-.04.768-.072v-2.712a6.602 6.602 0 0 0-.648-.096 7.216 7.216 0 0 0-.792-.048c-.336 0-.656.024-.96.072a2.263 2.263 0 0 0-.768.216c-.224.112-.4.264-.528.456s-.192.432-.192.72c0 .56.184.952.552 1.176.384.208.904.312 1.56.312Zm-.288-10.464c1.056 0 1.936.12 2.64.36.704.24 1.264.584 1.68 1.032.432.448.736.992.912 1.632a8.05 8.05 0 0 1 .264 2.136v7.44c-.512.112-1.224.24-2.136.384-.912.16-2.016.24-3.312.24-.816 0-1.56-.072-2.232-.216-.656-.144-1.224-.376-1.704-.696a3.33 3.33 0 0 1-1.104-1.296c-.256-.528-.384-1.176-.384-1.944 0-.736.144-1.36.432-1.872.304-.512.704-.92 1.2-1.224a5.172 5.172 0 0 1 1.704-.648 9.048 9.048 0 0 1 1.992-.216c.464 0 .872.024 1.224.072.368.032.664.08.888.144v-.336c0-.608-.184-1.096-.552-1.464-.368-.368-1.008-.552-1.92-.552-.608 0-1.208.048-1.8.144-.592.08-1.104.2-1.536.36l-.456-2.88c.208-.064.464-.128.768-.192.32-.08.664-.144 1.032-.192a12.58 12.58 0 0 1 1.152-.144c.416-.048.832-.072 1.248-.072Zm16.337 3.504c-.32-.08-.696-.16-1.128-.24a6.41 6.41 0 0 0-1.392-.144 5.64 5.64 0 0 0-.816.072 4.05 4.05 0 0 0-.696.12V30h-3.576V18.048c.64-.224 1.392-.432 2.256-.624.88-.208 1.856-.312 2.928-.312.192 0 .424.016.696.048.272.016.544.048.816.096.272.032.544.08.816.144.272.048.504.112.696.192l-.6 2.952Zm14.475-3.168a110.787 110.787 0 0 1-2.256 6.84 82.307 82.307 0 0 1-2.568 6.192c-.336.72-.672 1.328-1.008 1.824a5.306 5.306 0 0 1-1.104 1.248c-.4.336-.856.576-1.368.72-.496.16-1.08.24-1.752.24-.56 0-1.08-.056-1.56-.168a6.318 6.318 0 0 1-1.152-.336l.624-2.856c.368.128.696.216.984.264.288.048.592.072.912.072.64 0 1.128-.176 1.464-.528.352-.336.648-.808.888-1.416a72.977 72.977 0 0 1-2.448-5.376c-.816-2-1.584-4.24-2.304-6.72h3.792c.16.624.344 1.304.552 2.04.224.72.456 1.456.696 2.208.24.736.48 1.456.72 2.16.256.704.496 1.344.72 1.92a53 53 0 0 0 .648-1.92c.224-.704.44-1.424.648-2.16.224-.752.432-1.488.624-2.208.208-.736.392-1.416.552-2.04h3.696Z"/></svg>