<svg xmlns="http://www.w3.org/2000/svg" width="711" height="215" fill="none"><path fill="#171923" fill-opacity=".62" d="M22.016 87.336c0 6.827 1.621 12.203 4.864 16.128 3.243 3.84 7.723 5.76 13.44 5.76 2.475 0 4.565-.085 6.272-.256 1.792-.256 3.243-.512 4.352-.768V69.8c-1.365-.939-3.2-1.792-5.504-2.56-2.219-.853-4.608-1.28-7.168-1.28-5.632 0-9.77 1.92-12.416 5.76-2.56 3.84-3.84 9.045-3.84 15.616Zm44.416 31.616c-3.072.939-6.955 1.792-11.648 2.56-4.608.768-9.472 1.152-14.592 1.152-5.29 0-10.027-.811-14.208-2.432-4.181-1.621-7.765-3.925-10.752-6.912-2.901-3.072-5.163-6.741-6.784-11.008-1.536-4.352-2.304-9.216-2.304-14.592 0-5.29.64-10.07 1.92-14.336 1.365-4.352 3.328-8.064 5.888-11.136a25.326 25.326 0 0 1 9.344-7.04c3.67-1.707 7.893-2.56 12.672-2.56 3.243 0 6.101.384 8.576 1.152 2.475.768 4.608 1.621 6.4 2.56V24.232l15.488-2.56v97.28Zm35.29 2.048H86.234V54.056h15.488V121Zm1.664-86.528c0 2.901-.939 5.205-2.816 6.912-1.877 1.707-4.096 2.56-6.656 2.56-2.645 0-4.907-.853-6.784-2.56-1.877-1.707-2.816-4.01-2.816-6.912 0-2.987.939-5.333 2.816-7.04 1.877-1.707 4.139-2.56 6.784-2.56 2.56 0 4.779.853 6.656 2.56 1.877 1.707 2.816 4.053 2.816 7.04ZM133.641 85.8c0 6.57 1.408 11.392 4.224 14.464 2.901 2.987 6.613 4.48 11.136 4.48 2.475 0 4.779-.341 6.912-1.024 2.219-.683 4.011-1.493 5.376-2.432V66.6c-1.109-.256-2.475-.47-4.096-.64-1.621-.256-3.669-.384-6.144-.384-5.632 0-9.941 1.877-12.928 5.632-2.987 3.67-4.48 8.533-4.48 14.592Zm43.136 28.416c0 10.667-2.731 18.475-8.192 23.424-5.376 4.949-13.653 7.424-24.832 7.424a70.06 70.06 0 0 1-12.032-1.024c-3.84-.683-7.339-1.579-10.496-2.688l2.816-13.184c2.645 1.109 5.632 2.005 8.96 2.688 3.413.683 7.083 1.024 11.008 1.024 6.229 0 10.667-1.28 13.312-3.84 2.645-2.56 3.968-6.357 3.968-11.392v-2.56c-1.536.768-3.584 1.536-6.144 2.304-2.475.768-5.333 1.152-8.576 1.152-4.267 0-8.192-.683-11.776-2.048-3.499-1.365-6.528-3.371-9.088-6.016-2.475-2.645-4.437-5.931-5.888-9.856-1.365-4.01-2.048-8.619-2.048-13.824 0-4.864.725-9.344 2.176-13.44 1.536-4.096 3.712-7.595 6.528-10.496 2.901-2.901 6.4-5.163 10.496-6.784 4.096-1.621 8.747-2.432 13.952-2.432 5.035 0 9.813.384 14.336 1.152 4.523.768 8.363 1.579 11.52 2.432v57.984Zm35.32 6.784h-15.488V54.056h15.488V121Zm1.664-86.528c0 2.901-.939 5.205-2.816 6.912-1.877 1.707-4.096 2.56-6.656 2.56-2.645 0-4.907-.853-6.784-2.56-1.877-1.707-2.816-4.01-2.816-6.912 0-2.987.939-5.333 2.816-7.04 1.877-1.707 4.139-2.56 6.784-2.56 2.56 0 4.779.853 6.656 2.56 1.877 1.707 2.816 4.053 2.816 7.04Zm17.327 1.92 15.488-2.56v20.224h23.808v12.928h-23.808v27.264c0 5.376.853 9.216 2.56 11.52 1.707 2.304 4.608 3.456 8.704 3.456 2.816 0 5.291-.299 7.424-.896 2.219-.597 3.968-1.152 5.248-1.664l2.56 12.288c-1.792.768-4.139 1.536-7.04 2.304-2.901.853-6.315 1.28-10.24 1.28-4.779 0-8.789-.64-12.032-1.92-3.157-1.28-5.675-3.115-7.552-5.504-1.877-2.475-3.2-5.419-3.968-8.832-.768-3.499-1.152-7.467-1.152-11.904V36.392Zm77.82 73.728c4.779 0 8.405-.256 10.88-.768V92.2c-.853-.256-2.091-.512-3.712-.768s-3.413-.384-5.376-.384c-1.707 0-3.456.128-5.248.384-1.707.256-3.285.725-4.736 1.408a8.514 8.514 0 0 0-3.328 2.944c-.853 1.195-1.28 2.73-1.28 4.608 0 3.669 1.152 6.229 3.456 7.68 2.304 1.365 5.419 2.048 9.344 2.048Zm-1.28-57.728c5.12 0 9.429.64 12.928 1.92 3.499 1.28 6.272 3.072 8.32 5.376 2.133 2.304 3.627 5.12 4.48 8.448.939 3.243 1.408 6.827 1.408 10.752v40.576c-2.389.512-6.016 1.109-10.88 1.792-4.779.768-10.197 1.152-16.256 1.152-4.011 0-7.68-.384-11.008-1.152-3.328-.768-6.187-2.005-8.576-3.712-2.304-1.707-4.139-3.925-5.504-6.656-1.28-2.731-1.92-6.101-1.92-10.112 0-3.84.725-7.083 2.176-9.728 1.536-2.645 3.584-4.779 6.144-6.4 2.56-1.707 5.504-2.901 8.832-3.584 3.413-.768 6.955-1.152 10.624-1.152 1.707 0 3.499.128 5.376.384 1.877.17 3.883.512 6.016 1.024v-2.56c0-1.792-.213-3.499-.64-5.12-.427-1.621-1.195-3.03-2.304-4.224-1.024-1.28-2.432-2.261-4.224-2.944-1.707-.683-3.883-1.024-6.528-1.024-3.584 0-6.869.256-9.856.768s-5.419 1.11-7.296 1.792l-1.92-12.544c1.963-.683 4.821-1.365 8.576-2.048 3.755-.683 7.765-1.024 12.032-1.024Zm69.399 69.888c-4.608-.085-8.448-.597-11.52-1.536-2.987-.939-5.376-2.261-7.168-3.968-1.792-1.792-3.072-3.968-3.84-6.528-.683-2.645-1.024-5.632-1.024-8.96V24.232l15.488-2.56v76.672c0 1.877.128 3.456.384 4.736.341 1.28.896 2.389 1.664 3.328.768.853 1.792 1.536 3.072 2.048 1.365.427 3.072.768 5.12 1.024l-2.176 12.8Z"/><path fill="#DD6B20" d="M434.003 108.136V121h-44.448V54.472h14.976v53.664h29.472ZM456.993 121h-14.304V70.504h14.304V121Zm1.344-65.088c0 2.624-.864 4.704-2.592 6.24-1.664 1.472-3.648 2.208-5.952 2.208s-4.32-.736-6.048-2.208c-1.664-1.536-2.496-3.616-2.496-6.24s.832-4.672 2.496-6.144c1.728-1.536 3.744-2.304 6.048-2.304s4.288.768 5.952 2.304c1.728 1.472 2.592 3.52 2.592 6.144Zm44.454 39.456c0-9.216-3.392-13.824-10.176-13.824-1.472 0-2.944.192-4.416.576-1.408.384-2.56.864-3.456 1.44v26.016c.704.128 1.6.256 2.688.384 1.088.064 2.272.096 3.552.096 3.904 0 6.848-1.344 8.832-4.032 1.984-2.688 2.976-6.24 2.976-10.656Zm14.592.384c0 4.032-.608 7.68-1.824 10.944-1.152 3.264-2.848 6.048-5.088 8.352-2.24 2.304-4.992 4.096-8.256 5.376-3.264 1.216-6.976 1.824-11.136 1.824-1.728 0-3.552-.096-5.472-.288a82.06 82.06 0 0 1-5.568-.576c-1.792-.256-3.52-.544-5.184-.864a71.377 71.377 0 0 1-4.416-1.152v-70.56l14.304-2.304v25.152a26.798 26.798 0 0 1 4.992-1.632c1.728-.384 3.584-.576 5.568-.576 3.584 0 6.752.64 9.504 1.92 2.752 1.216 5.056 2.976 6.912 5.28 1.856 2.304 3.264 5.088 4.224 8.352.96 3.2 1.44 6.784 1.44 10.752Zm41.425-12.576c-1.28-.32-2.784-.64-4.512-.96-1.728-.384-3.584-.576-5.568-.576-.896 0-1.984.096-3.264.288-1.216.128-2.144.288-2.784.48V121h-14.304V73.192c2.56-.896 5.568-1.728 9.024-2.496 3.52-.832 7.424-1.248 11.712-1.248.768 0 1.696.064 2.784.192 1.088.064 2.176.192 3.264.384 1.088.128 2.176.32 3.264.576 1.088.192 2.016.448 2.784.768l-2.4 11.808Zm28.427 27.84a80.86 80.86 0 0 0 4.032-.096c1.28-.064 2.304-.16 3.072-.288V99.784c-.576-.128-1.44-.256-2.592-.384a28.866 28.866 0 0 0-3.168-.192c-1.344 0-2.624.096-3.84.288-1.152.128-2.176.416-3.072.864-.896.448-1.6 1.056-2.112 1.824s-.768 1.728-.768 2.88c0 2.24.736 3.808 2.208 4.704 1.536.832 3.616 1.248 6.24 1.248Zm-1.152-41.856c4.224 0 7.744.48 10.56 1.44 2.816.96 5.056 2.336 6.72 4.128 1.728 1.792 2.944 3.968 3.648 6.528.704 2.56 1.056 5.408 1.056 8.544v29.76c-2.048.448-4.896.96-8.544 1.536-3.648.64-8.064.96-13.248.96-3.264 0-6.24-.288-8.928-.864-2.624-.576-4.896-1.504-6.816-2.784a13.32 13.32 0 0 1-4.416-5.184c-1.024-2.112-1.536-4.704-1.536-7.776 0-2.944.576-5.44 1.728-7.488 1.216-2.048 2.816-3.68 4.8-4.896 1.984-1.216 4.256-2.08 6.816-2.592a36.193 36.193 0 0 1 7.968-.864c1.856 0 3.488.096 4.896.288 1.472.128 2.656.32 3.552.576v-1.344c0-2.432-.736-4.384-2.208-5.856-1.472-1.472-4.032-2.208-7.68-2.208-2.432 0-4.832.192-7.2.576-2.368.32-4.416.8-6.144 1.44l-1.824-11.52a35.626 35.626 0 0 1 3.072-.768 36.51 36.51 0 0 1 4.128-.768 50.32 50.32 0 0 1 4.608-.576 43.516 43.516 0 0 1 4.992-.288Zm65.35 14.016c-1.28-.32-2.784-.64-4.512-.96-1.728-.384-3.584-.576-5.568-.576-.896 0-1.984.096-3.264.288-1.216.128-2.144.288-2.784.48V121h-14.304V73.192c2.56-.896 5.568-1.728 9.024-2.496 3.52-.832 7.424-1.248 11.712-1.248.768 0 1.696.064 2.784.192 1.088.064 2.176.192 3.264.384 1.088.128 2.176.32 3.264.576 1.088.192 2.016.448 2.784.768l-2.4 11.808Zm57.9-12.672c-2.88 9.728-5.888 18.848-9.024 27.36a329.228 329.228 0 0 1-10.272 24.768c-1.344 2.88-2.688 5.312-4.032 7.296-1.344 2.048-2.816 3.712-4.416 4.992a14.515 14.515 0 0 1-5.472 2.88c-1.984.64-4.32.96-7.008.96-2.24 0-4.32-.224-6.24-.672-1.856-.384-3.392-.832-4.608-1.344l2.496-11.424c1.472.512 2.784.864 3.936 1.056a22.18 22.18 0 0 0 3.648.288c2.56 0 4.512-.704 5.856-2.112 1.408-1.344 2.592-3.232 3.552-5.664-3.264-6.4-6.528-13.568-9.792-21.504-3.264-8-6.336-16.96-9.216-26.88h15.168c.64 2.496 1.376 5.216 2.208 8.16.896 2.88 1.824 5.824 2.784 8.832.96 2.944 1.92 5.824 2.88 8.64a373.378 373.378 0 0 0 2.88 7.68 211.999 211.999 0 0 0 2.592-7.68 276.53 276.53 0 0 0 2.592-8.64 317.714 317.714 0 0 0 2.496-8.832 348.034 348.034 0 0 0 2.208-8.16h14.784Z"/><path fill="#A4A2A2" d="M21.068 188a9.24 9.24 0 0 0-1.112-2.314 7.15 7.15 0 0 0-1.624-1.764 6.796 6.796 0 0 0-2.122-1.112c-.792-.256-1.662-.384-2.608-.384-1.55 0-2.961.401-4.231 1.202-1.27.801-2.28 1.981-3.03 3.541-.75 1.56-1.125 3.473-1.125 5.74 0 2.267.38 4.18 1.138 5.74.758 1.56 1.785 2.74 3.08 3.541 1.296.801 2.754 1.202 4.373 1.202 1.5 0 2.82-.32 3.963-.959a6.79 6.79 0 0 0 2.684-2.736c.648-1.184.972-2.578.972-4.18l.972.205h-7.875v-2.813h9.971v2.813c0 2.156-.46 4.031-1.38 5.625a9.543 9.543 0 0 1-3.785 3.707c-1.602.869-3.443 1.304-5.522 1.304-2.318 0-4.355-.546-6.111-1.636-1.747-1.091-3.11-2.642-4.09-4.654-.972-2.011-1.458-4.398-1.458-7.159 0-2.071.277-3.933.83-5.587.563-1.661 1.356-3.076 2.379-4.244a10.417 10.417 0 0 1 3.63-2.685c1.398-.622 2.936-.933 4.615-.933 1.381 0 2.668.209 3.861.627 1.202.409 2.271.993 3.209 1.751a9.962 9.962 0 0 1 2.365 2.698A10.267 10.267 0 0 1 24.34 188h-3.273Zm16.68 18.409c-1.892 0-3.524-.418-4.896-1.253-1.364-.844-2.416-2.02-3.158-3.528-.733-1.517-1.1-3.281-1.1-5.293 0-2.011.367-3.784 1.1-5.318.742-1.543 1.773-2.744 3.094-3.605 1.33-.869 2.88-1.304 4.653-1.304 1.023 0 2.033.17 3.03.511a7.508 7.508 0 0 1 2.723 1.662c.818.759 1.47 1.764 1.956 3.017s.729 2.796.729 4.628v1.279H30.743v-2.608H42.81c0-1.108-.222-2.097-.665-2.966a5.009 5.009 0 0 0-1.867-2.059c-.8-.502-1.747-.754-2.838-.754-1.201 0-2.241.298-3.119.895a5.885 5.885 0 0 0-2.007 2.301 6.76 6.76 0 0 0-.703 3.043v1.738c0 1.483.256 2.741.767 3.772.52 1.022 1.24 1.802 2.16 2.339.92.529 1.99.793 3.21.793.792 0 1.508-.111 2.147-.333a4.604 4.604 0 0 0 1.675-1.022c.468-.46.83-1.032 1.086-1.713l2.915.818a6.46 6.46 0 0 1-1.547 2.608c-.724.741-1.62 1.321-2.684 1.738-1.066.41-2.263.614-3.593.614Zm12.72-.409v-19.636h2.915v2.966h.205c.358-.972 1.005-1.76 1.943-2.366.937-.605 1.994-.907 3.17-.907.222 0 .499.004.831.013.333.008.584.021.755.038v3.068a9.198 9.198 0 0 0-.703-.115 6.885 6.885 0 0 0-1.138-.089c-.955 0-1.807.2-2.557.6a4.533 4.533 0 0 0-1.764 1.637c-.426.69-.64 1.478-.64 2.365V206h-3.017Zm21.03.409c-1.892 0-3.524-.418-4.896-1.253-1.364-.844-2.416-2.02-3.158-3.528-.733-1.517-1.1-3.281-1.1-5.293 0-2.011.367-3.784 1.1-5.318.742-1.543 1.773-2.744 3.094-3.605 1.33-.869 2.88-1.304 4.653-1.304 1.023 0 2.033.17 3.03.511a7.508 7.508 0 0 1 2.723 1.662c.818.759 1.47 1.764 1.956 3.017s.729 2.796.729 4.628v1.279H64.493v-2.608H76.56c0-1.108-.222-2.097-.665-2.966a5.009 5.009 0 0 0-1.867-2.059c-.8-.502-1.747-.754-2.838-.754-1.201 0-2.241.298-3.119.895a5.885 5.885 0 0 0-2.007 2.301 6.76 6.76 0 0 0-.703 3.043v1.738c0 1.483.256 2.741.767 3.772.52 1.022 1.24 1.802 2.16 2.339.92.529 1.99.793 3.21.793.792 0 1.508-.111 2.147-.333a4.604 4.604 0 0 0 1.675-1.022c.468-.46.83-1.032 1.086-1.713l2.915.818a6.46 6.46 0 0 1-1.547 2.608c-.724.741-1.62 1.321-2.684 1.738-1.066.41-2.263.614-3.593.614Zm15.737-12.221V206h-3.017v-19.636h2.915v3.068h.256a5.616 5.616 0 0 1 2.096-2.404c.938-.613 2.148-.92 3.631-.92 1.33 0 2.493.273 3.49.818.997.537 1.773 1.355 2.327 2.455.554 1.091.83 2.471.83 4.142V206h-3.016v-12.273c0-1.542-.4-2.744-1.202-3.605-.801-.869-1.9-1.304-3.298-1.304-.963 0-1.824.209-2.583.627-.75.417-1.342 1.027-1.777 1.828-.434.801-.652 1.772-.652 2.915Zm26.019 12.221c-1.841 0-3.426-.435-4.755-1.304-1.33-.869-2.353-2.067-3.069-3.592-.716-1.526-1.073-3.269-1.073-5.229 0-1.994.366-3.754 1.099-5.28.741-1.534 1.773-2.731 3.094-3.592 1.329-.869 2.88-1.304 4.653-1.304 1.381 0 2.625.256 3.733.767s2.016 1.227 2.723 2.148c.707.92 1.146 1.994 1.317 3.221h-3.017c-.23-.895-.742-1.687-1.534-2.378-.784-.698-1.841-1.048-3.171-1.048-1.176 0-2.207.307-3.093.921-.878.605-1.564 1.461-2.059 2.569-.486 1.1-.728 2.391-.728 3.874 0 1.517.238 2.838.715 3.963.486 1.125 1.168 1.998 2.046 2.621.886.622 1.926.933 3.119.933.784 0 1.496-.137 2.135-.409a4.412 4.412 0 0 0 1.624-1.176 4.52 4.52 0 0 0 .946-1.841h3.017a6.988 6.988 0 0 1-1.266 3.132c-.665.92-1.547 1.653-2.646 2.199-1.091.537-2.361.805-3.81.805Zm12.132-.409v-19.636h3.017V206h-3.017Zm1.534-22.909c-.588 0-1.095-.2-1.521-.601a1.933 1.933 0 0 1-.626-1.445c0-.562.209-1.044.626-1.444a2.143 2.143 0 0 1 1.521-.601 2.1 2.1 0 0 1 1.509.601c.426.4.639.882.639 1.444 0 .563-.213 1.044-.639 1.445a2.1 2.1 0 0 1-1.509.601Zm12.788 23.369c-1.245 0-2.374-.234-3.388-.703-1.014-.477-1.82-1.163-2.416-2.058-.597-.904-.895-1.994-.895-3.273 0-1.125.221-2.037.665-2.736a4.694 4.694 0 0 1 1.777-1.662 9.345 9.345 0 0 1 2.454-.894 29.647 29.647 0 0 1 2.723-.486c1.193-.154 2.161-.269 2.902-.345.75-.086 1.296-.226 1.637-.422.349-.196.524-.537.524-1.023v-.102c0-1.262-.345-2.242-1.036-2.941-.682-.699-1.717-1.048-3.106-1.048-1.441 0-2.57.315-3.388.946-.818.631-1.394 1.304-1.726 2.02l-2.864-1.023c.512-1.193 1.194-2.122 2.046-2.787a7.668 7.668 0 0 1 2.812-1.406 11.67 11.67 0 0 1 3.017-.409c.631 0 1.355.077 2.174.23a6.965 6.965 0 0 1 2.39.908c.776.46 1.419 1.155 1.931 2.084.511.929.767 2.173.767 3.732V206h-3.017v-2.659h-.154c-.204.426-.545.882-1.022 1.368-.478.486-1.113.899-1.905 1.24-.793.341-1.76.511-2.902.511Zm.46-2.71c1.193 0 2.199-.234 3.017-.703.827-.469 1.449-1.074 1.866-1.815.427-.742.64-1.522.64-2.34v-2.761c-.128.153-.409.294-.844.422-.426.119-.921.225-1.483.319-.554.085-1.095.162-1.624.23-.519.06-.941.111-1.265.154a11.52 11.52 0 0 0-2.199.498c-.673.222-1.219.558-1.636 1.01-.41.443-.614 1.048-.614 1.816 0 1.048.388 1.84 1.163 2.377.784.529 1.777.793 2.979.793Zm14.046 2.25v-19.636h2.915v3.068h.256c.409-1.048 1.07-1.862 1.981-2.442.912-.588 2.008-.882 3.286-.882 1.295 0 2.374.294 3.234.882.87.58 1.547 1.394 2.033 2.442h.205c.502-1.014 1.257-1.82 2.262-2.416 1.006-.605 2.212-.908 3.618-.908 1.756 0 3.192.55 4.308 1.649 1.117 1.091 1.675 2.791 1.675 5.101V206h-3.017v-13.142c0-1.449-.396-2.484-1.189-3.107-.792-.622-1.726-.933-2.799-.933-1.381 0-2.451.418-3.209 1.253-.759.827-1.138 1.875-1.138 3.145V206h-3.068v-13.449c0-1.116-.362-2.015-1.087-2.697-.724-.691-1.658-1.036-2.8-1.036-.784 0-1.517.209-2.198.627-.674.417-1.219.997-1.637 1.738-.409.733-.613 1.581-.613 2.544V206h-3.018Zm39.523.409c-1.893 0-3.525-.418-4.897-1.253-1.363-.844-2.416-2.02-3.157-3.528-.733-1.517-1.1-3.281-1.1-5.293 0-2.011.367-3.784 1.1-5.318.741-1.543 1.772-2.744 3.093-3.605 1.33-.869 2.881-1.304 4.654-1.304 1.022 0 2.032.17 3.03.511.997.341 1.904.895 2.723 1.662.818.759 1.47 1.764 1.955 3.017.486 1.253.729 2.796.729 4.628v1.279h-15.136v-2.608h12.068c0-1.108-.222-2.097-.665-2.966a5.007 5.007 0 0 0-1.866-2.059c-.801-.502-1.747-.754-2.838-.754-1.202 0-2.242.298-3.12.895a5.89 5.89 0 0 0-2.007 2.301 6.77 6.77 0 0 0-.703 3.043v1.738c0 1.483.256 2.741.767 3.772.52 1.022 1.24 1.802 2.161 2.339.92.529 1.99.793 3.209.793.792 0 1.508-.111 2.147-.333a4.605 4.605 0 0 0 1.675-1.022c.469-.46.831-1.032 1.087-1.713l2.914.818a6.445 6.445 0 0 1-1.547 2.608c-.724.741-1.619 1.321-2.684 1.738-1.066.41-2.263.614-3.592.614Zm15.737-12.221V206h-3.017v-19.636h2.914v3.068h.256a5.611 5.611 0 0 1 2.097-2.404c.937-.613 2.147-.92 3.63-.92 1.33 0 2.493.273 3.49.818.998.537 1.773 1.355 2.327 2.455.554 1.091.831 2.471.831 4.142V206h-3.017v-12.273c0-1.542-.4-2.744-1.202-3.605-.801-.869-1.9-1.304-3.298-1.304-.963 0-1.824.209-2.582.627-.75.417-1.343 1.027-1.777 1.828-.435.801-.652 1.772-.652 2.915Zm26.581-7.824v2.556h-10.176v-2.556h10.176Zm-7.21-4.705h3.017v18.716c0 .852.123 1.491.371 1.918.255.417.579.698.971.843.401.137.823.205 1.266.205.332 0 .605-.017.818-.051l.511-.102.614 2.71c-.205.076-.49.153-.857.23-.366.085-.831.128-1.393.128a6.082 6.082 0 0 1-2.506-.55 4.987 4.987 0 0 1-2.02-1.675c-.528-.75-.792-1.696-.792-2.838v-19.534Zm19.515 24.75c-1.773 0-3.328-.422-4.666-1.266-1.33-.843-2.37-2.024-3.12-3.541-.741-1.517-1.112-3.29-1.112-5.318 0-2.045.371-3.831 1.112-5.356.75-1.526 1.79-2.711 3.12-3.554 1.338-.844 2.893-1.266 4.666-1.266 1.772 0 3.324.422 4.653 1.266 1.338.843 2.378 2.028 3.119 3.554.75 1.525 1.125 3.311 1.125 5.356 0 2.028-.375 3.801-1.125 5.318-.741 1.517-1.781 2.698-3.119 3.541-1.329.844-2.881 1.266-4.653 1.266Zm0-2.71c1.346 0 2.454-.345 3.324-1.036.869-.69 1.512-1.598 1.93-2.723.418-1.125.626-2.343.626-3.656 0-1.312-.208-2.535-.626-3.669-.418-1.133-1.061-2.05-1.93-2.749-.87-.698-1.978-1.048-3.324-1.048-1.347 0-2.455.35-3.324 1.048-.869.699-1.513 1.616-1.931 2.749-.417 1.134-.626 2.357-.626 3.669 0 1.313.209 2.531.626 3.656.418 1.125 1.062 2.033 1.931 2.723.869.691 1.977 1.036 3.324 1.036Zm31.043 2.71c-1.637 0-3.081-.413-4.334-1.24-1.253-.835-2.233-2.011-2.94-3.528-.708-1.526-1.062-3.329-1.062-5.408 0-2.063.354-3.852 1.062-5.369.707-1.517 1.691-2.689 2.953-3.516 1.261-.827 2.718-1.24 4.372-1.24 1.278 0 2.288.213 3.03.639.75.418 1.321.895 1.713 1.432.4.528.711.963.933 1.304h.256v-9.665h3.017V206h-2.915v-3.017h-.358c-.222.358-.537.81-.946 1.355-.409.537-.993 1.019-1.751 1.445-.759.417-1.769.626-3.03.626Zm.409-2.71c1.21 0 2.233-.315 3.068-.946.835-.639 1.47-1.521 1.905-2.646.434-1.134.652-2.442.652-3.925 0-1.466-.213-2.749-.639-3.848-.427-1.108-1.057-1.969-1.892-2.583-.836-.622-1.867-.933-3.094-.933-1.279 0-2.344.328-3.196.985-.844.647-1.479 1.529-1.905 2.646-.418 1.108-.626 2.352-.626 3.733 0 1.398.213 2.667.639 3.809.434 1.134 1.074 2.037 1.917 2.711.853.664 1.909.997 3.171.997Zm22.768 2.71c-1.892 0-3.524-.418-4.896-1.253-1.364-.844-2.416-2.02-3.158-3.528-.733-1.517-1.099-3.281-1.099-5.293 0-2.011.366-3.784 1.099-5.318.742-1.543 1.773-2.744 3.094-3.605 1.33-.869 2.881-1.304 4.653-1.304 1.023 0 2.033.17 3.03.511a7.509 7.509 0 0 1 2.723 1.662c.818.759 1.47 1.764 1.956 3.017s.729 2.796.729 4.628v1.279h-15.136v-2.608h12.068c0-1.108-.222-2.097-.665-2.966a5.014 5.014 0 0 0-1.866-2.059c-.802-.502-1.748-.754-2.839-.754-1.201 0-2.241.298-3.119.895a5.89 5.89 0 0 0-2.007 2.301 6.756 6.756 0 0 0-.703 3.043v1.738c0 1.483.256 2.741.767 3.772.52 1.022 1.24 1.802 2.16 2.339.921.529 1.991.793 3.209.793.793 0 1.509-.111 2.148-.333a4.605 4.605 0 0 0 1.675-1.022 4.65 4.65 0 0 0 1.086-1.713l2.915.818a6.456 6.456 0 0 1-1.547 2.608c-.724.741-1.619 1.321-2.684 1.738-1.066.41-2.263.614-3.593.614Zm23.255-.409v-26.182h3.017v9.665h.255c.222-.341.529-.776.921-1.304.4-.537.971-1.014 1.713-1.432.75-.426 1.764-.639 3.042-.639 1.654 0 3.111.413 4.373 1.24 1.261.827 2.245 1.999 2.953 3.516.707 1.517 1.061 3.306 1.061 5.369 0 2.079-.354 3.882-1.061 5.408-.708 1.517-1.688 2.693-2.941 3.528-1.253.827-2.697 1.24-4.333 1.24-1.262 0-2.272-.209-3.03-.626-.759-.426-1.343-.908-1.752-1.445a19.403 19.403 0 0 1-.946-1.355h-.358V206h-2.914Zm2.965-9.818c0 1.483.218 2.791.652 3.925.435 1.125 1.07 2.007 1.905 2.646.835.631 1.858.946 3.068.946 1.262 0 2.314-.333 3.158-.997.852-.674 1.492-1.577 1.918-2.711.434-1.142.652-2.411.652-3.809 0-1.381-.213-2.625-.64-3.733-.417-1.117-1.052-1.999-1.904-2.646-.844-.657-1.905-.985-3.184-.985-1.227 0-2.258.311-3.093.933-.836.614-1.466 1.475-1.892 2.583-.427 1.099-.64 2.382-.64 3.848ZM347.785 206v-19.636h3.017V206h-3.017Zm1.534-22.909c-.588 0-1.095-.2-1.521-.601a1.93 1.93 0 0 1-.627-1.445c0-.562.209-1.044.627-1.444a2.143 2.143 0 0 1 1.521-.601c.588 0 1.091.2 1.508.601.427.4.64.882.64 1.444 0 .563-.213 1.044-.64 1.445-.417.401-.92.601-1.508.601ZM356.737 206v-26.182h3.017v9.665h.256c.221-.341.528-.776.92-1.304.401-.537.972-1.014 1.713-1.432.75-.426 1.764-.639 3.043-.639 1.653 0 3.111.413 4.372 1.24 1.261.827 2.246 1.999 2.953 3.516.707 1.517 1.061 3.306 1.061 5.369 0 2.079-.354 3.882-1.061 5.408-.707 1.517-1.687 2.693-2.94 3.528-1.253.827-2.698 1.24-4.334 1.24-1.262 0-2.271-.209-3.03-.626-.758-.426-1.342-.908-1.751-1.445a19.065 19.065 0 0 1-.946-1.355h-.358V206h-2.915Zm2.966-9.818c0 1.483.217 2.791.652 3.925.434 1.125 1.069 2.007 1.905 2.646.835.631 1.858.946 3.068.946 1.261 0 2.314-.333 3.157-.997.853-.674 1.492-1.577 1.918-2.711.435-1.142.652-2.411.652-3.809 0-1.381-.213-2.625-.639-3.733-.418-1.117-1.053-1.999-1.905-2.646-.844-.657-1.905-.985-3.183-.985-1.228 0-2.259.311-3.094.933-.835.614-1.466 1.475-1.892 2.583-.426 1.099-.639 2.382-.639 3.848Zm22.001-16.364V206h-3.017v-26.182h3.017ZM387.23 206v-19.636h3.017V206h-3.017Zm1.534-22.909c-.588 0-1.095-.2-1.521-.601a1.93 1.93 0 0 1-.627-1.445c0-.562.209-1.044.627-1.444a2.143 2.143 0 0 1 1.521-.601c.588 0 1.091.2 1.509.601.426.4.639.882.639 1.444 0 .563-.213 1.044-.639 1.445a2.101 2.101 0 0 1-1.509.601Zm14.986 23.318c-1.772 0-3.328-.422-4.666-1.266-1.329-.843-2.369-2.024-3.119-3.541-.742-1.517-1.112-3.29-1.112-5.318 0-2.045.37-3.831 1.112-5.356.75-1.526 1.79-2.711 3.119-3.554 1.338-.844 2.894-1.266 4.666-1.266 1.773 0 3.324.422 4.654 1.266 1.338.843 2.378 2.028 3.119 3.554.75 1.525 1.125 3.311 1.125 5.356 0 2.028-.375 3.801-1.125 5.318-.741 1.517-1.781 2.698-3.119 3.541-1.33.844-2.881 1.266-4.654 1.266Zm0-2.71c1.347 0 2.455-.345 3.324-1.036.87-.69 1.513-1.598 1.931-2.723.417-1.125.626-2.343.626-3.656 0-1.312-.209-2.535-.626-3.669-.418-1.133-1.061-2.05-1.931-2.749-.869-.698-1.977-1.048-3.324-1.048-1.346 0-2.454.35-3.324 1.048-.869.699-1.512 1.616-1.93 2.749-.418 1.134-.626 2.357-.626 3.669 0 1.313.208 2.531.626 3.656.418 1.125 1.061 2.033 1.93 2.723.87.691 1.978 1.036 3.324 1.036Zm22.043-17.335v2.556h-10.176v-2.556h10.176Zm-7.21-4.705h3.017v18.716c0 .852.124 1.491.371 1.918.256.417.579.698.971.843.401.137.823.205 1.266.205.332 0 .605-.017.818-.051l.512-.102.613 2.71c-.204.076-.49.153-.856.23-.367.085-.831.128-1.394.128a6.078 6.078 0 0 1-2.505-.55 4.98 4.98 0 0 1-2.02-1.675c-.529-.75-.793-1.696-.793-2.838v-19.534Zm19.771 24.75c-1.892 0-3.524-.418-4.897-1.253-1.363-.844-2.416-2.02-3.157-3.528-.733-1.517-1.1-3.281-1.1-5.293 0-2.011.367-3.784 1.1-5.318.741-1.543 1.772-2.744 3.093-3.605 1.33-.869 2.881-1.304 4.654-1.304 1.023 0 2.033.17 3.03.511a7.509 7.509 0 0 1 2.723 1.662c.818.759 1.47 1.764 1.956 3.017.485 1.253.728 2.796.728 4.628v1.279h-15.136v-2.608h12.068c0-1.108-.221-2.097-.665-2.966a5 5 0 0 0-1.866-2.059c-.801-.502-1.747-.754-2.838-.754-1.202 0-2.242.298-3.119.895a5.885 5.885 0 0 0-2.008 2.301 6.77 6.77 0 0 0-.703 3.043v1.738c0 1.483.256 2.741.767 3.772.52 1.022 1.24 1.802 2.161 2.339.92.529 1.99.793 3.209.793.792 0 1.508-.111 2.147-.333a4.605 4.605 0 0 0 1.675-1.022c.469-.46.831-1.032 1.087-1.713l2.915.818a6.468 6.468 0 0 1-1.547 2.608c-.725.741-1.62 1.321-2.685 1.738-1.065.41-2.263.614-3.592.614Zm20.697 0c-1.841 0-3.426-.435-4.756-1.304-1.329-.869-2.352-2.067-3.068-3.592-.716-1.526-1.074-3.269-1.074-5.229 0-1.994.367-3.754 1.1-5.28.741-1.534 1.773-2.731 3.094-3.592 1.329-.869 2.88-1.304 4.653-1.304 1.381 0 2.625.256 3.733.767s2.016 1.227 2.723 2.148c.707.92 1.146 1.994 1.317 3.221h-3.017c-.23-.895-.742-1.687-1.534-2.378-.784-.698-1.841-1.048-3.171-1.048-1.176 0-2.207.307-3.094.921-.877.605-1.564 1.461-2.058 2.569-.486 1.1-.729 2.391-.729 3.874 0 1.517.239 2.838.716 3.963.486 1.125 1.168 1.998 2.046 2.621.886.622 1.926.933 3.119.933.784 0 1.496-.137 2.135-.409a4.42 4.42 0 0 0 1.624-1.176 4.52 4.52 0 0 0 .946-1.841h3.017a7 7 0 0 1-1.266 3.132c-.665.92-1.547 1.653-2.646 2.199-1.091.537-2.361.805-3.81.805Zm17.911.051c-1.245 0-2.374-.234-3.388-.703-1.014-.477-1.82-1.163-2.416-2.058-.597-.904-.895-1.994-.895-3.273 0-1.125.221-2.037.665-2.736a4.694 4.694 0 0 1 1.777-1.662 9.345 9.345 0 0 1 2.454-.894 29.647 29.647 0 0 1 2.723-.486c1.193-.154 2.161-.269 2.902-.345.75-.086 1.296-.226 1.636-.422.35-.196.525-.537.525-1.023v-.102c0-1.262-.346-2.242-1.036-2.941-.682-.699-1.717-1.048-3.106-1.048-1.441 0-2.57.315-3.388.946-.818.631-1.394 1.304-1.726 2.02l-2.864-1.023c.512-1.193 1.193-2.122 2.046-2.787a7.668 7.668 0 0 1 2.812-1.406 11.67 11.67 0 0 1 3.017-.409c.631 0 1.355.077 2.174.23a6.965 6.965 0 0 1 2.39.908c.776.46 1.419 1.155 1.931 2.084.511.929.767 2.173.767 3.732V206h-3.017v-2.659h-.154c-.204.426-.545.882-1.023 1.368-.477.486-1.112.899-1.904 1.24-.793.341-1.76.511-2.902.511Zm.46-2.71c1.193 0 2.199-.234 3.017-.703.827-.469 1.449-1.074 1.866-1.815.427-.742.64-1.522.64-2.34v-2.761c-.128.153-.409.294-.844.422-.426.119-.921.225-1.483.319-.554.085-1.095.162-1.624.23-.52.06-.941.111-1.265.154a11.52 11.52 0 0 0-2.199.498c-.673.222-1.219.558-1.637 1.01-.409.443-.613 1.048-.613 1.816 0 1.048.388 1.84 1.163 2.377.784.529 1.777.793 2.979.793Z"/></svg>