<svg xmlns="http://www.w3.org/2000/svg" width="243" height="83" fill="none"><path fill="#171923" fill-opacity=".62" d="M6.88 27.48c0 2.133.507 3.813 1.52 5.04 1.013 1.2 2.413 1.8 4.2 1.8.773 0 1.427-.027 1.96-.08.56-.08 1.013-.16 1.36-.24V22c-.427-.293-1-.56-1.72-.8a6.186 6.186 0 0 0-2.24-.4c-1.76 0-3.053.6-3.88 1.8-.8 1.2-1.2 2.827-1.2 4.88Zm13.88 9.88c-.96.293-2.173.56-3.64.8-1.44.24-2.96.36-4.56.36-1.653 0-3.133-.253-4.44-.76-1.307-.507-2.427-1.227-3.36-2.16-.907-.96-1.613-2.107-2.12-3.44-.48-1.36-.72-2.88-.72-4.56 0-1.653.2-3.147.6-4.48.427-1.36 1.04-2.52 1.84-3.48a7.915 7.915 0 0 1 2.92-2.2c1.147-.533 2.467-.8 3.96-.8 1.013 0 1.907.12 2.68.36.773.24 1.44.507 2 .8V7.76l4.84-.8v30.4Zm11.028.64h-4.84V17.08h4.84V38Zm.52-27.04c0 .907-.293 1.627-.88 2.16a2.99 2.99 0 0 1-2.08.8c-.826 0-1.533-.267-2.12-.8-.587-.533-.88-1.253-.88-2.16 0-.933.294-1.667.88-2.2.587-.533 1.293-.8 2.12-.8.8 0 1.494.267 2.08.8.587.533.88 1.267.88 2.2ZM41.763 27c0 2.053.44 3.56 1.32 4.52.907.933 2.067 1.4 3.48 1.4.773 0 1.493-.107 2.16-.32.693-.213 1.253-.467 1.68-.76V21c-.347-.08-.773-.147-1.28-.2-.507-.08-1.147-.12-1.92-.12-1.76 0-3.107.587-4.04 1.76-.933 1.147-1.4 2.667-1.4 4.56Zm13.48 8.88c0 3.333-.854 5.773-2.56 7.32-1.68 1.547-4.267 2.32-7.76 2.32-1.28 0-2.534-.107-3.76-.32a20.983 20.983 0 0 1-3.28-.84l.88-4.12c.827.347 1.76.627 2.8.84 1.066.213 2.213.32 3.44.32 1.947 0 3.333-.4 4.16-1.2.827-.8 1.24-1.987 1.24-3.56v-.8c-.48.24-1.12.48-1.92.72-.773.24-1.667.36-2.68.36-1.334 0-2.56-.213-3.68-.64a7.897 7.897 0 0 1-2.84-1.88c-.773-.827-1.387-1.853-1.84-3.08-.427-1.253-.64-2.693-.64-4.32 0-1.52.227-2.92.68-4.2.48-1.28 1.16-2.373 2.04-3.28.906-.907 2-1.613 3.28-2.12 1.28-.507 2.733-.76 4.36-.76 1.573 0 3.067.12 4.48.36 1.413.24 2.613.493 3.6.76v18.12ZM66.28 38h-4.84V17.08h4.84V38Zm.52-27.04c0 .907-.293 1.627-.88 2.16a2.99 2.99 0 0 1-2.08.8c-.826 0-1.533-.267-2.12-.8-.586-.533-.88-1.253-.88-2.16 0-.933.294-1.667.88-2.2.587-.533 1.294-.8 2.12-.8.8 0 1.494.267 2.08.8.587.533.88 1.267.88 2.2Zm5.415.6 4.84-.8v6.32h7.44v4.04h-7.44v8.52c0 1.68.267 2.88.8 3.6.533.72 1.44 1.08 2.72 1.08.88 0 1.653-.093 2.32-.28a15.38 15.38 0 0 0 1.64-.52l.8 3.84c-.56.24-1.293.48-2.2.72-.907.267-1.973.4-3.2.4-1.493 0-2.747-.2-3.76-.6-.987-.4-1.773-.973-2.36-1.72-.587-.773-1-1.693-1.24-2.76-.24-1.093-.36-2.333-.36-3.72V11.56ZM96.534 34.6c1.493 0 2.626-.08 3.4-.24V29a9.42 9.42 0 0 0-1.16-.24 11.59 11.59 0 0 0-3.32 0 5.303 5.303 0 0 0-1.48.44 2.66 2.66 0 0 0-1.04.92c-.267.373-.4.853-.4 1.44 0 1.147.36 1.947 1.08 2.4.72.427 1.693.64 2.92.64Zm-.4-18.04c1.6 0 2.946.2 4.04.6 1.093.4 1.96.96 2.6 1.68.666.72 1.133 1.6 1.4 2.64.293 1.013.44 2.133.44 3.36v12.68c-.747.16-1.88.347-3.4.56-1.494.24-3.187.36-5.08.36-1.254 0-2.4-.12-3.44-.36s-1.934-.627-2.68-1.16a5.726 5.726 0 0 1-1.72-2.08c-.4-.853-.6-1.907-.6-3.16 0-1.2.226-2.213.68-3.04a5.748 5.748 0 0 1 1.92-2c.8-.533 1.72-.907 2.76-1.12a15.08 15.08 0 0 1 3.32-.36c.533 0 1.093.04 1.68.12.586.053 1.213.16 1.88.32v-.8a6.28 6.28 0 0 0-.2-1.6 3.049 3.049 0 0 0-.72-1.32c-.32-.4-.76-.707-1.32-.92-.534-.213-1.214-.32-2.04-.32-1.12 0-2.147.08-3.08.24-.934.16-1.694.347-2.28.56l-.6-3.92c.613-.213 1.506-.427 2.68-.64a21.019 21.019 0 0 1 3.76-.32ZM117.82 38.4c-1.44-.027-2.64-.187-3.6-.48-.933-.293-1.68-.707-2.24-1.24a4.77 4.77 0 0 1-1.2-2.04c-.213-.827-.32-1.76-.32-2.8V7.76l4.84-.8v23.96c0 .587.04 1.08.12 1.48.107.4.28.747.52 1.04.24.267.56.48.96.64.427.133.96.24 1.6.32l-.68 4Z"/><path fill="#DD6B20" d="M138.884 33.176V38h-16.668V13.052h5.616v20.124h11.052ZM147.505 38h-5.364V19.064h5.364V38Zm.504-24.408c0 .984-.324 1.764-.972 2.34-.624.552-1.368.828-2.232.828a3.39 3.39 0 0 1-2.268-.828c-.624-.576-.936-1.356-.936-2.34 0-.984.312-1.752.936-2.304a3.307 3.307 0 0 1 2.268-.864c.864 0 1.608.288 2.232.864.648.552.972 1.32.972 2.304Zm16.67 14.796c0-3.456-1.272-5.184-3.816-5.184-.552 0-1.104.072-1.656.216-.528.144-.96.324-1.296.54v9.756c.264.048.6.096 1.008.144.408.024.852.036 1.332.036 1.464 0 2.568-.504 3.312-1.512.744-1.008 1.116-2.34 1.116-3.996Zm5.472.144c0 1.512-.228 2.88-.684 4.104-.432 1.224-1.068 2.268-1.908 3.132-.84.864-1.872 1.536-3.096 2.016-1.224.456-2.616.684-4.176.684a20.66 20.66 0 0 1-2.052-.108 30.772 30.772 0 0 1-2.088-.216 41.012 41.012 0 0 1-1.944-.324 26.767 26.767 0 0 1-1.656-.432v-26.46l5.364-.864v9.432a10.05 10.05 0 0 1 1.872-.612 9.614 9.614 0 0 1 2.088-.216c1.344 0 2.532.24 3.564.72a6.813 6.813 0 0 1 2.592 1.98c.696.864 1.224 1.908 1.584 3.132.36 1.2.54 2.544.54 4.032Zm15.535-4.716c-.48-.12-1.044-.24-1.692-.36a9.614 9.614 0 0 0-2.088-.216 8.46 8.46 0 0 0-1.224.108c-.456.048-.804.108-1.044.18V38h-5.364V20.072c.96-.336 2.088-.648 3.384-.936 1.32-.312 2.784-.468 4.392-.468.288 0 .636.024 1.044.072.408.024.816.072 1.224.144.408.048.816.12 1.224.216a4.99 4.99 0 0 1 1.044.288l-.9 4.428Zm10.66 10.44c.528 0 1.032-.012 1.512-.036.48-.024.864-.06 1.152-.108v-4.068a9.903 9.903 0 0 0-.972-.144 10.825 10.825 0 0 0-1.188-.072 9.23 9.23 0 0 0-1.44.108 3.395 3.395 0 0 0-1.152.324c-.336.168-.6.396-.792.684-.192.288-.288.648-.288 1.08 0 .84.276 1.428.828 1.764.576.312 1.356.468 2.34.468Zm-.432-15.696c1.584 0 2.904.18 3.96.54 1.056.36 1.896.876 2.52 1.548.648.672 1.104 1.488 1.368 2.448s.396 2.028.396 3.204v11.16c-.768.168-1.836.36-3.204.576-1.368.24-3.024.36-4.968.36-1.224 0-2.34-.108-3.348-.324-.984-.216-1.836-.564-2.556-1.044a4.995 4.995 0 0 1-1.656-1.944c-.384-.792-.576-1.764-.576-2.916 0-1.104.216-2.04.648-2.808a5.276 5.276 0 0 1 1.8-1.836c.744-.456 1.596-.78 2.556-.972.96-.216 1.956-.324 2.988-.324.696 0 1.308.036 1.836.108.552.048.996.12 1.332.216v-.504c0-.912-.276-1.644-.828-2.196-.552-.552-1.512-.828-2.88-.828-.912 0-1.812.072-2.7.216-.888.12-1.656.3-2.304.54l-.684-4.32a13.36 13.36 0 0 1 1.152-.288c.48-.12.996-.216 1.548-.288a18.87 18.87 0 0 1 1.728-.216 16.319 16.319 0 0 1 1.872-.108Zm24.506 5.256c-.48-.12-1.044-.24-1.692-.36a9.614 9.614 0 0 0-2.088-.216 8.46 8.46 0 0 0-1.224.108c-.456.048-.804.108-1.044.18V38h-5.364V20.072c.96-.336 2.088-.648 3.384-.936 1.32-.312 2.784-.468 4.392-.468.288 0 .636.024 1.044.072.408.024.816.072 1.224.144.408.048.816.12 1.224.216a4.99 4.99 0 0 1 1.044.288l-.9 4.428Zm21.713-4.752a166.18 166.18 0 0 1-3.384 10.26 123.46 123.46 0 0 1-3.852 9.288c-.504 1.08-1.008 1.992-1.512 2.736-.504.768-1.056 1.392-1.656 1.872-.6.504-1.284.864-2.052 1.08-.744.24-1.62.36-2.628.36-.84 0-1.62-.084-2.34-.252-.696-.144-1.272-.312-1.728-.504l.936-4.284a9.148 9.148 0 0 0 1.476.396c.432.072.888.108 1.368.108.96 0 1.692-.264 2.196-.792.528-.504.972-1.212 1.332-2.124-1.224-2.4-2.448-5.088-3.672-8.064-1.224-3-2.376-6.36-3.456-10.08h5.688c.24.936.516 1.956.828 3.06.336 1.08.684 2.184 1.044 3.312.36 1.104.72 2.184 1.08 3.24.384 1.056.744 2.016 1.08 2.88a79.5 79.5 0 0 0 .972-2.88c.336-1.056.66-2.136.972-3.24.336-1.128.648-2.232.936-3.312.312-1.104.588-2.124.828-3.06h5.544Z"/><path fill="#A4A2A2" d="M9.364 71a4.105 4.105 0 0 0-.495-1.028 3.174 3.174 0 0 0-.721-.784 3.028 3.028 0 0 0-.943-.495 3.757 3.757 0 0 0-1.16-.17c-.689 0-1.316.178-1.88.534-.565.356-1.013.88-1.347 1.574-.333.693-.5 1.543-.5 2.55 0 1.008.169 1.859.506 2.552.337.693.793 1.218 1.37 1.574a3.619 3.619 0 0 0 1.942.534c.667 0 1.254-.142 1.762-.426a3.023 3.023 0 0 0 1.193-1.216c.288-.527.432-1.146.432-1.858l.432.09h-3.5v-1.25h4.431v1.25c0 .96-.204 1.793-.613 2.5A4.238 4.238 0 0 1 8.59 78.58c-.712.387-1.53.58-2.455.58-1.03 0-1.935-.242-2.716-.727-.776-.485-1.382-1.174-1.818-2.068-.432-.894-.647-1.955-.647-3.182 0-.92.123-1.748.369-2.483.25-.739.602-1.368 1.057-1.886a4.622 4.622 0 0 1 1.613-1.194 4.988 4.988 0 0 1 2.051-.415c.614 0 1.186.093 1.716.279.534.182 1.01.441 1.426.778.421.334.771.733 1.052 1.2.28.461.473.975.58 1.539H9.363Zm7.413 8.182c-.84 0-1.566-.186-2.176-.557a3.737 3.737 0 0 1-1.404-1.568c-.325-.674-.488-1.459-.488-2.353 0-.893.163-1.681.488-2.363.33-.686.788-1.22 1.375-1.602.591-.387 1.28-.58 2.069-.58.454 0 .903.076 1.346.227.443.152.847.398 1.21.739.364.337.654.784.87 1.34.216.558.324 1.243.324 2.058v.568h-6.728v-1.16h5.364c0-.492-.099-.931-.296-1.317a2.226 2.226 0 0 0-.829-.915c-.356-.224-.777-.335-1.261-.335-.534 0-.997.132-1.387.397a2.615 2.615 0 0 0-.892 1.023c-.208.42-.312.871-.312 1.352v.773c0 .66.113 1.218.34 1.676.232.455.552.801.96 1.04.41.235.885.352 1.427.352.352 0 .67-.049.954-.148.288-.102.536-.253.745-.454.208-.204.37-.458.483-.761l1.295.363a2.87 2.87 0 0 1-.687 1.16c-.322.329-.72.587-1.193.772a4.426 4.426 0 0 1-1.597.273ZM22.43 79v-8.727h1.296v1.318h.09c.16-.432.448-.782.864-1.051a2.542 2.542 0 0 1 1.41-.404c.098 0 .221.002.369.006s.26.01.335.017v1.364a3.999 3.999 0 0 0-.313-.051 3.076 3.076 0 0 0-.505-.04c-.424 0-.803.089-1.136.267-.33.174-.591.416-.785.727a1.96 1.96 0 0 0-.284 1.051V79h-1.34Zm9.347.182c-.84 0-1.566-.186-2.176-.557a3.737 3.737 0 0 1-1.404-1.568c-.325-.674-.488-1.459-.488-2.353 0-.893.163-1.681.488-2.363.33-.686.788-1.22 1.375-1.602.591-.387 1.28-.58 2.069-.58.454 0 .903.076 1.346.227.443.152.847.398 1.21.739.364.337.654.784.87 1.34.216.558.324 1.243.324 2.058v.568h-6.728v-1.16h5.364c0-.492-.099-.931-.296-1.317a2.226 2.226 0 0 0-.829-.915c-.356-.224-.776-.335-1.261-.335-.534 0-.997.132-1.387.397a2.615 2.615 0 0 0-.892 1.023c-.208.42-.312.871-.312 1.352v.773c0 .66.113 1.218.34 1.676.232.455.552.801.96 1.04.41.235.885.352 1.427.352.352 0 .67-.049.954-.148.288-.102.536-.253.745-.454.208-.204.37-.458.483-.761l1.295.363a2.87 2.87 0 0 1-.687 1.16c-.322.329-.72.587-1.193.772a4.426 4.426 0 0 1-1.597.273Zm6.994-5.432V79h-1.34v-8.727h1.295v1.363h.114c.204-.443.515-.799.931-1.068.417-.272.955-.409 1.614-.409.59 0 1.108.121 1.551.364.443.238.788.602 1.034 1.09.246.486.37 1.1.37 1.841V79h-1.341v-5.454c0-.686-.178-1.22-.535-1.603-.356-.386-.844-.58-1.465-.58-.428 0-.811.093-1.148.279a1.993 1.993 0 0 0-.79.813c-.193.356-.29.787-.29 1.295Zm11.564 5.432c-.818 0-1.523-.193-2.113-.58a3.777 3.777 0 0 1-1.364-1.596c-.318-.678-.477-1.453-.477-2.324 0-.886.163-1.669.488-2.347.33-.682.788-1.214 1.375-1.596.591-.387 1.28-.58 2.069-.58.613 0 1.166.114 1.659.341a3.19 3.19 0 0 1 1.21.954c.314.41.51.887.585 1.432h-1.34c-.103-.397-.33-.75-.683-1.056-.348-.311-.818-.466-1.409-.466-.523 0-.98.136-1.375.409-.39.269-.695.65-.915 1.142-.215.488-.323 1.062-.323 1.721 0 .675.106 1.262.318 1.762.216.5.519.888.909 1.165.394.276.856.414 1.386.414.349 0 .665-.06.95-.181.283-.122.524-.296.72-.523.198-.227.338-.5.421-.819h1.341c-.076.516-.263.98-.563 1.393a3.142 3.142 0 0 1-1.176.977c-.484.239-1.049.358-1.693.358ZM55.727 79v-8.727h1.341V79h-1.34Zm.682-10.182a.953.953 0 0 1-.676-.267.858.858 0 0 1-.278-.642c0-.25.092-.464.278-.642a.953.953 0 0 1 .676-.267c.261 0 .485.089.67.267a.85.85 0 0 1 .285.642.85.85 0 0 1-.284.642.933.933 0 0 1-.67.267Zm5.683 10.386a3.546 3.546 0 0 1-1.505-.312 2.584 2.584 0 0 1-1.074-.915c-.265-.401-.398-.886-.398-1.454 0-.5.099-.906.295-1.216.198-.315.46-.56.79-.739a4.15 4.15 0 0 1 1.091-.397c.402-.092.805-.163 1.21-.217.53-.068.96-.119 1.29-.153.334-.038.576-.1.728-.187.155-.088.232-.239.232-.455v-.045c0-.561-.153-.997-.46-1.307-.303-.31-.763-.466-1.38-.466-.64 0-1.142.14-1.506.42-.364.28-.62.58-.767.898l-1.273-.455c.227-.53.53-.943.91-1.238.382-.3.798-.508 1.25-.625a5.191 5.191 0 0 1 1.34-.182c.28 0 .602.034.966.102a3.09 3.09 0 0 1 1.063.404c.344.204.63.513.857.926.228.413.341.966.341 1.659V79h-1.34v-1.182h-.069a2.36 2.36 0 0 1-.454.608c-.212.216-.495.4-.847.551-.352.152-.782.227-1.29.227ZM62.297 78c.53 0 .977-.104 1.34-.313a2.127 2.127 0 0 0 1.114-1.846v-1.227c-.056.068-.181.13-.375.187-.189.053-.409.1-.659.142a29.81 29.81 0 0 1-1.284.17 5.19 5.19 0 0 0-.977.222 1.67 1.67 0 0 0-.727.45c-.182.196-.273.465-.273.806 0 .466.172.818.517 1.057.349.235.79.352 1.324.352Zm6.243 1v-8.727h1.295v1.363h.114a2.2 2.2 0 0 1 .88-1.085c.406-.261.893-.392 1.46-.392.576 0 1.056.13 1.438.392.387.258.688.62.904 1.085h.09c.224-.45.56-.808 1.006-1.073.447-.27.983-.404 1.608-.404.78 0 1.419.244 1.915.733.496.485.744 1.24.744 2.267V79h-1.34v-5.84c0-.645-.177-1.105-.529-1.382a1.956 1.956 0 0 0-1.244-.414c-.614 0-1.09.185-1.427.556-.337.368-.505.834-.505 1.398V79h-1.364v-5.977c0-.496-.16-.896-.483-1.2-.322-.306-.737-.46-1.244-.46-.349 0-.674.093-.977.279-.3.186-.542.443-.728.773a2.281 2.281 0 0 0-.272 1.13V79H68.54Zm17.565.182c-.84 0-1.566-.186-2.176-.557a3.737 3.737 0 0 1-1.403-1.568c-.326-.674-.49-1.459-.49-2.353 0-.893.164-1.681.49-2.363.33-.686.787-1.22 1.375-1.602.59-.387 1.28-.58 2.068-.58.454 0 .903.076 1.346.227a3.33 3.33 0 0 1 1.21.739c.364.337.654.784.87 1.34.216.558.324 1.243.324 2.058v.568h-6.727v-1.16h5.363c0-.492-.098-.931-.295-1.317a2.226 2.226 0 0 0-.83-.915c-.356-.224-.776-.335-1.261-.335-.534 0-.996.132-1.387.397a2.616 2.616 0 0 0-.892 1.023c-.208.42-.312.871-.312 1.352v.773c0 .66.114 1.218.34 1.676.232.455.552.801.961 1.04.41.235.884.352 1.426.352.352 0 .67-.049.955-.148.287-.102.536-.253.744-.454.208-.204.37-.458.483-.761l1.295.363a2.87 2.87 0 0 1-.687 1.16c-.322.329-.72.587-1.193.772a4.426 4.426 0 0 1-1.597.273ZM93.1 73.75V79h-1.34v-8.727h1.295v1.363h.114c.204-.443.515-.799.931-1.068.417-.272.955-.409 1.614-.409.591 0 1.108.121 1.551.364.443.238.788.602 1.034 1.09.246.486.37 1.1.37 1.841V79h-1.341v-5.454c0-.686-.178-1.22-.534-1.603-.356-.386-.845-.58-1.466-.58-.428 0-.81.093-1.148.279a1.993 1.993 0 0 0-.79.813c-.193.356-.29.787-.29 1.295Zm11.814-3.477v1.136h-4.522v-1.136h4.522Zm-3.204-2.091h1.341V76.5c0 .379.055.663.164.852.114.186.258.31.432.375.178.06.366.091.563.091.148 0 .269-.007.363-.022l.228-.046.272 1.204c-.09.035-.217.069-.38.103-.163.038-.37.057-.62.057-.378 0-.75-.082-1.113-.245a2.215 2.215 0 0 1-.898-.744c-.235-.333-.352-.754-.352-1.261v-8.682Zm8.673 11c-.788 0-1.479-.188-2.074-.563-.591-.375-1.053-.9-1.386-1.573-.33-.675-.494-1.463-.494-2.364 0-.91.164-1.703.494-2.38.333-.679.795-1.205 1.386-1.58.595-.375 1.286-.563 2.074-.563.788 0 1.477.188 2.068.563.595.375 1.057.901 1.387 1.58.333.677.5 1.47.5 2.38 0 .901-.167 1.69-.5 2.364a3.77 3.77 0 0 1-1.387 1.573c-.591.375-1.28.563-2.068.563Zm0-1.205c.599 0 1.091-.153 1.477-.46.387-.307.673-.71.858-1.21.186-.5.279-1.042.279-1.625 0-.584-.093-1.127-.279-1.63a2.74 2.74 0 0 0-.858-1.223c-.386-.31-.878-.465-1.477-.465-.598 0-1.091.155-1.477.465a2.74 2.74 0 0 0-.858 1.222 4.672 4.672 0 0 0-.279 1.63c0 .584.093 1.126.279 1.626.185.5.471.903.858 1.21.386.307.879.46 1.477.46Zm13.797 1.205c-.727 0-1.369-.184-1.926-.551-.557-.371-.993-.894-1.307-1.569-.314-.677-.472-1.479-.472-2.403 0-.917.158-1.712.472-2.386.314-.674.752-1.195 1.313-1.563.56-.367 1.208-.55 1.943-.55.568 0 1.017.094 1.346.283.334.186.587.398.762.636.178.235.316.429.414.58h.114v-4.295h1.341V79h-1.295v-1.34h-.16a8.522 8.522 0 0 1-.42.601c-.182.239-.441.453-.778.642-.338.186-.786.279-1.347.279Zm.182-1.205c.538 0 .992-.14 1.363-.42.372-.284.654-.676.847-1.176.193-.504.29-1.085.29-1.745 0-.651-.095-1.221-.284-1.71-.19-.492-.47-.875-.841-1.148-.371-.276-.83-.414-1.375-.414-.568 0-1.042.145-1.421.437-.375.288-.657.68-.846 1.176a4.666 4.666 0 0 0-.279 1.66c0 .62.095 1.185.284 1.692.194.504.478.906.853 1.205.378.295.848.443 1.409.443Zm10.119 1.205c-.841 0-1.566-.186-2.176-.557a3.733 3.733 0 0 1-1.403-1.568c-.326-.674-.489-1.459-.489-2.353 0-.893.163-1.681.489-2.363.329-.686.787-1.22 1.375-1.602.59-.387 1.28-.58 2.068-.58.454 0 .903.076 1.346.227.444.152.847.398 1.211.739.363.337.653.784.869 1.34.216.558.324 1.243.324 2.058v.568h-6.728v-1.16h5.364c0-.492-.098-.931-.295-1.317a2.232 2.232 0 0 0-.83-.915c-.356-.224-.776-.335-1.261-.335-.534 0-.996.132-1.387.397a2.623 2.623 0 0 0-.892 1.023c-.208.42-.312.871-.312 1.352v.773c0 .66.113 1.218.341 1.676.231.455.551.801.96 1.04.409.235.884.352 1.426.352.352 0 .671-.049.955-.148a2.03 2.03 0 0 0 .744-.454c.208-.204.369-.458.483-.761l1.295.363a2.87 2.87 0 0 1-.687 1.16c-.322.329-.72.587-1.193.772a4.43 4.43 0 0 1-1.597.273ZM144.815 79V67.364h1.341v4.295h.114c.098-.151.235-.345.409-.58.178-.238.432-.45.761-.636.334-.19.784-.284 1.353-.284.734 0 1.382.184 1.943.551.56.368.998.889 1.312 1.563.315.674.472 1.47.472 2.386 0 .924-.157 1.725-.472 2.403-.314.675-.75 1.198-1.307 1.569-.556.367-1.198.55-1.926.55-.56 0-1.009-.092-1.346-.278-.337-.189-.597-.403-.779-.642a8.7 8.7 0 0 1-.42-.602h-.159V79h-1.296Zm1.319-4.364c0 .66.096 1.24.289 1.745.193.5.476.892.847 1.176.371.28.826.42 1.364.42.56 0 1.028-.148 1.403-.443.379-.3.663-.7.852-1.205a4.73 4.73 0 0 0 .29-1.693 4.6 4.6 0 0 0-.284-1.659c-.186-.496-.468-.888-.847-1.176-.375-.291-.846-.437-1.414-.437-.546 0-1.004.138-1.375.414-.372.273-.652.656-.841 1.148-.19.489-.284 1.059-.284 1.71ZM154.571 79v-8.727h1.341V79h-1.341Zm.682-10.182a.951.951 0 0 1-.676-.267.857.857 0 0 1-.279-.642c0-.25.093-.464.279-.642a.951.951 0 0 1 .676-.267c.261 0 .485.089.67.267.19.178.284.392.284.642s-.094.464-.284.642a.932.932 0 0 1-.67.267ZM158.55 79V67.364h1.341v4.295h.113c.099-.151.235-.345.409-.58.178-.238.432-.45.762-.636.333-.19.784-.284 1.352-.284.735 0 1.383.184 1.943.551.561.368.998.889 1.313 1.563.314.674.471 1.47.471 2.386 0 .924-.157 1.725-.471 2.403-.315.675-.75 1.198-1.307 1.569-.557.367-1.199.55-1.926.55-.561 0-1.01-.092-1.347-.278-.337-.189-.596-.403-.778-.642a8.77 8.77 0 0 1-.421-.602h-.159V79h-1.295Zm1.318-4.364c0 .66.096 1.24.29 1.745.193.5.475.892.846 1.176.371.28.826.42 1.364.42.561 0 1.028-.148 1.403-.443.379-.3.663-.7.853-1.205a4.73 4.73 0 0 0 .289-1.693c0-.613-.094-1.166-.284-1.659-.185-.496-.468-.888-.846-1.176-.375-.291-.847-.437-1.415-.437-.546 0-1.004.138-1.375.414-.371.273-.652.656-.841 1.148-.189.489-.284 1.059-.284 1.71Zm9.778-7.272V79h-1.341V67.364h1.341ZM172.102 79v-8.727h1.341V79h-1.341Zm.682-10.182a.953.953 0 0 1-.676-.267.856.856 0 0 1-.278-.642c0-.25.092-.464.278-.642a.953.953 0 0 1 .676-.267c.261 0 .485.089.671.267a.851.851 0 0 1 .284.642c0 .25-.095.464-.284.642a.936.936 0 0 1-.671.267Zm6.661 10.364c-.788 0-1.48-.188-2.074-.563-.591-.375-1.053-.9-1.387-1.573-.329-.675-.494-1.463-.494-2.364 0-.91.165-1.703.494-2.38.334-.679.796-1.205 1.387-1.58.594-.375 1.286-.563 2.074-.563.787 0 1.477.188 2.068.563.594.375 1.057.901 1.386 1.58.333.677.5 1.47.5 2.38 0 .901-.167 1.69-.5 2.364a3.77 3.77 0 0 1-1.386 1.573c-.591.375-1.281.563-2.068.563Zm0-1.205c.598 0 1.091-.153 1.477-.46a2.72 2.72 0 0 0 .858-1.21c.185-.5.278-1.042.278-1.625 0-.584-.093-1.127-.278-1.63a2.755 2.755 0 0 0-.858-1.223c-.386-.31-.879-.465-1.477-.465-.599 0-1.091.155-1.478.465a2.757 2.757 0 0 0-.858 1.222 4.695 4.695 0 0 0-.278 1.63c0 .584.093 1.126.278 1.626.186.5.472.903.858 1.21.387.307.879.46 1.478.46Zm9.796-7.704v1.136h-4.522v-1.136h4.522Zm-3.204-2.091h1.341V76.5c0 .379.055.663.165.852a.85.85 0 0 0 .431.375c.178.06.366.091.563.091.148 0 .269-.007.364-.022l.227-.046.273 1.204a2.733 2.733 0 0 1-.381.103 2.8 2.8 0 0 1-.619.057 2.7 2.7 0 0 1-1.114-.245 2.215 2.215 0 0 1-.898-.744c-.235-.333-.352-.754-.352-1.261v-8.682Zm8.787 11c-.841 0-1.566-.186-2.176-.557a3.742 3.742 0 0 1-1.404-1.568c-.325-.674-.488-1.459-.488-2.353 0-.893.163-1.681.488-2.363.33-.686.788-1.22 1.375-1.602.591-.387 1.281-.58 2.069-.58.454 0 .903.076 1.346.227.443.152.847.398 1.21.739.364.337.654.784.87 1.34.216.558.324 1.243.324 2.058v.568h-6.728v-1.16h5.364c0-.492-.099-.931-.296-1.317a2.223 2.223 0 0 0-.829-.915c-.356-.224-.777-.335-1.261-.335-.535 0-.997.132-1.387.397a2.615 2.615 0 0 0-.892 1.023c-.208.42-.312.871-.312 1.352v.773c0 .66.113 1.218.341 1.676.231.455.551.801.96 1.04.409.235.884.352 1.426.352.352 0 .67-.049.954-.148.288-.102.536-.253.745-.454.208-.204.369-.458.483-.761l1.295.363a2.87 2.87 0 0 1-.687 1.16 3.35 3.35 0 0 1-1.194.772 4.42 4.42 0 0 1-1.596.273Zm9.199 0c-.818 0-1.523-.193-2.114-.58a3.783 3.783 0 0 1-1.364-1.596c-.318-.678-.477-1.453-.477-2.324 0-.886.163-1.669.489-2.347.329-.682.788-1.214 1.375-1.596.591-.387 1.28-.58 2.068-.58a3.91 3.91 0 0 1 1.659.341 3.17 3.17 0 0 1 1.21.954c.315.41.51.887.586 1.432h-1.341c-.103-.397-.33-.75-.682-1.056-.349-.311-.818-.466-1.409-.466-.523 0-.981.136-1.375.409-.39.269-.695.65-.915 1.142-.216.488-.324 1.062-.324 1.721 0 .675.106 1.262.318 1.762.216.5.519.888.909 1.165.394.276.856.414 1.387.414a2.4 2.4 0 0 0 .949-.181c.284-.122.524-.296.721-.523.197-.227.337-.5.421-.819h1.341c-.076.516-.264.98-.563 1.393a3.142 3.142 0 0 1-1.176.977c-.485.239-1.049.358-1.693.358Zm7.96.022a3.548 3.548 0 0 1-1.506-.312 2.594 2.594 0 0 1-1.074-.915c-.265-.401-.397-.886-.397-1.454 0-.5.098-.906.295-1.216.197-.315.46-.56.79-.739a4.14 4.14 0 0 1 1.091-.397c.401-.092.805-.163 1.21-.217.53-.068.96-.119 1.29-.153.333-.038.576-.1.727-.187.155-.088.233-.239.233-.455v-.045c0-.561-.153-.997-.46-1.307-.303-.31-.763-.466-1.381-.466-.64 0-1.142.14-1.506.42-.363.28-.619.58-.767.898l-1.272-.455c.227-.53.53-.943.909-1.238.382-.3.799-.508 1.25-.625a5.184 5.184 0 0 1 1.341-.182c.28 0 .602.034.966.102.367.065.721.2 1.062.404.345.204.631.513.858.926.227.413.341.966.341 1.659V79h-1.341v-1.182h-.068a2.36 2.36 0 0 1-.455.608c-.212.216-.494.4-.846.551-.353.152-.782.227-1.29.227Zm.205-1.204c.53 0 .977-.104 1.34-.313a2.128 2.128 0 0 0 1.114-1.846v-1.227c-.057.068-.182.13-.375.187a6.29 6.29 0 0 1-.659.142 29.629 29.629 0 0 1-1.284.17 5.12 5.12 0 0 0-.977.222 1.68 1.68 0 0 0-.728.45c-.181.196-.272.465-.272.806 0 .466.172.818.517 1.057.348.235.789.352 1.324.352Z"/></svg>