<svg width="153" height="25" fill="none" xmlns="http://www.w3.org/2000/svg"><path d="M12.12.708v16.176c0 .72.12 1.256.36 1.608.24.336.664.504 1.272.504v.504a15.439 15.439 0 0 0-1.488-.072c-.592 0-1.152.024-1.68.072a8.475 8.475 0 0 0-1.488.264V3.588c0-.72-.12-1.248-.36-1.584-.224-.352-.648-.528-1.272-.528V.972c.512.048 1.008.072 1.488.072.608 0 1.176-.024 1.704-.072A12.004 12.004 0 0 0 12.12.708ZM6.384 6.756c.704 0 1.336.136 1.896.408.56.272.976.728 1.248 1.368l-.288.24c-.224-.464-.528-.808-.912-1.032a2.524 2.524 0 0 0-1.296-.336c-.864 0-1.56.488-2.088 1.464-.512.96-.768 2.44-.768 4.44 0 1.344.104 2.432.312 3.264.208.816.504 1.408.888 1.776.4.368.872.552 1.416.552.576 0 1.096-.232 1.56-.696.464-.48.736-1.16.816-2.04l.168.672c-.208.976-.6 1.72-1.176 2.232-.576.512-1.336.768-2.28.768-.96 0-1.816-.232-2.568-.696-.736-.48-1.312-1.2-1.728-2.16-.4-.976-.6-2.208-.6-3.696 0-1.456.24-2.664.72-3.624.48-.976 1.128-1.704 1.944-2.184.816-.48 1.728-.72 2.736-.72ZM17.804.972c.575 0 1.047.16 1.415.48.368.32.552.744.552 1.272s-.184.952-.552 1.272c-.368.32-.84.48-1.416.48s-1.048-.16-1.416-.48c-.368-.32-.552-.744-.552-1.272s.184-.952.552-1.272c.368-.32.84-.48 1.416-.48Zm1.68 5.856v10.44c0 .672.12 1.128.36 1.368.255.24.68.36 1.271.36v.504a51.08 51.08 0 0 0-1.32-.048 33.346 33.346 0 0 0-3.6 0c-.608.016-1.064.032-1.368.048v-.504c.592 0 1.008-.12 1.248-.36.256-.24.384-.696.384-1.368V9.732c0-.736-.12-1.272-.36-1.608-.224-.352-.648-.528-1.272-.528v-.504c.512.048 1.008.072 1.488.072.592 0 1.152-.024 1.68-.072a11.88 11.88 0 0 0 1.488-.264Zm7.286 17.184c-.944 0-1.8-.088-2.568-.264-.768-.176-1.376-.44-1.824-.792-.448-.336-.672-.768-.672-1.296 0-.512.224-.968.672-1.368.448-.4 1.104-.704 1.968-.912l.168.384a1.773 1.773 0 0 0-.696.72c-.16.304-.24.624-.24.96 0 .688.312 1.216.936 1.584.64.384 1.488.576 2.544.576.72 0 1.384-.096 1.992-.288.608-.192 1.096-.488 1.464-.888.368-.4.552-.896.552-1.488 0-.496-.184-.912-.552-1.248-.352-.336-1.064-.504-2.136-.504h-1.584a6.524 6.524 0 0 1-1.632-.192c-.48-.128-.864-.336-1.152-.624-.288-.288-.432-.688-.432-1.2 0-.624.256-1.184.768-1.68.512-.512 1.312-1.008 2.4-1.488l.264.216c-.4.208-.76.432-1.08.672-.304.24-.456.544-.456.912 0 .512.352.768 1.056.768h2.712c.832 0 1.568.104 2.208.312.656.208 1.176.536 1.56.984.384.448.576 1.04.576 1.776 0 .768-.248 1.48-.744 2.136-.496.672-1.248 1.208-2.256 1.608-.992.416-2.264.624-3.816.624Zm.216-9.624c-.864 0-1.648-.128-2.352-.384-.688-.272-1.232-.688-1.632-1.248-.4-.576-.6-1.304-.6-2.184 0-.88.2-1.6.6-2.16.4-.56.944-.976 1.632-1.248.704-.272 1.488-.408 2.352-.408.88 0 1.664.136 2.352.408.688.272 1.232.688 1.632 1.248.4.56.6 1.28.6 2.16 0 .88-.2 1.608-.6 2.184-.4.56-.944.976-1.632 1.248-.688.256-1.472.384-2.352.384Zm0-.432c.48 0 .856-.24 1.128-.72.288-.496.432-1.384.432-2.664 0-1.28-.144-2.16-.432-2.64-.272-.496-.648-.744-1.128-.744-.48 0-.864.248-1.152.744-.272.48-.408 1.36-.408 2.64s.136 2.168.408 2.664c.288.48.672.72 1.152.72Zm3.624-5.16-.456-.168A3.42 3.42 0 0 1 31.33 7.14c.544-.416 1.12-.624 1.728-.624.464 0 .824.128 1.08.384.272.256.408.616.408 1.08 0 .48-.128.832-.384 1.056-.256.224-.536.336-.84.336-.272 0-.52-.088-.744-.264-.224-.192-.352-.48-.384-.864-.032-.4.096-.896.384-1.488l.24.096c-.624.24-1.088.504-1.392.792-.304.288-.576.672-.816 1.152ZM38.264.972c.576 0 1.048.16 1.416.48.368.32.552.744.552 1.272s-.184.952-.552 1.272c-.368.32-.84.48-1.416.48s-1.048-.16-1.416-.48c-.368-.32-.552-.744-.552-1.272s.184-.952.552-1.272c.368-.32.84-.48 1.416-.48Zm1.68 5.856v10.44c0 .672.12 1.128.36 1.368.256.24.68.36 1.272.36v.504a51.08 51.08 0 0 0-1.32-.048 33.346 33.346 0 0 0-3.6 0c-.608.016-1.064.032-1.368.048v-.504c.592 0 1.008-.12 1.248-.36.256-.24.384-.696.384-1.368V9.732c0-.736-.12-1.272-.36-1.608-.224-.352-.648-.528-1.272-.528v-.504c.512.048 1.008.072 1.488.072.592 0 1.152-.024 1.68-.072a11.88 11.88 0 0 0 1.488-.264Zm7.263-3.672v3.96h3.072v.48h-3.072v9.552c0 .576.104.984.312 1.224.208.24.504.36.888.36.368 0 .704-.136 1.008-.408.304-.288.576-.76.816-1.416l.432.192c-.24.784-.616 1.44-1.128 1.968-.496.512-1.2.768-2.112.768-.544 0-1.008-.072-1.392-.216a2.655 2.655 0 0 1-.96-.576 2.887 2.887 0 0 1-.72-1.32c-.112-.512-.168-1.192-.168-2.04V7.596H42.07v-.48h2.112V3.78a9.92 9.92 0 0 0 1.608-.168 6.103 6.103 0 0 0 1.416-.456Zm7.237 16.512c-.688 0-1.272-.128-1.752-.384a2.697 2.697 0 0 1-1.08-1.08 3.293 3.293 0 0 1-.36-1.536c0-.688.16-1.248.48-1.68.32-.448.728-.8 1.224-1.056a9.474 9.474 0 0 1 1.608-.672c.56-.192 1.088-.368 1.584-.528.496-.176.904-.376 1.224-.6.32-.224.48-.52.48-.888V9.492c0-.512-.08-.928-.24-1.248a1.46 1.46 0 0 0-.672-.744c-.288-.176-.656-.264-1.104-.264-.336 0-.688.048-1.056.144-.368.096-.672.28-.912.552.416.112.736.32.96.624.24.304.36.672.36 1.104 0 .496-.168.888-.504 1.176-.32.272-.728.408-1.224.408-.528 0-.928-.168-1.2-.504a1.814 1.814 0 0 1-.408-1.176c0-.448.112-.816.336-1.104.224-.304.536-.576.936-.816.4-.272.912-.488 1.536-.648a8.2 8.2 0 0 1 2.04-.24c.704 0 1.328.08 1.872.24a3.025 3.025 0 0 1 1.392.792c.384.368.632.824.744 1.368.112.544.168 1.208.168 1.992v6.576c0 .4.048.688.144.864.096.16.248.24.456.24.16 0 .312-.04.456-.12.144-.08.304-.192.48-.336l.264.408c-.352.272-.72.488-1.104.648-.384.16-.848.24-1.392.24-.56 0-1.008-.08-1.344-.24-.32-.16-.56-.392-.72-.696a2.753 2.753 0 0 1-.24-1.08c-.384.64-.856 1.136-1.416 1.488-.56.352-1.232.528-2.016.528Zm1.44-1.344c.384 0 .736-.104 1.056-.312.336-.208.64-.52.912-.936v-4.848a2.28 2.28 0 0 1-.696.648c-.288.192-.6.384-.936.576a6.48 6.48 0 0 0-.96.672c-.288.24-.536.544-.744.912-.192.352-.288.808-.288 1.368 0 .624.152 1.104.456 1.44.304.32.704.48 1.2.48ZM67.878.708v16.56c0 .672.12 1.128.36 1.368.256.24.68.36 1.272.36v.504a51.08 51.08 0 0 0-1.32-.048 32.027 32.027 0 0 0-1.776-.048c-.592 0-1.2.016-1.824.048-.608.016-1.064.032-1.368.048v-.504c.592 0 1.008-.12 1.248-.36.256-.24.384-.696.384-1.368V3.588c0-.72-.112-1.248-.336-1.584-.224-.352-.656-.528-1.296-.528V.972c.512.048 1.008.072 1.488.072.608 0 1.176-.024 1.704-.072a12.004 12.004 0 0 0 1.464-.264Z" fill="gray"/><path d="M77.952 2.508v.48c-.544.016-.96.08-1.248.192a.865.865 0 0 0-.552.576c-.096.272-.144.704-.144 1.296v12.096c0 .512.04.904.12 1.176a.79.79 0 0 0 .504.504c.24.08.584.12 1.032.12h1.368c.624 0 1.168-.112 1.632-.336.48-.224.896-.552 1.248-.984.352-.432.64-.96.864-1.584.224-.64.384-1.36.48-2.16h.552a23.736 23.736 0 0 0-.072 2.064c0 .352.008.856.024 1.512.032.656.08 1.336.144 2.04a71.104 71.104 0 0 0-2.76-.048 177.137 177.137 0 0 0-2.736-.024h-1.464c-.592 0-1.24.008-1.944.024-.688 0-1.392.008-2.112.024-.704 0-1.376.008-2.016.024v-.48c.528-.032.92-.096 1.176-.192a.801.801 0 0 0 .528-.576c.096-.288.144-.72.144-1.296V5.052c0-.592-.048-1.024-.144-1.296a.801.801 0 0 0-.528-.576c-.256-.112-.648-.176-1.176-.192v-.48c.4.016.912.032 1.536.048a78.947 78.947 0 0 0 3.96 0c.64-.016 1.168-.032 1.584-.048ZM88.069.972c.576 0 1.048.16 1.416.48.368.32.552.744.552 1.272s-.184.952-.552 1.272c-.368.32-.84.48-1.416.48s-1.048-.16-1.416-.48c-.368-.32-.552-.744-.552-1.272s.184-.952.552-1.272c.368-.32.84-.48 1.416-.48Zm1.68 5.856v10.44c0 .672.12 1.128.36 1.368.256.24.68.36 1.272.36v.504a51.08 51.08 0 0 0-1.32-.048 33.346 33.346 0 0 0-3.6 0c-.608.016-1.064.032-1.368.048v-.504c.592 0 1.008-.12 1.248-.36.256-.24.384-.696.384-1.368V9.732c0-.736-.12-1.272-.36-1.608-.224-.352-.648-.528-1.272-.528v-.504c.512.048 1.008.072 1.488.072.592 0 1.152-.024 1.68-.072a11.88 11.88 0 0 0 1.488-.264Zm10.599-.072c1.248 0 2.288.528 3.12 1.584.848 1.04 1.272 2.624 1.272 4.752 0 1.584-.248 2.88-.744 3.888-.496.992-1.16 1.72-1.992 2.184a5.63 5.63 0 0 1-2.712.672 4.803 4.803 0 0 1-1.992-.432c-.624-.304-1.128-.776-1.512-1.416h.408c.32.448.704.784 1.152 1.008.464.208.928.312 1.392.312.944 0 1.648-.488 2.112-1.464.464-.992.696-2.504.696-4.536 0-1.344-.096-2.424-.288-3.24-.176-.832-.44-1.432-.792-1.8a1.717 1.717 0 0 0-1.32-.576c-.624 0-1.2.264-1.728.792-.512.528-.808 1.28-.888 2.256l-.168-.672c.256-1.056.736-1.872 1.44-2.448.72-.576 1.568-.864 2.544-.864ZM96.628.708V18.78c-.336.016-.68.08-1.032.192-.352.096-.68.224-.984.384a3.11 3.11 0 0 0-.792.528l-.384-.192c.08-.224.128-.448.144-.672.016-.224.024-.456.024-.696V3.588c0-.72-.12-1.248-.36-1.584-.224-.352-.648-.528-1.272-.528V.972c.512.048 1.008.072 1.488.072.608 0 1.176-.024 1.704-.072a12.004 12.004 0 0 0 1.464-.264Zm17.691 6.048c.496 0 .904.104 1.224.312.336.208.584.472.744.792.16.32.24.656.24 1.008 0 .528-.16.968-.48 1.32-.304.352-.712.528-1.224.528-.48 0-.872-.128-1.176-.384-.304-.256-.456-.608-.456-1.056 0-.4.096-.736.288-1.008.208-.272.44-.488.696-.648a.943.943 0 0 0-.6-.096 2.008 2.008 0 0 0-1.056.408c-.32.24-.592.536-.816.888a4.84 4.84 0 0 0-.528 1.128 4.27 4.27 0 0 0-.168 1.152v5.928c0 .784.2 1.312.6 1.584.4.256.984.384 1.752.384v.504a83.94 83.94 0 0 0-1.608-.048 46.55 46.55 0 0 0-2.16-.048c-.624 0-1.248.016-1.872.048-.608.016-1.064.032-1.368.048v-.504c.592 0 1.008-.12 1.248-.36.256-.24.384-.696.384-1.368v-7.56c0-.72-.12-1.248-.36-1.584-.224-.352-.648-.528-1.272-.528v-.504c.512.048 1.008.072 1.488.072.592 0 1.152-.024 1.68-.072a11.88 11.88 0 0 0 1.488-.264v2.496a5.48 5.48 0 0 1 .744-1.248c.32-.384.696-.696 1.128-.936a2.855 2.855 0 0 1 1.44-.384Zm6.383 12.912c-.688 0-1.272-.128-1.752-.384a2.697 2.697 0 0 1-1.08-1.08 3.293 3.293 0 0 1-.36-1.536c0-.688.16-1.248.48-1.68.32-.448.728-.8 1.224-1.056a9.474 9.474 0 0 1 1.608-.672c.56-.192 1.088-.368 1.584-.528.496-.176.904-.376 1.224-.6.32-.224.48-.52.48-.888V9.492c0-.512-.08-.928-.24-1.248a1.46 1.46 0 0 0-.672-.744c-.288-.176-.656-.264-1.104-.264-.336 0-.688.048-1.056.144-.368.096-.672.28-.912.552.416.112.736.32.96.624.24.304.36.672.36 1.104 0 .496-.168.888-.504 1.176-.32.272-.728.408-1.224.408-.528 0-.928-.168-1.2-.504a1.814 1.814 0 0 1-.408-1.176c0-.448.112-.816.336-1.104.224-.304.536-.576.936-.816.4-.272.912-.488 1.536-.648a8.2 8.2 0 0 1 2.04-.24c.704 0 1.328.08 1.872.24a3.025 3.025 0 0 1 1.392.792c.384.368.632.824.744 1.368.112.544.168 1.208.168 1.992v6.576c0 .4.048.688.144.864.096.16.248.24.456.24.16 0 .312-.04.456-.12.144-.08.304-.192.48-.336l.264.408c-.352.272-.72.488-1.104.648-.384.16-.848.24-1.392.24-.56 0-1.008-.08-1.344-.24-.32-.16-.56-.392-.72-.696a2.753 2.753 0 0 1-.24-1.08c-.384.64-.856 1.136-1.416 1.488-.56.352-1.232.528-2.016.528Zm1.44-1.344c.384 0 .736-.104 1.056-.312.336-.208.64-.52.912-.936v-4.848a2.28 2.28 0 0 1-.696.648c-.288.192-.6.384-.936.576a6.48 6.48 0 0 0-.96.672c-.288.24-.536.544-.744.912-.192.352-.288.808-.288 1.368 0 .624.152 1.104.456 1.44.304.32.704.48 1.2.48Zm15.45-11.568c.496 0 .904.104 1.224.312.336.208.584.472.744.792.16.32.24.656.24 1.008 0 .528-.16.968-.48 1.32-.304.352-.712.528-1.224.528-.48 0-.872-.128-1.176-.384-.304-.256-.456-.608-.456-1.056 0-.4.096-.736.288-1.008.208-.272.44-.488.696-.648a.943.943 0 0 0-.6-.096 2.008 2.008 0 0 0-1.056.408c-.32.24-.592.536-.816.888a4.84 4.84 0 0 0-.528 1.128 4.27 4.27 0 0 0-.168 1.152v5.928c0 .784.2 1.312.6 1.584.4.256.984.384 1.752.384v.504a83.94 83.94 0 0 0-1.608-.048 46.55 46.55 0 0 0-2.16-.048c-.624 0-1.248.016-1.872.048-.608.016-1.064.032-1.368.048v-.504c.592 0 1.008-.12 1.248-.36.256-.24.384-.696.384-1.368v-7.56c0-.72-.12-1.248-.36-1.584-.224-.352-.648-.528-1.272-.528v-.504c.512.048 1.008.072 1.488.072.592 0 1.152-.024 1.68-.072a11.88 11.88 0 0 0 1.488-.264v2.496a5.48 5.48 0 0 1 .744-1.248c.32-.384.696-.696 1.128-.936a2.855 2.855 0 0 1 1.44-.384Zm14.568.336v.504c-.304.064-.592.232-.864.504-.256.272-.504.752-.744 1.44L147 19.284l-.744 1.128-4.944-11.472c-.304-.608-.592-.984-.864-1.128-.272-.144-.496-.216-.672-.216v-.504c.464.048.944.088 1.44.12.512.016 1.024.024 1.536.024.592 0 1.16-.016 1.704-.048.56-.032 1.08-.064 1.56-.096v.504c-.368 0-.696.024-.984.072-.288.048-.48.184-.576.408-.08.208-.016.576.192 1.104l3 7.32-.192.096 2.112-5.712c.272-.752.384-1.36.336-1.824-.048-.464-.224-.816-.528-1.056-.304-.24-.72-.376-1.248-.408v-.504l.768.048.744.048h.696c.336 0 .664-.008.984-.024.336-.016.616-.04.84-.072ZM147 19.284l-.912 2.424c-.144.4-.304.736-.48 1.008-.16.288-.344.52-.552.696-.24.208-.536.36-.888.456a4.103 4.103 0 0 1-1.128.144c-.368 0-.728-.064-1.08-.192a2.28 2.28 0 0 1-.864-.576c-.224-.256-.336-.592-.336-1.008 0-.448.152-.808.456-1.08.304-.272.72-.408 1.248-.408.464 0 .84.112 1.128.336.304.24.456.592.456 1.056 0 .304-.088.576-.264.816-.176.24-.424.424-.744.552.08.016.152.024.216.024.08.016.144.024.192.024.464 0 .88-.152 1.248-.456.368-.304.664-.784.888-1.44l.864-2.376H147Z" fill="#FA7921"/></svg>