<svg xmlns="http://www.w3.org/2000/svg" width="178" height="64" fill="none"><path fill="#D1D1D1" d="M5.504 21.584c0 1.707.405 3.05 1.216 4.032.81.96 1.93 1.44 3.36 1.44.619 0 1.141-.021 1.568-.064a13.6 13.6 0 0 0 1.088-.192v-9.6c-.341-.235-.8-.448-1.376-.64a4.95 4.95 0 0 0-1.792-.32c-1.408 0-2.443.48-3.104 1.44-.64.96-.96 2.261-.96 3.904Zm11.104 7.904c-.768.235-1.739.448-2.912.64a22.18 22.18 0 0 1-3.648.288c-1.323 0-2.507-.203-3.552-.608a7.668 7.668 0 0 1-2.688-1.728c-.725-.768-1.29-1.685-1.696-2.752-.384-1.088-.576-2.304-.576-3.648 0-1.323.16-2.517.48-3.584.341-1.088.832-2.016 1.472-2.784a6.331 6.331 0 0 1 2.336-1.76c.917-.427 1.973-.64 3.168-.64.81 0 1.525.096 2.144.288a9.589 9.589 0 0 1 1.6.64V5.808l3.872-.64v24.32ZM25.43 30h-3.872V13.264h3.872V30Zm.416-21.632c0 .725-.234 1.301-.704 1.728a2.387 2.387 0 0 1-1.663.64c-.662 0-1.227-.213-1.697-.64-.469-.427-.704-1.003-.704-1.728 0-.747.235-1.333.704-1.76.47-.427 1.035-.64 1.697-.64.64 0 1.194.213 1.663.64.47.427.704 1.013.704 1.76ZM33.41 21.2c0 1.643.352 2.848 1.056 3.616.726.747 1.654 1.12 2.784 1.12a5.64 5.64 0 0 0 1.728-.256c.555-.17 1.003-.373 1.344-.608V16.4a8.716 8.716 0 0 0-1.024-.16 10.139 10.139 0 0 0-1.536-.096c-1.408 0-2.485.47-3.232 1.408-.746.917-1.12 2.133-1.12 3.648Zm10.784 7.104c0 2.667-.682 4.619-2.048 5.856-1.344 1.237-3.413 1.856-6.208 1.856a17.52 17.52 0 0 1-3.008-.256c-.96-.17-1.834-.395-2.624-.672l.704-3.296a12.13 12.13 0 0 0 2.24.672c.854.17 1.77.256 2.752.256 1.558 0 2.667-.32 3.328-.96.662-.64.992-1.59.992-2.848v-.64c-.384.192-.896.384-1.536.576-.618.192-1.333.288-2.144.288-1.066 0-2.048-.17-2.944-.512a6.317 6.317 0 0 1-2.272-1.504c-.618-.661-1.11-1.483-1.472-2.464-.341-1.003-.512-2.155-.512-3.456 0-1.216.182-2.336.544-3.36.384-1.024.928-1.899 1.632-2.624.726-.725 1.6-1.29 2.624-1.696 1.024-.405 2.187-.608 3.488-.608 1.259 0 2.454.096 3.584.288 1.13.192 2.09.395 2.88.608v14.496ZM53.024 30h-3.872V13.264h3.872V30Zm.416-21.632c0 .725-.234 1.301-.704 1.728-.47.427-1.024.64-1.664.64-.661 0-1.226-.213-1.696-.64-.47-.427-.704-1.003-.704-1.728 0-.747.235-1.333.704-1.76.47-.427 1.035-.64 1.696-.64.64 0 1.195.213 1.664.64.47.427.704 1.013.704 1.76Zm4.332.48 3.872-.64v5.056h5.952v3.232h-5.952v6.816c0 1.344.213 2.304.64 2.88.427.576 1.152.864 2.176.864.704 0 1.323-.075 1.856-.224.555-.15.992-.288 1.312-.416l.64 3.072c-.448.192-1.035.384-1.76.576-.725.213-1.579.32-2.56.32-1.195 0-2.197-.16-3.008-.48-.79-.32-1.419-.779-1.888-1.376-.47-.619-.8-1.355-.992-2.208-.192-.875-.288-1.867-.288-2.976V8.848ZM77.227 27.28c1.195 0 2.101-.064 2.72-.192V22.8a7.533 7.533 0 0 0-.928-.192 9.273 9.273 0 0 0-2.656 0 4.241 4.241 0 0 0-1.184.352c-.341.17-.619.416-.832.736-.213.299-.32.683-.32 1.152 0 .917.288 1.557.864 1.92.576.341 1.355.512 2.336.512Zm-.32-14.432c1.28 0 2.357.16 3.232.48.875.32 1.568.768 2.08 1.344.533.576.907 1.28 1.12 2.112.235.81.352 1.707.352 2.688v10.144c-.597.128-1.504.277-2.72.448-1.195.192-2.55.288-4.064.288-1.003 0-1.92-.096-2.752-.288-.832-.192-1.547-.501-2.144-.928a4.58 4.58 0 0 1-1.376-1.664c-.32-.683-.48-1.525-.48-2.528 0-.96.181-1.77.544-2.432a4.598 4.598 0 0 1 1.536-1.6 6.171 6.171 0 0 1 2.208-.896 12.064 12.064 0 0 1 2.656-.288c.427 0 .875.032 1.344.096.47.043.97.128 1.504.256v-.64c0-.448-.053-.875-.16-1.28a2.44 2.44 0 0 0-.576-1.056c-.256-.32-.608-.565-1.056-.736-.427-.17-.97-.256-1.632-.256-.896 0-1.717.064-2.464.192-.747.128-1.355.277-1.824.448l-.48-3.136c.49-.17 1.205-.341 2.144-.512a16.81 16.81 0 0 1 3.008-.256Zm17.35 17.472c-1.152-.021-2.112-.15-2.88-.384-.747-.235-1.344-.565-1.792-.992a3.817 3.817 0 0 1-.96-1.632c-.17-.661-.256-1.408-.256-2.24V5.808l3.872-.64v19.168c0 .47.032.864.096 1.184.085.32.224.597.416.832.192.213.448.384.768.512a7.49 7.49 0 0 0 1.28.256l-.544 3.2Z"/><path fill="#DD6B20" d="M108.501 26.784V30H97.389V13.368h3.744v13.416h7.368ZM114.248 30h-3.576V17.376h3.576V30Zm.336-16.272c0 .656-.216 1.176-.648 1.56a2.17 2.17 0 0 1-1.488.552 2.26 2.26 0 0 1-1.512-.552c-.416-.384-.624-.904-.624-1.56s.208-1.168.624-1.536a2.205 2.205 0 0 1 1.512-.576c.576 0 1.072.192 1.488.576.432.368.648.88.648 1.536Zm11.114 9.864c0-2.304-.848-3.456-2.544-3.456-.368 0-.736.048-1.104.144a3.12 3.12 0 0 0-.864.36v6.504c.176.032.4.064.672.096.272.016.568.024.888.024.976 0 1.712-.336 2.208-1.008.496-.672.744-1.56.744-2.664Zm3.648.096c0 1.008-.152 1.92-.456 2.736a5.644 5.644 0 0 1-1.272 2.088c-.56.576-1.248 1.024-2.064 1.344-.816.304-1.744.456-2.784.456-.432 0-.888-.024-1.368-.072-.464-.032-.928-.08-1.392-.144-.448-.064-.88-.136-1.296-.216a17.844 17.844 0 0 1-1.104-.288v-17.64l3.576-.576v6.288a6.41 6.41 0 0 1 2.64-.552c.896 0 1.688.16 2.376.48a4.542 4.542 0 0 1 1.728 1.32c.464.576.816 1.272 1.056 2.088.24.8.36 1.696.36 2.688Zm10.356-3.144c-.32-.08-.696-.16-1.128-.24a6.41 6.41 0 0 0-1.392-.144 5.64 5.64 0 0 0-.816.072 4.05 4.05 0 0 0-.696.12V30h-3.576V18.048c.64-.224 1.392-.432 2.256-.624.88-.208 1.856-.312 2.928-.312.192 0 .424.016.696.048.272.016.544.048.816.096.272.032.544.08.816.144.272.048.504.112.696.192l-.6 2.952Zm7.107 6.96c.352 0 .688-.008 1.008-.024.32-.016.576-.04.768-.072v-2.712a6.602 6.602 0 0 0-.648-.096 7.216 7.216 0 0 0-.792-.048c-.336 0-.656.024-.96.072a2.263 2.263 0 0 0-.768.216c-.224.112-.4.264-.528.456s-.192.432-.192.72c0 .56.184.952.552 1.176.384.208.904.312 1.56.312Zm-.288-10.464c1.056 0 1.936.12 2.64.36.704.24 1.264.584 1.68 1.032.432.448.736.992.912 1.632a8.05 8.05 0 0 1 .264 2.136v7.44c-.512.112-1.224.24-2.136.384-.912.16-2.016.24-3.312.24-.816 0-1.56-.072-2.232-.216-.656-.144-1.224-.376-1.704-.696a3.33 3.33 0 0 1-1.104-1.296c-.256-.528-.384-1.176-.384-1.944 0-.736.144-1.36.432-1.872.304-.512.704-.92 1.2-1.224a5.172 5.172 0 0 1 1.704-.648 9.048 9.048 0 0 1 1.992-.216c.464 0 .872.024 1.224.072.368.032.664.08.888.144v-.336c0-.608-.184-1.096-.552-1.464-.368-.368-1.008-.552-1.92-.552-.608 0-1.208.048-1.8.144-.592.08-1.104.2-1.536.36l-.456-2.88c.208-.064.464-.128.768-.192.32-.08.664-.144 1.032-.192a12.58 12.58 0 0 1 1.152-.144c.416-.048.832-.072 1.248-.072Zm16.337 3.504c-.32-.08-.696-.16-1.128-.24a6.41 6.41 0 0 0-1.392-.144 5.64 5.64 0 0 0-.816.072 4.05 4.05 0 0 0-.696.12V30h-3.576V18.048c.64-.224 1.392-.432 2.256-.624.88-.208 1.856-.312 2.928-.312.192 0 .424.016.696.048.272.016.544.048.816.096.272.032.544.08.816.144.272.048.504.112.696.192l-.6 2.952Zm14.475-3.168a110.787 110.787 0 0 1-2.256 6.84 82.307 82.307 0 0 1-2.568 6.192c-.336.72-.672 1.328-1.008 1.824a5.306 5.306 0 0 1-1.104 1.248c-.4.336-.856.576-1.368.72-.496.16-1.08.24-1.752.24-.56 0-1.08-.056-1.56-.168a6.318 6.318 0 0 1-1.152-.336l.624-2.856c.368.128.696.216.984.264.288.048.592.072.912.072.64 0 1.128-.176 1.464-.528.352-.336.648-.808.888-1.416a72.977 72.977 0 0 1-2.448-5.376c-.816-2-1.584-4.24-2.304-6.72h3.792c.16.624.344 1.304.552 2.04.224.72.456 1.456.696 2.208.24.736.48 1.456.72 2.16.256.704.496 1.344.72 1.92a53 53 0 0 0 .648-1.92c.224-.704.44-1.424.648-2.16.224-.752.432-1.488.624-2.208.208-.736.392-1.416.552-2.04h3.696Z"/><path fill="#A4A2A2" d="M7.023 55a3.08 3.08 0 0 0-.371-.771 2.382 2.382 0 0 0-.541-.588 2.272 2.272 0 0 0-.708-.371 2.82 2.82 0 0 0-.869-.128 2.59 2.59 0 0 0-1.41.4c-.424.268-.76.661-1.01 1.181s-.375 1.158-.375 1.913c0 .756.126 1.394.379 1.914s.595.913 1.027 1.18c.432.267.917.4 1.457.4.5 0 .94-.106 1.321-.319.384-.216.682-.52.895-.912.216-.395.324-.86.324-1.393l.324.068H4.84v-.938h3.324v.938c0 .719-.154 1.344-.46 1.875a3.18 3.18 0 0 1-1.262 1.236c-.534.29-1.148.434-1.84.434-.773 0-1.452-.181-2.038-.545-.582-.364-1.037-.88-1.363-1.551-.324-.67-.486-1.466-.486-2.387 0-.69.092-1.31.277-1.862a4.126 4.126 0 0 1 .793-1.415c.34-.389.744-.687 1.21-.895a3.74 3.74 0 0 1 1.538-.31c.46 0 .89.069 1.287.208a3.455 3.455 0 0 1 1.858 1.483c.21.347.355.732.435 1.155h-1.09Zm5.56 6.136c-.63 0-1.175-.139-1.632-.417a2.803 2.803 0 0 1-1.053-1.176c-.244-.506-.366-1.094-.366-1.765 0-.67.122-1.261.366-1.772a2.89 2.89 0 0 1 1.031-1.202c.444-.29.96-.435 1.551-.435.341 0 .678.057 1.01.17.333.114.635.3.908.555.273.253.49.588.652 1.005.162.418.243.932.243 1.543v.426h-5.045v-.87h4.022c0-.368-.074-.698-.221-.988a1.67 1.67 0 0 0-.622-.686 1.743 1.743 0 0 0-.947-.251c-.4 0-.747.1-1.04.298-.29.196-.512.452-.668.767a2.253 2.253 0 0 0-.235 1.014v.58c0 .494.085.913.256 1.257.173.34.413.6.72.78.307.176.664.264 1.07.264a2.2 2.2 0 0 0 .716-.11c.216-.078.402-.191.558-.342.156-.153.277-.343.362-.57l.972.272c-.103.33-.275.62-.516.87-.241.246-.54.44-.895.579a3.318 3.318 0 0 1-1.197.204Zm4.24-.136v-6.545h.971v.988h.069c.119-.324.335-.587.647-.788a1.907 1.907 0 0 1 1.057-.303 10.862 10.862 0 0 1 .529.017v1.023a2.985 2.985 0 0 0-.235-.038c-.12-.02-.246-.03-.38-.03-.317 0-.601.067-.851.2a1.47 1.47 0 0 0-.801 1.334V61h-1.006Zm7.01.136c-.63 0-1.175-.139-1.632-.417a2.803 2.803 0 0 1-1.053-1.176c-.244-.506-.366-1.094-.366-1.765 0-.67.122-1.261.366-1.772a2.89 2.89 0 0 1 1.031-1.202c.444-.29.96-.435 1.552-.435.34 0 .677.057 1.01.17.332.114.634.3.907.555.273.253.49.588.652 1.005.162.418.243.932.243 1.543v.426h-5.046v-.87h4.023c0-.368-.074-.698-.221-.988a1.67 1.67 0 0 0-.622-.686 1.743 1.743 0 0 0-.947-.251c-.4 0-.747.1-1.04.298-.29.196-.512.452-.668.767a2.253 2.253 0 0 0-.235 1.014v.58c0 .494.085.913.256 1.257.173.34.413.6.72.78.307.176.663.264 1.07.264a2.2 2.2 0 0 0 .716-.11c.216-.078.402-.191.558-.342.156-.153.277-.343.362-.57l.972.272c-.103.33-.274.62-.516.87-.241.246-.54.44-.895.579a3.318 3.318 0 0 1-1.197.204Zm5.245-4.074V61h-1.005v-6.545h.971v1.022h.086c.153-.332.386-.6.698-.8.313-.205.716-.308 1.21-.308.444 0 .832.091 1.164.273.332.179.591.452.776.818.184.364.277.824.277 1.38V61h-1.006v-4.09c0-.515-.134-.916-.4-1.203-.268-.29-.634-.434-1.1-.434-.321 0-.608.07-.86.208-.25.14-.448.343-.593.61-.145.267-.218.59-.218.971Zm8.673 4.074c-.613 0-1.142-.145-1.585-.434a2.832 2.832 0 0 1-1.022-1.198c-.24-.508-.358-1.09-.358-1.743 0-.664.122-1.251.366-1.76.247-.51.59-.91 1.031-1.197.443-.29.96-.435 1.551-.435.46 0 .875.086 1.245.256.369.17.672.41.907.716.236.307.383.665.44 1.074H39.32a1.56 1.56 0 0 0-.512-.793c-.261-.233-.613-.35-1.057-.35a1.76 1.76 0 0 0-1.03.308 2 2 0 0 0-.687.856c-.162.367-.243.797-.243 1.291 0 .506.08.946.239 1.321.162.375.389.666.682.874.295.207.642.311 1.04.311.26 0 .498-.045.711-.136.213-.091.393-.222.541-.392.148-.17.253-.375.316-.614h1.005a2.33 2.33 0 0 1-1.304 1.777c-.363.179-.787.268-1.27.268ZM41.795 61v-6.545h1.006V61h-1.006Zm.512-7.636a.715.715 0 0 1-.507-.2.644.644 0 0 1-.21-.482c0-.188.07-.348.21-.482a.715.715 0 0 1 .507-.2.7.7 0 0 1 .503.2.637.637 0 0 1 .213.482.638.638 0 0 1-.213.481.7.7 0 0 1-.503.2Zm4.262 7.79a2.66 2.66 0 0 1-1.129-.235 1.939 1.939 0 0 1-.805-.686c-.2-.301-.299-.665-.299-1.091 0-.375.074-.679.222-.912.148-.236.345-.42.592-.554a3.12 3.12 0 0 1 .818-.298 10.1 10.1 0 0 1 .908-.162c.398-.051.72-.09.967-.115.25-.029.432-.075.546-.14.116-.066.175-.18.175-.342v-.034c0-.42-.115-.747-.346-.98-.227-.233-.572-.35-1.035-.35-.48 0-.857.106-1.13.316-.272.21-.464.435-.575.673l-.954-.34c.17-.398.398-.708.682-.93a2.55 2.55 0 0 1 .937-.468 3.89 3.89 0 0 1 1.006-.137 4 4 0 0 1 .724.077c.276.048.541.15.797.303.259.153.473.384.644.694.17.31.255.725.255 1.245V61h-1.005v-.886h-.052a1.77 1.77 0 0 1-.34.456c-.16.161-.371.3-.635.413-.265.114-.587.17-.968.17Zm.154-.904c.397 0 .733-.078 1.005-.234a1.595 1.595 0 0 0 .836-1.385v-.92c-.043.05-.137.097-.282.14-.142.04-.306.075-.494.106a22.444 22.444 0 0 1-.963.128c-.261.034-.506.09-.733.166a1.263 1.263 0 0 0-.545.337c-.137.148-.205.35-.205.605 0 .35.13.614.388.793.261.176.592.264.993.264Zm4.682.75v-6.545h.971v1.022h.086c.136-.35.356-.62.66-.814.304-.196.67-.294 1.095-.294.432 0 .791.098 1.078.294.29.194.516.465.678.814h.068c.168-.338.42-.606.755-.805.335-.202.737-.303 1.205-.303.586 0 1.064.184 1.437.55.372.364.558.93.558 1.7V61H58.99v-4.38c0-.484-.132-.829-.396-1.036a1.467 1.467 0 0 0-.934-.311c-.46 0-.816.139-1.07.417-.252.276-.378.625-.378 1.049V61h-1.023v-4.483c0-.372-.12-.672-.362-.9-.242-.23-.553-.344-.933-.344-.262 0-.506.07-.733.208a1.58 1.58 0 0 0-.546.58 1.71 1.71 0 0 0-.205.848V61h-1.005Zm13.174.136c-.63 0-1.175-.139-1.632-.417a2.803 2.803 0 0 1-1.053-1.176c-.244-.506-.366-1.094-.366-1.765 0-.67.122-1.261.366-1.772a2.89 2.89 0 0 1 1.031-1.202c.444-.29.96-.435 1.552-.435.34 0 .677.057 1.01.17.332.114.634.3.907.555.273.253.49.588.652 1.005.162.418.243.932.243 1.543v.426h-5.045v-.87h4.022c0-.368-.074-.698-.221-.988a1.67 1.67 0 0 0-.622-.686 1.743 1.743 0 0 0-.946-.251c-.401 0-.748.1-1.04.298a1.97 1.97 0 0 0-.67.767 2.253 2.253 0 0 0-.234 1.014v.58c0 .494.086.913.256 1.257.173.34.413.6.72.78.307.176.664.264 1.07.264a2.2 2.2 0 0 0 .716-.11c.216-.078.402-.191.558-.342.156-.153.277-.343.362-.57l.972.272c-.102.33-.274.62-.516.87-.241.246-.54.44-.895.579a3.318 3.318 0 0 1-1.197.204Zm5.246-4.074V61h-1.006v-6.545h.971v1.022h.086c.153-.332.386-.6.699-.8.312-.205.715-.308 1.21-.308.443 0 .83.091 1.163.273.333.179.591.452.776.818.184.364.277.824.277 1.38V61h-1.006v-4.09c0-.515-.133-.916-.4-1.203-.268-.29-.634-.434-1.1-.434-.321 0-.608.07-.86.208-.25.14-.448.343-.593.61-.145.267-.217.59-.217.971Zm8.86-2.607v.852h-3.392v-.852h3.392Zm-2.403-1.569h1.005v6.239c0 .284.041.497.124.64a.64.64 0 0 0 .324.28c.133.046.274.069.422.069.11 0 .201-.006.272-.017l.17-.035.205.904a2.042 2.042 0 0 1-.285.077 2.102 2.102 0 0 1-.465.042 2.01 2.01 0 0 1-.835-.183 1.66 1.66 0 0 1-.673-.558c-.176-.25-.264-.566-.264-.946v-6.512Zm6.505 8.25c-.591 0-1.11-.14-1.556-.422a2.866 2.866 0 0 1-1.04-1.18c-.247-.506-.37-1.096-.37-1.773 0-.681.123-1.277.37-1.785a2.86 2.86 0 0 1 1.04-1.185c.446-.281.965-.422 1.556-.422.59 0 1.107.14 1.55.422a2.81 2.81 0 0 1 1.04 1.185c.25.508.376 1.104.376 1.785 0 .676-.126 1.267-.376 1.773-.247.506-.593.9-1.04 1.18-.443.282-.96.422-1.55.422Zm0-.903c.448 0 .818-.115 1.107-.345.29-.23.505-.533.644-.908.14-.375.209-.781.209-1.219 0-.437-.07-.845-.209-1.223a2.06 2.06 0 0 0-.644-.916c-.29-.233-.659-.35-1.107-.35-.45 0-.819.117-1.108.35a2.06 2.06 0 0 0-.644.916 3.51 3.51 0 0 0-.209 1.223c0 .438.07.844.21 1.22.138.374.353.677.643.907.29.23.659.345 1.108.345Zm10.347.903a2.563 2.563 0 0 1-1.444-.413c-.418-.278-.745-.67-.98-1.176-.236-.509-.354-1.11-.354-1.803 0-.687.118-1.284.354-1.79.235-.505.563-.896.984-1.171.42-.276.906-.414 1.457-.414.426 0 .763.071 1.01.213.25.14.44.299.571.478.134.176.237.32.311.434h.086v-3.221h1.005V61h-.971v-1.006h-.12c-.074.12-.179.27-.315.452-.136.179-.331.34-.584.482-.253.139-.59.208-1.01.208Zm.137-.903c.403 0 .744-.105 1.022-.315.279-.213.49-.508.635-.883a3.63 3.63 0 0 0 .218-1.308c0-.488-.071-.916-.213-1.282a1.866 1.866 0 0 0-.631-.861c-.279-.208-.622-.311-1.031-.311-.427 0-.782.11-1.066.328-.281.216-.493.51-.635.882-.139.37-.208.784-.208 1.244 0 .466.07.89.213 1.27.144.378.358.68.639.904.284.221.636.332 1.057.332Zm7.589.903c-.631 0-1.175-.139-1.632-.417a2.803 2.803 0 0 1-1.053-1.176c-.244-.506-.366-1.094-.366-1.765 0-.67.122-1.261.366-1.772a2.89 2.89 0 0 1 1.032-1.202c.443-.29.96-.435 1.551-.435.341 0 .677.057 1.01.17.332.114.635.3.907.555.273.253.49.588.652 1.005.162.418.243.932.243 1.543v.426h-5.045v-.87h4.023c0-.368-.074-.698-.222-.988a1.67 1.67 0 0 0-.622-.686 1.744 1.744 0 0 0-.946-.251c-.401 0-.747.1-1.04.298a1.96 1.96 0 0 0-.669.767 2.254 2.254 0 0 0-.234 1.014v.58c0 .494.085.913.255 1.257.174.34.414.6.72.78a2.11 2.11 0 0 0 1.07.264 2.2 2.2 0 0 0 .716-.11c.216-.078.402-.191.558-.342.156-.153.277-.343.362-.57l.972.272c-.102.33-.274.62-.516.87-.241.246-.539.44-.894.579a3.325 3.325 0 0 1-1.198.204Zm7.752-.136v-8.727h1.005v3.221h.085c.074-.113.177-.258.307-.434.134-.18.324-.338.571-.478.25-.142.588-.213 1.014-.213.552 0 1.037.138 1.458.414.42.275.748.666.984 1.172.236.505.354 1.102.354 1.79 0 .693-.118 1.293-.354 1.802-.236.506-.562.898-.98 1.176a2.562 2.562 0 0 1-1.444.413c-.421 0-.758-.07-1.01-.208a1.867 1.867 0 0 1-.584-.482 6.326 6.326 0 0 1-.316-.452h-.119V61h-.971Zm.988-3.273c0 .495.073.93.217 1.309.145.374.357.669.635.882.279.21.62.315 1.023.315.421 0 .771-.11 1.053-.332.284-.225.497-.526.639-.904a3.54 3.54 0 0 0 .217-1.27c0-.46-.071-.875-.213-1.244a1.922 1.922 0 0 0-.635-.882c-.281-.219-.635-.328-1.061-.328-.409 0-.753.103-1.031.31a1.863 1.863 0 0 0-.631.862c-.142.366-.213.794-.213 1.282ZM115.928 61v-6.545h1.006V61h-1.006Zm.512-7.636a.715.715 0 0 1-.507-.2.641.641 0 0 1-.209-.482.64.64 0 0 1 .209-.482.715.715 0 0 1 .507-.2.7.7 0 0 1 .502.2.635.635 0 0 1 .214.482.635.635 0 0 1-.214.481.698.698 0 0 1-.502.2ZM118.912 61v-8.727h1.006v3.221h.085a9.15 9.15 0 0 1 .307-.434c.134-.18.324-.338.571-.478.25-.142.588-.213 1.014-.213.551 0 1.037.138 1.458.414.42.275.748.666.984 1.172.236.505.354 1.102.354 1.79 0 .693-.118 1.293-.354 1.802-.236.506-.562.898-.98 1.176a2.563 2.563 0 0 1-1.445.413c-.42 0-.757-.07-1.01-.208a1.874 1.874 0 0 1-.583-.482 6.326 6.326 0 0 1-.316-.452h-.119V61h-.972Zm.989-3.273c0 .495.072.93.217 1.309.145.374.357.669.635.882.279.21.62.315 1.023.315.42 0 .771-.11 1.052-.332a2.03 2.03 0 0 0 .64-.904 3.54 3.54 0 0 0 .217-1.27c0-.46-.071-.875-.213-1.244a1.922 1.922 0 0 0-.635-.882c-.281-.219-.635-.328-1.061-.328-.409 0-.753.103-1.031.31a1.863 1.863 0 0 0-.631.862c-.142.366-.213.794-.213 1.282Zm7.334-5.454V61h-1.006v-8.727h1.006ZM129.077 61v-6.545h1.005V61h-1.005Zm.511-7.636a.715.715 0 0 1-.507-.2.645.645 0 0 1-.209-.482c0-.188.07-.348.209-.482a.715.715 0 0 1 .507-.2.7.7 0 0 1 .503.2.637.637 0 0 1 .213.482.638.638 0 0 1-.213.481.7.7 0 0 1-.503.2Zm4.995 7.772c-.59 0-1.109-.14-1.555-.422a2.868 2.868 0 0 1-1.04-1.18c-.247-.506-.37-1.096-.37-1.773 0-.681.123-1.277.37-1.785.25-.509.597-.904 1.04-1.185.446-.281.965-.422 1.555-.422.591 0 1.108.14 1.552.422.446.281.792.676 1.039 1.185.25.508.375 1.104.375 1.785 0 .676-.125 1.267-.375 1.773-.247.506-.593.9-1.039 1.18-.444.282-.961.422-1.552.422Zm0-.903c.449 0 .819-.115 1.108-.345.29-.23.505-.533.644-.908a3.48 3.48 0 0 0 .209-1.219c0-.437-.07-.845-.209-1.223a2.058 2.058 0 0 0-.644-.916c-.289-.233-.659-.35-1.108-.35-.448 0-.818.117-1.108.35a2.064 2.064 0 0 0-.643.916 3.515 3.515 0 0 0-.209 1.223c0 .438.07.844.209 1.22.139.374.354.677.643.907.29.23.66.345 1.108.345Zm7.348-5.778v.852h-3.392v-.852h3.392Zm-2.403-1.569h1.005v6.239c0 .284.042.497.124.64a.64.64 0 0 0 .324.28c.133.046.274.069.422.069.11 0 .201-.006.272-.017l.171-.035.204.904a2.035 2.035 0 0 1-.285.077 2.104 2.104 0 0 1-.465.042 2.01 2.01 0 0 1-.835-.183 1.658 1.658 0 0 1-.673-.558c-.176-.25-.264-.566-.264-.946v-6.512Zm6.59 8.25c-.631 0-1.175-.139-1.632-.417a2.8 2.8 0 0 1-1.053-1.176c-.244-.506-.366-1.094-.366-1.765 0-.67.122-1.261.366-1.772a2.892 2.892 0 0 1 1.031-1.202c.444-.29.961-.435 1.552-.435.341 0 .677.057 1.01.17.332.114.635.3.907.555.273.253.49.588.652 1.005.162.418.243.932.243 1.543v.426h-5.045v-.87h4.022c0-.368-.073-.698-.221-.988a1.67 1.67 0 0 0-.622-.686 1.744 1.744 0 0 0-.946-.251c-.401 0-.748.1-1.04.298a1.96 1.96 0 0 0-.669.767 2.257 2.257 0 0 0-.235 1.014v.58c0 .494.086.913.256 1.257.173.34.413.6.72.78.307.176.664.264 1.07.264a2.2 2.2 0 0 0 .716-.11c.216-.078.402-.191.558-.342.156-.153.277-.343.362-.57l.972.272c-.102.33-.274.62-.516.87-.241.246-.54.44-.895.579a3.316 3.316 0 0 1-1.197.204Zm6.899 0c-.614 0-1.142-.145-1.585-.434a2.837 2.837 0 0 1-1.023-1.198c-.239-.508-.358-1.09-.358-1.743 0-.664.122-1.251.367-1.76.247-.51.591-.91 1.031-1.197.443-.29.96-.435 1.551-.435.46 0 .875.086 1.244.256.37.17.672.41.908.716.236.307.382.665.439 1.074h-1.006a1.555 1.555 0 0 0-.511-.793c-.261-.233-.614-.35-1.057-.35-.392 0-.736.103-1.031.308a1.99 1.99 0 0 0-.686.856c-.162.367-.243.797-.243 1.291 0 .506.079.946.238 1.321.162.375.39.666.682.874.296.207.642.311 1.04.311.261 0 .499-.045.712-.136a1.47 1.47 0 0 0 .541-.392 1.49 1.49 0 0 0 .315-.614h1.006a2.336 2.336 0 0 1-.422 1.044 2.363 2.363 0 0 1-.882.733c-.364.179-.787.268-1.27.268Zm5.97.017c-.415 0-.791-.078-1.129-.234a1.932 1.932 0 0 1-.805-.686c-.199-.301-.299-.665-.299-1.091 0-.375.074-.679.222-.912.148-.236.345-.42.592-.554a3.12 3.12 0 0 1 .818-.298c.302-.068.604-.122.908-.162.398-.051.72-.09.967-.115.25-.029.432-.075.546-.14.116-.066.175-.18.175-.342v-.034c0-.42-.116-.747-.346-.98-.227-.233-.572-.35-1.035-.35-.48 0-.857.106-1.129.316-.273.21-.465.435-.576.673l-.954-.34c.17-.398.397-.708.682-.93.287-.224.599-.38.937-.468a3.89 3.89 0 0 1 1.006-.137 4 4 0 0 1 .724.077c.276.048.541.15.797.303.259.153.473.384.644.694.17.31.255.725.255 1.245V61h-1.005v-.886h-.052a1.745 1.745 0 0 1-.341.456c-.159.161-.37.3-.634.413-.265.114-.587.17-.968.17Zm.154-.903c.397 0 .733-.078 1.005-.234a1.59 1.59 0 0 0 .622-.605c.143-.248.214-.508.214-.78v-.92c-.043.05-.137.097-.282.14a4.65 4.65 0 0 1-.494.106 22.717 22.717 0 0 1-.963.128c-.261.034-.506.09-.733.166a1.273 1.273 0 0 0-.546.337c-.136.148-.204.35-.204.605 0 .35.129.614.388.793.261.176.592.264.993.264Z"/></svg>