<svg xmlns="http://www.w3.org/2000/svg" width="153" height="24" fill="none"><path fill="#171923" fill-opacity=".62" d="M3.128 12.688c0 1.28.304 2.288.912 3.024.608.72 1.448 1.08 2.52 1.08.464 0 .856-.016 1.176-.048.336-.048.608-.096.816-.144V9.4c-.256-.176-.6-.336-1.032-.48a3.712 3.712 0 0 0-1.344-.24c-1.056 0-1.832.36-2.328 1.08-.48.72-.72 1.696-.72 2.928Zm8.328 5.928c-.576.176-1.304.336-2.184.48-.864.144-1.776.216-2.736.216-.992 0-1.88-.152-2.664-.456a5.752 5.752 0 0 1-2.016-1.296 6.146 6.146 0 0 1-1.272-2.064C.296 14.68.152 13.768.152 12.76c0-.992.12-1.888.36-2.688.256-.816.624-1.512 1.104-2.088a4.749 4.749 0 0 1 1.752-1.32c.688-.32 1.48-.48 2.376-.48.608 0 1.144.072 1.608.216.464.144.864.304 1.2.48V.856l2.904-.48v18.24Zm6.617.384h-2.904V6.448h2.904V19Zm.312-16.224c0 .544-.176.976-.528 1.296-.352.32-.768.48-1.248.48-.496 0-.92-.16-1.272-.48-.352-.32-.528-.752-.528-1.296 0-.56.176-1 .528-1.32.352-.32.776-.48 1.272-.48.48 0 .896.16 1.248.48.352.32.528.76.528 1.32Zm5.673 9.624c0 1.232.264 2.136.792 2.712.544.56 1.24.84 2.088.84a4.23 4.23 0 0 0 1.296-.192c.416-.128.752-.28 1.008-.456V8.8a6.53 6.53 0 0 0-.768-.12 7.603 7.603 0 0 0-1.152-.072c-1.056 0-1.864.352-2.424 1.056-.56.688-.84 1.6-.84 2.736Zm8.088 5.328c0 2-.512 3.464-1.536 4.392-1.008.928-2.56 1.392-4.656 1.392-.768 0-1.52-.064-2.256-.192a12.593 12.593 0 0 1-1.968-.504l.528-2.472a9.047 9.047 0 0 0 1.68.504c.64.128 1.328.192 2.064.192 1.168 0 2-.24 2.496-.72s.744-1.192.744-2.136v-.48a7.408 7.408 0 0 1-1.152.432c-.464.144-1 .216-1.608.216-.8 0-1.536-.128-2.208-.384a4.738 4.738 0 0 1-1.704-1.128c-.464-.496-.832-1.112-1.104-1.848-.256-.752-.384-1.616-.384-2.592 0-.912.136-1.752.408-2.52a5.617 5.617 0 0 1 1.224-1.968 5.723 5.723 0 0 1 1.968-1.272c.768-.304 1.64-.456 2.616-.456.944 0 1.84.072 2.688.216a23.55 23.55 0 0 1 2.16.456v10.872ZM38.768 19h-2.904V6.448h2.904V19Zm.312-16.224c0 .544-.176.976-.528 1.296-.352.32-.768.48-1.248.48-.496 0-.92-.16-1.272-.48-.352-.32-.528-.752-.528-1.296 0-.56.176-1 .528-1.32.352-.32.776-.48 1.272-.48.48 0 .896.16 1.248.48.352.32.528.76.528 1.32Zm3.249.36 2.904-.48v3.792h4.464v2.424h-4.464v5.112c0 1.008.16 1.728.48 2.16.32.432.864.648 1.632.648.528 0 .992-.056 1.392-.168.416-.112.744-.216.984-.312l.48 2.304a9.838 9.838 0 0 1-1.32.432c-.544.16-1.184.24-1.92.24-.896 0-1.648-.12-2.256-.36-.592-.24-1.064-.584-1.416-1.032a4.24 4.24 0 0 1-.744-1.656c-.144-.656-.216-1.4-.216-2.232V3.136ZM56.92 16.96c.896 0 1.576-.048 2.04-.144V13.6a6.489 6.489 0 0 0-1.704-.216c-.32 0-.648.024-.984.072-.32.048-.616.136-.888.264a1.596 1.596 0 0 0-.624.552c-.16.224-.24.512-.24.864 0 .688.216 1.168.648 1.44.432.256 1.016.384 1.752.384Zm-.24-10.824c.96 0 1.768.12 2.424.36.656.24 1.176.576 1.56 1.008.4.432.68.96.84 1.584.176.608.264 1.28.264 2.016v7.608c-.448.096-1.128.208-2.04.336-.896.144-1.912.216-3.048.216-.752 0-1.44-.072-2.064-.216-.624-.144-1.16-.376-1.608-.696a3.436 3.436 0 0 1-1.032-1.248c-.24-.512-.36-1.144-.36-1.896 0-.72.136-1.328.408-1.824a3.449 3.449 0 0 1 1.152-1.2 4.628 4.628 0 0 1 1.656-.672 9.048 9.048 0 0 1 1.992-.216c.32 0 .656.024 1.008.072.352.032.728.096 1.128.192v-.48c0-.336-.04-.656-.12-.96a1.829 1.829 0 0 0-.432-.792 1.813 1.813 0 0 0-.792-.552c-.32-.128-.728-.192-1.224-.192-.672 0-1.288.048-1.848.144a8.125 8.125 0 0 0-1.368.336l-.36-2.352c.368-.128.904-.256 1.608-.384a12.61 12.61 0 0 1 2.256-.192ZM69.693 19.24c-.864-.016-1.584-.112-2.16-.288-.56-.176-1.008-.424-1.344-.744a2.863 2.863 0 0 1-.72-1.224 6.736 6.736 0 0 1-.192-1.68V.856l2.904-.48v14.376c0 .352.024.648.072.888.064.24.168.448.312.624.144.16.336.288.576.384.256.08.576.144.96.192l-.408 2.4Z"/><path fill="#DD6B20" d="M83.634 15.784V19H72.522V2.368h3.744v13.416h7.368ZM89.38 19h-3.576V6.376h3.576V19Zm.336-16.272c0 .656-.216 1.176-.648 1.56a2.17 2.17 0 0 1-1.488.552 2.26 2.26 0 0 1-1.512-.552c-.416-.384-.624-.904-.624-1.56s.208-1.168.624-1.536a2.205 2.205 0 0 1 1.512-.576c.576 0 1.072.192 1.488.576.432.368.648.88.648 1.536Zm11.114 9.864c0-2.304-.849-3.456-2.544-3.456-.369 0-.737.048-1.105.144a3.12 3.12 0 0 0-.864.36v6.504c.177.032.4.064.672.096.273.016.569.024.889.024.975 0 1.712-.336 2.208-1.008.496-.672.744-1.56.744-2.664Zm3.648.096c0 1.008-.152 1.92-.456 2.736a5.644 5.644 0 0 1-1.272 2.088c-.56.576-1.248 1.024-2.064 1.344-.816.304-1.745.456-2.784.456-.433 0-.889-.024-1.369-.072-.464-.032-.928-.08-1.392-.144-.447-.064-.88-.136-1.295-.216a17.844 17.844 0 0 1-1.104-.288V.952l3.576-.576v6.288a6.41 6.41 0 0 1 2.64-.552c.896 0 1.688.16 2.376.48a4.531 4.531 0 0 1 1.727 1.32c.465.576.817 1.272 1.057 2.088.24.8.36 1.696.36 2.688Zm10.356-3.144c-.32-.08-.696-.16-1.128-.24a6.41 6.41 0 0 0-1.392-.144 5.64 5.64 0 0 0-.816.072 4.05 4.05 0 0 0-.696.12V19h-3.576V7.048c.64-.224 1.392-.432 2.256-.624.88-.208 1.856-.312 2.928-.312.192 0 .424.016.696.048.272.016.544.048.816.096.272.032.544.08.816.144.272.048.504.112.696.192l-.6 2.952Zm7.107 6.96c.352 0 .688-.008 1.008-.024.32-.016.576-.04.768-.072v-2.712a6.602 6.602 0 0 0-.648-.096 7.216 7.216 0 0 0-.792-.048c-.336 0-.656.024-.96.072a2.263 2.263 0 0 0-.768.216c-.224.112-.4.264-.528.456s-.192.432-.192.72c0 .56.184.952.552 1.176.384.208.904.312 1.56.312Zm-.288-10.464c1.056 0 1.936.12 2.64.36.704.24 1.264.584 1.68 1.032.432.448.736.992.912 1.632a8.05 8.05 0 0 1 .264 2.136v7.44c-.512.112-1.224.24-2.136.384-.912.16-2.016.24-3.312.24-.816 0-1.56-.072-2.232-.216-.656-.144-1.224-.376-1.704-.696a3.33 3.33 0 0 1-1.104-1.296c-.256-.528-.384-1.176-.384-1.944 0-.736.144-1.36.432-1.872.304-.512.704-.92 1.2-1.224a5.172 5.172 0 0 1 1.704-.648 9.046 9.046 0 0 1 1.991-.216c.465 0 .873.024 1.225.072.368.032.664.08.888.144v-.336c0-.608-.184-1.096-.552-1.464-.368-.368-1.008-.552-1.92-.552-.608 0-1.208.048-1.8.144-.592.08-1.104.2-1.536.36l-.456-2.88c.208-.064.464-.128.768-.192.32-.08.664-.144 1.032-.192a12.58 12.58 0 0 1 1.152-.144c.416-.048.832-.072 1.248-.072Zm16.337 3.504c-.32-.08-.696-.16-1.128-.24a6.41 6.41 0 0 0-1.392-.144 5.64 5.64 0 0 0-.816.072 4.05 4.05 0 0 0-.696.12V19h-3.576V7.048c.64-.224 1.392-.432 2.256-.624.88-.208 1.856-.312 2.928-.312.192 0 .424.016.696.048.272.016.544.048.816.096.272.032.544.08.816.144.272.048.504.112.696.192l-.6 2.952Zm14.475-3.168a110.787 110.787 0 0 1-2.256 6.84 82.307 82.307 0 0 1-2.568 6.192c-.336.72-.672 1.328-1.008 1.824a5.306 5.306 0 0 1-1.104 1.248c-.4.336-.856.576-1.368.72-.496.16-1.08.24-1.752.24-.56 0-1.08-.056-1.56-.168a6.318 6.318 0 0 1-1.152-.336l.624-2.856c.368.128.696.216.984.264.288.048.592.072.912.072.64 0 1.128-.176 1.464-.528.352-.336.648-.808.888-1.416a72.977 72.977 0 0 1-2.448-5.376c-.816-2-1.584-4.24-2.304-6.72h3.792c.16.624.344 1.304.552 2.04.224.72.456 1.456.696 2.208.24.736.48 1.456.72 2.16.256.704.496 1.344.72 1.92a53 53 0 0 0 .648-1.92c.224-.704.44-1.424.648-2.16.224-.752.432-1.488.624-2.208.208-.736.392-1.416.552-2.04h3.696Z"/></svg>